<?xml version="1.0" encoding="UTF-8" standalone="no"?>
<!-- Generator: Adobe Illustrator 15.0.2, SVG Export Plug-In  -->

<svg
   xmlns:dc="http://purl.org/dc/elements/1.1/"
   xmlns:cc="http://creativecommons.org/ns#"
   xmlns:rdf="http://www.w3.org/1999/02/22-rdf-syntax-ns#"
   xmlns:svg="http://www.w3.org/2000/svg"
   xmlns="http://www.w3.org/2000/svg"
   xmlns:sodipodi="http://sodipodi.sourceforge.net/DTD/sodipodi-0.dtd"
   xmlns:inkscape="http://www.inkscape.org/namespaces/inkscape"
   version="1.1"
   x="0px"
   y="0px"
   width="293.69302"
   height="59.194"
   viewBox="0 0 293.69302 59.194"
   overflow="visible"
   enable-background="new 0 0 750 450"
   xml:space="preserve"
   id="svg3067"
   inkscape:version="0.48.2 r9819"
   sodipodi:docname="booster.svg"
   style="overflow:visible"><metadata
   id="metadata3109"><rdf:RDF><cc:Work
       rdf:about=""><dc:format>image/svg+xml</dc:format><dc:type
         rdf:resource="http://purl.org/dc/dcmitype/StillImage" /><dc:title></dc:title></cc:Work></rdf:RDF></metadata><sodipodi:namedview
   pagecolor="#1790a0"
   bordercolor="#666666"
   borderopacity="1"
   objecttolerance="10"
   gridtolerance="10"
   guidetolerance="10"
   inkscape:pageopacity="1"
   inkscape:pageshadow="2"
   inkscape:window-width="1331"
   inkscape:window-height="767"
   id="namedview3107"
   showgrid="false"
   fit-margin-top="0"
   fit-margin-left="0"
   fit-margin-right="0"
   fit-margin-bottom="0"
   inkscape:zoom="0.91866667"
   inkscape:cx="68.336767"
   inkscape:cy="46.103"
   inkscape:window-x="44"
   inkscape:window-y="105"
   inkscape:window-maximized="0"
   inkscape:current-layer="svg3067" />
<defs
   id="defs3069">
</defs>














<path
   d="m 54,7.264 v 50.643 h 12.035 v -3.332 c 1.904,2.448 4.76,4.215 9.247,4.215 9.179,0 13.055,-7.411 13.055,-18.698 0,-11.287 -3.876,-18.766 -13.055,-18.766 -4.284,0 -6.867,1.7 -8.703,3.943 V 0 L 54,7.264 z m 16.047,22.215 c 3.535,0 4.827,2.04 4.827,10.811 0,8.703 -1.292,10.811 -4.827,10.811 -1.225,0 -2.447,-0.408 -3.468,-1.292 V 30.771 c 1.021,-0.885 2.312,-1.292 3.468,-1.292 z m 40.255,-8.159 c -12.442,0 -18.019,7.615 -18.019,18.902 0,11.287 5.508,18.97 18.019,18.97 12.374,0 17.95,-7.683 17.95,-18.97 0,-11.287 -5.576,-18.902 -17.95,-18.902 z m 0,30.868 c -3.604,0 -4.556,-3.06 -4.556,-11.967 0,-8.907 0.952,-11.967 4.556,-11.967 3.604,0 4.487,3.06 4.487,11.967 0,8.84 -0.884,11.967 -4.487,11.967 z M 150.217,21.32 c -12.443,0 -18.019,7.615 -18.019,18.902 0,11.287 5.508,18.97 18.019,18.97 12.375,0 17.95,-7.683 17.95,-18.97 0,-11.287 -5.575,-18.902 -17.95,-18.902 z m 0,30.868 c -3.604,0 -4.556,-3.06 -4.556,-11.967 0,-8.907 0.952,-11.967 4.556,-11.967 3.604,0 4.487,3.06 4.487,11.967 0,8.84 -0.884,11.967 -4.487,11.967 z m 36.788,-24.205 c 4.079,0 4.691,3.264 4.964,4.896 0.476,0.068 1.02,0.068 1.631,0.068 2.924,0 7.14,-0.476 8.84,-1.156 -0.137,-3.808 -2.788,-10.471 -15.162,-10.471 -10.403,0 -15.367,5.303 -15.367,12.239 0,7.275 5.235,9.179 10.268,10.539 4.487,1.156 8.771,1.632 8.771,4.828 0,2.108 -1.36,3.536 -3.808,3.536 -4.08,0 -5.168,-2.992 -5.508,-5.031 h -0.476 c -3.399,0 -8.295,0.68 -9.927,1.292 0.408,5.643 4.623,10.471 15.299,10.471 10.811,0 15.91,-5.167 15.91,-12.646 0,-7.208 -5.508,-9.043 -10.676,-10.335 -4.419,-1.088 -8.635,-1.7 -8.635,-4.828 0,-2.11 1.564,-3.402 3.876,-3.402 z m 39.234,23.185 c -3.604,0 -4.352,-1.428 -4.352,-5.031 V 29.615 h 7.071 v -7.207 h -7.071 v -8.771 c -2.924,0.272 -6.188,0.408 -8.022,0.408 -1.36,6.663 -2.517,8.363 -7.615,8.363 h -1.225 v 7.207 h 4.283 v 17.406 c 0,9.383 4.148,11.967 13.055,11.967 3.469,0 5.984,-0.612 6.664,-0.952 0.136,-0.68 0.203,-1.972 0.203,-3.264 0,-1.7 -0.135,-3.468 -0.34,-4.012 -0.679,0.272 -1.767,0.408 -2.651,0.408 z M 248.543,21.32 c -11.423,0 -17.542,6.799 -17.542,18.766 0,12.035 6.052,19.106 17.882,19.106 9.791,0 14.414,-4.556 15.774,-11.083 -2.107,-0.68 -7.479,-1.088 -11.083,-1.088 h -0.544 c -0.204,1.632 -0.815,5.304 -4.011,5.304 -3.129,0 -4.352,-2.584 -4.624,-9.519 h 20.737 c 0.137,-1.02 0.272,-2.72 0.272,-3.944 10e-4,-9.859 -4.894,-17.542 -16.861,-17.542 z m -4.08,15.162 c 0.272,-6.391 1.428,-8.499 4.284,-8.499 3.264,0 4.012,2.652 4.012,8.499 h -8.296 z m 48.891,-14.891 c -0.408,-0.204 -1.428,-0.272 -2.312,-0.272 -6.324,0 -8.023,6.051 -8.636,8.091 h -0.271 v -7.615 c -4.216,0.476 -11.763,0.612 -11.899,0.612 v 35.696 h 13.259 c -0.544,-1.156 -0.68,-5.031 -0.68,-8.499 V 34.985 c 0.408,-0.476 2.72,-1.972 7.275,-1.972 1.088,0 2.516,0.136 3.195,0.272 0.272,-0.952 0.408,-3.876 0.408,-6.596 0.001,-2.174 -0.066,-4.146 -0.339,-5.098 z"
   id="path3099"
   inkscape:connector-curvature="0"
   style="fill:#ffffff" />
<path
   d="M 36,17.657 V 58.091 H 50 V 9.574 L 36,17.657 z M 18,58.091 H 32 V 19.966 l -14,8.083 v 30.042 z m -18,0 H 14 V 30.359 L 0,38.442 v 19.649 z"
   id="path3101"
   inkscape:connector-curvature="0"
   style="fill:#f6ab6f" />


</svg>