<?xml version="1.0" encoding="UTF-8" standalone="no"?>
<svg width="1650px" height="1765px" viewBox="0 0 1650 1765" version="1.1" xmlns="http://www.w3.org/2000/svg" xmlns:xlink="http://www.w3.org/1999/xlink">
    <!-- Generator: Sketch 41.2 (35397) - http://www.bohemiancoding.com/sketch -->
    <title>Page 1</title>
    <desc>Created with Sketch.</desc>
    <defs>
        <polygon id="path-1" points="1649.579 1649.998 1649.579 0.42 0 0.42 0 1649.998"></polygon>
        <polygon id="path-3" points="1516.5884 0.94 0.85 0.94 0.85 1516.6747 1516.5884 1516.6747 1516.5884 0.94"></polygon>
        <polygon id="path-5" points="0.6992 1382.35 1382.5962 1382.35 1382.5962 0.46 0.6992 0.46 0.6992 1382.35"></polygon>
        <polygon id="path-7" points="1248.599 1249.0285 1248.599 0.9745 0.549 0.9745 0.549 1249.0285 1248.599 1249.0285"></polygon>
        <polygon id="path-9" points="1114.609 1114.7056 1114.609 0.4936 0.398 0.4936 0.398 1114.7056 1114.609 1114.7056"></polygon>
        <polygon id="path-11" points="0.2477 980.38 980.6187 980.38 980.6187 0.0113 0.2477 0.0113 0.2477 980.38"></polygon>
        <polygon id="path-13" points="0.097 0.5304 0.097 847.0594 846.6255 847.0594 846.6255 0.5304 0.097 0.5304"></polygon>
        <polygon id="path-15" points="713.629 712.7371 713.629 0.05 0.9463 0.05 0.9463 712.7371 713.629 712.7371"></polygon>
        <polygon id="path-17" points="0.7961 579.41 579.639 579.41 579.639 0.57 0.7961 0.57 0.7961 579.41"></polygon>
        <polygon id="path-19" points="445.6479 445.09 0.649 445.09 0.649 0.09 445.6479 0.09 445.6479 445.09"></polygon>
        <polygon id="path-21" points="311.6558 0.61 0.5 0.61 0.5 311.768 311.6558 311.768 311.6558 0.61"></polygon>
        <polygon id="path-23" points="0.3436 177.44 177.659 177.44 177.659 0.13 0.3436 0.13 0.3436 177.44"></polygon>
    </defs>
    <g id="Page-1" stroke="none" stroke-width="1" fill="none" fill-rule="evenodd">
        <g transform="translate(0.000000, -1.000000)">
            <g id="Group-34" transform="translate(0.000000, 10.870000)">
                <g id="Group-3" transform="translate(0.000000, 105.000000)">
                    <mask id="mask-2" fill="white">
                        <use xlink:href="#path-1"></use>
                    </mask>
                    <g id="Clip-2"></g>
                    <path d="M1649.5815,825.208 C1649.5815,1280.727 1280.3105,1649.998 824.7905,1649.998 C369.2715,1649.998 -0.0005,1280.727 -0.0005,825.208 C-0.0005,369.688 369.2715,0.417 824.7905,0.417 C1280.3105,0.417 1649.5815,369.688 1649.5815,825.208" id="Fill-1" fill="#5D5D5D" mask="url(#mask-2)"></path>
                </g>
                <g id="Group-6" transform="translate(116.000000, 94.000000)">
                    <mask id="mask-4" fill="white">
                        <use xlink:href="#path-3"></use>
                    </mask>
                    <g id="Clip-5"></g>
                    <path d="M1516.5884,758.8057 C1516.5884,1177.3657 1177.2784,1516.6747 758.7194,1516.6747 C340.1594,1516.6747 0.8494,1177.3657 0.8494,758.8057 C0.8494,340.2457 340.1594,0.9367 758.7194,0.9367 C1177.2784,0.9367 1516.5884,340.2457 1516.5884,758.8057" id="Fill-4" fill="#6B635F" mask="url(#mask-4)"></path>
                </g>
                <g id="Group-9" transform="translate(233.000000, 84.000000)">
                    <mask id="mask-6" fill="white">
                        <use xlink:href="#path-5"></use>
                    </mask>
                    <g id="Clip-8"></g>
                    <path d="M1382.5962,691.4038 C1382.5962,1073.0038 1073.2472,1382.3518 691.6482,1382.3518 C310.0472,1382.3518 0.6992,1073.0038 0.6992,691.4038 C0.6992,309.8028 310.0472,0.4548 691.6482,0.4548 C1073.2472,0.4548 1382.5962,309.8028 1382.5962,691.4038" id="Fill-7" fill="#786861" mask="url(#mask-6)"></path>
                </g>
                <g id="Group-12" transform="translate(350.000000, 73.000000)">
                    <mask id="mask-8" fill="white">
                        <use xlink:href="#path-7"></use>
                    </mask>
                    <g id="Clip-11"></g>
                    <path d="M1248.603,625.0015 C1248.603,969.6425 969.216,1249.0285 624.577,1249.0285 C279.936,1249.0285 0.548,969.6425 0.548,625.0015 C0.548,280.3605 279.936,0.9745 624.577,0.9745 C969.216,0.9745 1248.603,280.3605 1248.603,625.0015" id="Fill-10" fill="#866E64" mask="url(#mask-8)"></path>
                </g>
                <g id="Group-15" transform="translate(467.000000, 63.000000)">
                    <mask id="mask-10" fill="white">
                        <use xlink:href="#path-9"></use>
                    </mask>
                    <g id="Clip-14"></g>
                    <path d="M1114.6108,557.5996 C1114.6108,865.2806 865.1858,1114.7056 557.5058,1114.7056 C249.8228,1114.7056 0.3978,865.2806 0.3978,557.5996 C0.3978,249.9176 249.8228,0.4936 557.5058,0.4936 C865.1858,0.4936 1114.6108,249.9176 1114.6108,557.5996" id="Fill-13" fill="#937466" mask="url(#mask-10)"></path>
                </g>
                <g id="Group-18" transform="translate(584.000000, 53.000000)">
                    <mask id="mask-12" fill="white">
                        <use xlink:href="#path-11"></use>
                    </mask>
                    <g id="Clip-17"></g>
                    <path d="M980.6187,490.1973 C980.6187,760.9193 761.1537,980.3833 490.4317,980.3833 C219.7107,980.3833 0.2477,760.9193 0.2477,490.1973 C0.2477,219.4753 219.7107,0.0113 490.4317,0.0113 C761.1537,0.0113 980.6187,219.4753 980.6187,490.1973" id="Fill-16" fill="#A17A68" mask="url(#mask-12)"></path>
                </g>
                <g id="Group-21" transform="translate(701.000000, 42.000000)">
                    <mask id="mask-14" fill="white">
                        <use xlink:href="#path-13"></use>
                    </mask>
                    <g id="Clip-20"></g>
                    <path d="M846.6255,423.7954 C846.6255,657.5574 657.1235,847.0594 423.3605,847.0594 C189.5995,847.0594 0.0965,657.5574 0.0965,423.7954 C0.0965,190.0324 189.5995,0.5304 423.3605,0.5304 C657.1235,0.5304 846.6255,190.0324 846.6255,423.7954" id="Fill-19" fill="#AE7F6A" mask="url(#mask-14)"></path>
                </g>
                <g id="Group-24" transform="translate(817.000000, 32.000000)">
                    <mask id="mask-16" fill="white">
                        <use xlink:href="#path-15"></use>
                    </mask>
                    <g id="Clip-23"></g>
                    <path d="M713.6333,356.3931 C713.6333,553.1961 554.0923,712.7371 357.2893,712.7371 C160.4863,712.7371 0.9463,553.1961 0.9463,356.3931 C0.9463,159.5901 160.4863,0.0491 357.2893,0.0491 C554.0923,0.0491 713.6333,159.5901 713.6333,356.3931" id="Fill-22" fill="#BC856C" mask="url(#mask-16)"></path>
                </g>
                <g id="Group-27" transform="translate(934.000000, 21.000000)">
                    <mask id="mask-18" fill="white">
                        <use xlink:href="#path-17"></use>
                    </mask>
                    <g id="Clip-26"></g>
                    <path d="M579.6411,289.9912 C579.6411,449.8352 450.0621,579.4132 290.2171,579.4132 C130.3741,579.4132 0.7961,449.8352 0.7961,289.9912 C0.7961,130.1472 130.3741,0.5682 290.2171,0.5682 C450.0621,0.5682 579.6411,130.1472 579.6411,289.9912" id="Fill-25" fill="#C98B6E" mask="url(#mask-18)"></path>
                </g>
                <g id="Group-30" transform="translate(1051.000000, 11.000000)">
                    <mask id="mask-20" fill="white">
                        <use xlink:href="#path-19"></use>
                    </mask>
                    <g id="Clip-29"></g>
                    <path d="M445.6479,222.5889 C445.6479,345.4729 346.0309,445.0909 223.1459,445.0909 C100.2619,445.0909 0.6449,345.4729 0.6449,222.5889 C0.6449,99.7049 100.2619,0.0879 223.1459,0.0879 C346.0309,0.0879 445.6479,99.7049 445.6479,222.5889" id="Fill-28" fill="#D79171" mask="url(#mask-20)"></path>
                </g>
                <g id="Group-33" transform="translate(1168.000000, 0.000000)">
                    <mask id="mask-22" fill="white">
                        <use xlink:href="#path-21"></use>
                    </mask>
                    <g id="Clip-32"></g>
                    <path d="M311.6558,156.187 C311.6558,242.112 241.9998,311.768 156.0748,311.768 C70.1498,311.768 0.4948,242.112 0.4948,156.187 C0.4948,70.262 70.1498,0.606 156.0748,0.606 C241.9998,0.606 311.6558,70.262 311.6558,156.187" id="Fill-31" fill="#E49673" mask="url(#mask-22)"></path>
                </g>
            </g>
            <g id="Group-37" transform="translate(1285.000000, 0.870000)">
                <mask id="mask-24" fill="white">
                    <use xlink:href="#path-23"></use>
                </mask>
                <g id="Clip-36"></g>
                <path d="M177.6636,88.7847 C177.6636,137.7497 137.9696,177.4447 89.0036,177.4447 C40.0386,177.4447 0.3436,137.7497 0.3436,88.7847 C0.3436,39.8197 40.0386,0.1247 89.0036,0.1247 C137.9696,0.1247 177.6636,39.8197 177.6636,88.7847" id="Fill-35" fill="#F29C75" mask="url(#mask-24)"></path>
            </g>
        </g>
    </g>
</svg>