<?xml version="1.0" encoding="utf-8"?>
<!-- Generator: Adobe Illustrator 22.0.1, SVG Export Plug-In . SVG Version: 6.00 Build 0)  -->
<svg version="1.1" id="Layer_1" xmlns="http://www.w3.org/2000/svg" xmlns:xlink="http://www.w3.org/1999/xlink" x="0px" y="0px"
	 viewBox="0 0 367.7 127.1" style="enable-background:new 0 0 367.7 127.1;" xml:space="preserve">
<style type="text/css">
	.st0{fill:#0E3E4D;}
</style>
<g>
	<path class="st0" d="M80,29.5V78H66V37.6L80,29.5z M48,78h14V39.9L48,48V78z M30,78h14V50.3l-14,8.1V78z"/>
	<path class="st0" d="M123.1,59.8c0-11.6,5.7-19.2,18.6-19.2c12.9,0,18.6,7.6,18.6,19.2c0,11.6-5.8,19.2-18.6,19.2
		C128.7,79,123.1,71.3,123.1,59.8z M144.6,59.8c0-8.8-0.4-11.1-3-11.1c-2.4,0-3,2.2-3,11.1c0,8.8,0.5,11.2,3,11.2
		C144.2,70.9,144.6,68.6,144.6,59.8z M163.4,59.8c0-11.6,5.7-19.2,18.6-19.2c12.9,0,18.6,7.6,18.6,19.2c0,11.6-5.8,19.2-18.6,19.2
		C169,79,163.4,71.3,163.4,59.8z M184.9,59.8c0-8.8-0.4-11.1-3-11.1c-2.4,0-3,2.2-3,11.1c0,8.8,0.5,11.2,3,11.2
		C184.5,70.9,184.9,68.6,184.9,59.8z M213.3,66.5c0.4,0,0.7,0,1.6,0.1c0.2,1.9,1,4.7,4.6,4.7c1.9,0,2.9-1.2,2.9-2.8
		c0-2.8-4.4-3.1-8.8-4.1c-5-1.2-10.3-3.2-10.3-10.8c0-7.3,5.2-12.9,16.3-12.9c13.4,0,16,7.1,16,11.3c-2.2,0.8-6.7,1.3-10.1,1.3
		c-0.8,0-1.4,0-2-0.1c-0.2-1.6-0.5-4.8-4.2-4.8c-1.8,0-3.1,1-3.1,2.7c0,2.9,4.2,3.3,8.7,4.4c5.2,1.2,10.7,3,10.7,10.3
		c0,8-5.2,13.3-16.8,13.3c-11.4,0-15.8-5.1-16.1-11.2C204.5,67.2,209.8,66.5,213.3,66.5z M241.7,50.2h-3.9v-8.4h1
		c5.3,0,6.6-1.9,8.1-8.6c2.1,0,5.7-0.1,9.5-0.4v9h6.7v8.4h-6.7V65c0,3.3,0.5,4.7,4,4.7c0.8,0,1.8-0.1,2.6-0.3
		c0.2,0.7,0.3,2.8,0.3,4.8c0,1.4-0.1,2.9-0.2,3.6c-0.7,0.4-3.5,1.1-7.3,1.1c-9.5,0-14-2.7-14-12.7V50.2z M280.4,63.1
		c0.2,6,1,8,3.2,8c2.5,0,2.8-3.5,2.9-5c1.2-0.1,1.6-0.1,2.2-0.1c3.1,0,8.8,0.3,11.2,1.2C298.7,74,294,79,283.5,79
		c-12.2,0-18.6-6.9-18.6-19.4c0-12.4,6.5-19,18.2-19c12.6,0,17.7,7.9,17.7,18.2c0,1.4-0.1,3.2-0.3,4.3H280.4z M286.3,55.7
		c0-5.2-0.3-7.4-2.9-7.4c-2,0-2.8,1.6-3,7.4H286.3z M304.7,41.7c2.4,0,8.7-0.1,13.8-0.5v8.2h0.3c0.5-2.2,2-8.8,8.6-8.8
		c1,0,2.1,0.1,2.4,0.3c0.3,1.1,0.4,3.5,0.4,6.1c0,3.1-0.2,6.4-0.5,7.5c-0.8-0.1-2.3-0.3-3.4-0.3c-4.4,0-6.7,1.2-7.1,1.6v13.3
		c0,3.3,0.1,7.5,0.7,8.8h-15.4V41.7z M84.1,27.1v50.7H98v-3.3c1.9,2.5,4.6,4.3,9,4.3c9,0,12.9-7.3,12.9-19c0-11.6-3.8-19-12.9-19
		c-4.1,0-6.6,1.6-8.4,3.8v-26L84.1,27.1z M100.8,50.1c2.6,0,3.5,1.1,3.5,9.7c0,8.6-1,9.7-3.5,9.7c-0.7,0-1.4-0.2-2.1-0.7V50.8
		C99.4,50.3,100.1,50.1,100.8,50.1z"/>
</g>
<g>
	<path class="st0" d="M44.6,106.3h-1.7l-0.4-5.6c-0.2-2.2-0.3-3.9-0.3-5.1l-2.7,9.3h-1.6l-2.8-9.3c0,1.5-0.1,3.2-0.2,5.2l-0.4,5.5
		h-1.6l1-12.4h2.3l2.6,9l2.5-9h2.3L44.6,106.3z"/>
	<path class="st0" d="M54,104.9c0.1,0.2,0.3,0.3,0.6,0.4l-0.4,1.2c-0.5-0.1-0.9-0.2-1.2-0.4c-0.3-0.2-0.5-0.6-0.7-1
		c-0.6,0.9-1.6,1.4-2.8,1.4c-0.9,0-1.7-0.3-2.2-0.8c-0.5-0.5-0.8-1.2-0.8-2.1c0-1,0.4-1.8,1.1-2.3c0.7-0.5,1.8-0.8,3.1-0.8h1.5v-0.7
		c0-0.7-0.2-1.2-0.5-1.4s-0.8-0.4-1.5-0.4c-0.7,0-1.5,0.2-2.6,0.5l-0.4-1.2c1.2-0.4,2.3-0.6,3.3-0.6c1.1,0,1.9,0.3,2.5,0.8
		c0.6,0.5,0.8,1.3,0.8,2.3v4.3C53.8,104.4,53.8,104.7,54,104.9z M52.1,103.8v-2.2h-1.2c-1.8,0-2.6,0.6-2.6,1.9c0,0.6,0.1,1,0.4,1.3
		s0.7,0.4,1.2,0.4C50.8,105.2,51.6,104.8,52.1,103.8z"/>
	<path class="st0" d="M62.2,96.7l-0.3,1.6c-0.3-0.1-0.6-0.1-0.8-0.1c-0.6,0-1.1,0.2-1.4,0.6s-0.6,1.1-0.8,2v5.4h-1.7v-9.5h1.4
		l0.2,1.9c0.3-0.7,0.6-1.2,1-1.6c0.4-0.4,0.9-0.5,1.5-0.5C61.6,96.6,61.9,96.6,62.2,96.7z"/>
	<path class="st0" d="M68.6,96.8c0.5,0.2,0.9,0.4,1.4,0.8l-0.8,1c-0.3-0.2-0.7-0.4-1-0.5c-0.3-0.1-0.7-0.2-1.1-0.2
		c-0.8,0-1.4,0.3-1.8,0.9c-0.4,0.6-0.6,1.5-0.6,2.7c0,1.2,0.2,2.1,0.6,2.7c0.4,0.6,1,0.9,1.8,0.9c0.4,0,0.7-0.1,1-0.2
		c0.3-0.1,0.7-0.3,1-0.5l0.8,1.1c-0.9,0.7-1.8,1-2.9,1c-1.3,0-2.3-0.4-3-1.3c-0.7-0.9-1.1-2.1-1.1-3.6c0-1,0.2-1.9,0.5-2.6
		c0.3-0.8,0.8-1.3,1.4-1.8s1.4-0.6,2.2-0.6C67.6,96.6,68.1,96.7,68.6,96.8z"/>
	<path class="st0" d="M78.7,97.3c0.5,0.5,0.7,1.2,0.7,2.1v6.8h-1.7v-6.6c0-0.7-0.1-1.1-0.4-1.4c-0.3-0.3-0.6-0.4-1.1-0.4
		s-0.9,0.1-1.3,0.4c-0.4,0.3-0.7,0.7-1.1,1.2v6.8h-1.7V93l1.7-0.2v5.3c0.7-1,1.7-1.5,2.8-1.5C77.5,96.6,78.2,96.8,78.7,97.3z"/>
	<path class="st0" d="M91.6,94.2v12H90V96l-2.8,1.7l-0.7-1.2l3.7-2.3H91.6z"/>
	<path class="st0" d="M102.6,102v1.3h-1.6v3h-1.6v-3h-5.1v-1.2l3.6-8.1l1.4,0.6l-3.3,7.4h3.4l0.1-3.2h1.4v3.2H102.6z"/>
	<path class="st0" d="M104.2,101.3v-1.4h5.1v1.4H104.2z"/>
	<path class="st0" d="M115,94.2v12h-1.7V96l-2.8,1.7l-0.7-1.2l3.7-2.3H115z"/>
	<path class="st0" d="M124.2,98.8c0.5,0.3,0.9,0.7,1.2,1.3c0.3,0.6,0.5,1.3,0.5,2.1c0,0.9-0.2,1.6-0.5,2.3c-0.3,0.7-0.8,1.2-1.4,1.5
		c-0.6,0.4-1.2,0.5-1.9,0.5c-1.4,0-2.4-0.5-3.1-1.6s-1-2.5-1-4.3c0-1.3,0.2-2.5,0.5-3.4c0.4-1,0.9-1.8,1.6-2.3
		c0.7-0.5,1.5-0.8,2.4-0.8c0.9,0,1.7,0.2,2.5,0.7l-0.6,1.1c-0.6-0.3-1.2-0.5-1.9-0.5c-0.9,0-1.5,0.4-2.1,1.2s-0.8,1.9-0.8,3.3
		c0.7-1.1,1.7-1.6,2.9-1.6C123.1,98.4,123.7,98.5,124.2,98.8z M123.6,104.4c0.4-0.5,0.6-1.2,0.6-2.1c0-1.7-0.6-2.6-1.9-2.6
		c-0.5,0-1,0.1-1.5,0.4c-0.4,0.3-0.8,0.7-1.1,1.2c0,1.3,0.2,2.3,0.6,2.9c0.4,0.6,1,0.9,1.8,0.9C122.7,105.2,123.2,104.9,123.6,104.4
		z"/>
	<path class="st0" d="M137.3,94.5c0.5,0.3,1,0.7,1.3,1.2c0.3,0.5,0.5,1.1,0.5,1.7c0,0.7-0.2,1.4-0.5,2.1c-0.3,0.7-0.8,1.4-1.5,2.2
		c-0.7,0.8-1.7,1.9-3.1,3.3h5.4l-0.2,1.4H132V105c1.6-1.7,2.7-2.9,3.4-3.7c0.7-0.8,1.2-1.4,1.4-2s0.4-1.2,0.4-1.9
		c0-0.6-0.2-1.1-0.5-1.5c-0.4-0.4-0.8-0.5-1.4-0.5c-0.5,0-0.9,0.1-1.3,0.3s-0.8,0.5-1.2,1l-1.1-0.9c0.5-0.6,1-1.1,1.6-1.4
		c0.6-0.3,1.3-0.5,2-0.5C136.1,94.1,136.8,94.2,137.3,94.5z"/>
	<path class="st0" d="M148.3,95.6c0.7,1.1,1,2.6,1,4.6c0,2-0.3,3.6-1,4.6c-0.7,1.1-1.7,1.6-3,1.6s-2.3-0.5-3-1.6
		c-0.7-1.1-1-2.6-1-4.6c0-2,0.3-3.6,1-4.6s1.7-1.6,3-1.6S147.6,94.6,148.3,95.6z M143.5,96.5c-0.4,0.8-0.6,2-0.6,3.7s0.2,3,0.6,3.8
		c0.4,0.8,1,1.2,1.7,1.2c0.8,0,1.3-0.4,1.7-1.2c0.4-0.8,0.6-2,0.6-3.8c0-1.7-0.2-3-0.6-3.7c-0.4-0.8-1-1.2-1.7-1.2
		C144.5,95.4,143.9,95.7,143.5,96.5z"/>
	<path class="st0" d="M155.6,94.2v12H154V96l-2.8,1.7l-0.7-1.2l3.7-2.3H155.6z"/>
	<path class="st0" d="M166.7,103.1c0,0.7-0.2,1.3-0.5,1.8c-0.4,0.5-0.8,0.9-1.5,1.2c-0.6,0.3-1.4,0.4-2.2,0.4
		c-0.8,0-1.5-0.1-2.2-0.4c-0.6-0.3-1.1-0.7-1.4-1.2c-0.3-0.5-0.5-1.1-0.5-1.8c0-0.7,0.2-1.4,0.6-1.9c0.4-0.5,1-0.9,1.8-1.3
		c-0.6-0.3-1.1-0.7-1.4-1.2c-0.3-0.5-0.5-1-0.5-1.6c0-0.6,0.2-1.2,0.5-1.7c0.3-0.5,0.8-0.8,1.3-1.1c0.6-0.2,1.2-0.4,1.8-0.4
		c0.6,0,1.2,0.1,1.8,0.3c0.6,0.2,1,0.6,1.4,1c0.3,0.5,0.5,1,0.5,1.7c0,0.6-0.2,1.1-0.5,1.5c-0.3,0.4-0.9,0.8-1.5,1.2
		C165.9,100.5,166.7,101.6,166.7,103.1z M164.3,104.6c0.4-0.4,0.7-0.9,0.7-1.5c0-0.4-0.1-0.8-0.3-1.1s-0.4-0.6-0.8-0.8
		s-0.9-0.4-1.6-0.7l-0.5-0.2c-0.6,0.3-1,0.7-1.3,1.1c-0.3,0.4-0.4,1-0.4,1.6c0,0.7,0.2,1.2,0.6,1.5c0.4,0.4,1,0.5,1.8,0.5
		C163.3,105.2,163.9,105,164.3,104.6z M161.1,95.8c-0.4,0.3-0.5,0.8-0.5,1.4c0,0.6,0.2,1,0.5,1.3s0.9,0.6,1.7,0.8l0.3,0.1
		c0.5-0.3,0.9-0.6,1.2-1c0.2-0.3,0.4-0.8,0.4-1.3c0-0.6-0.2-1-0.5-1.4c-0.4-0.3-0.9-0.5-1.5-0.5C162,95.3,161.5,95.5,161.1,95.8z"/>
	<path class="st0" d="M173.4,101.3v-1.4h5.1v1.4H173.4z"/>
	<path class="st0" d="M193.7,100.6c0.5,0.5,0.8,1.2,0.8,2.1c0,2.4-1.6,3.5-4.9,3.5h-3.4V93.9h2.9c1.6,0,2.8,0.3,3.6,0.8
		s1.3,1.3,1.3,2.4c0,0.7-0.2,1.3-0.7,1.8c-0.4,0.5-1,0.8-1.6,0.9C192.4,99.9,193.1,100.2,193.7,100.6z M187.8,95.2v3.9h1.9
		c0.7,0,1.3-0.2,1.8-0.5s0.7-0.8,0.7-1.5c0-0.7-0.2-1.2-0.7-1.5c-0.5-0.3-1.2-0.4-2.2-0.4H187.8z M191.9,104.5
		c0.5-0.3,0.8-0.9,0.8-1.7c0-0.8-0.3-1.4-0.8-1.8c-0.5-0.4-1.2-0.5-2-0.5h-2v4.5h1.7C190.6,104.9,191.3,104.8,191.9,104.5z"/>
	<path class="st0" d="M204.1,102.1h-6c0.1,1,0.3,1.8,0.8,2.3c0.5,0.5,1,0.7,1.8,0.7c0.5,0,0.9-0.1,1.3-0.2c0.4-0.1,0.8-0.3,1.2-0.6
		l0.7,1c-1,0.8-2.1,1.2-3.3,1.2c-1.3,0-2.3-0.4-3.1-1.3c-0.7-0.9-1.1-2.1-1.1-3.6c0-1,0.2-1.9,0.5-2.6c0.3-0.8,0.8-1.4,1.4-1.8
		c0.6-0.4,1.3-0.6,2.1-0.6c1.3,0,2.2,0.4,2.9,1.2c0.7,0.8,1,2,1,3.4C204.1,101.5,204.1,101.8,204.1,102.1z M202.5,100.8
		c0-0.9-0.2-1.6-0.6-2.1c-0.4-0.5-0.9-0.7-1.7-0.7c-1.4,0-2.1,1-2.2,3h4.4V100.8z"/>
	<path class="st0" d="M211.8,96.7l-0.3,1.6c-0.3-0.1-0.6-0.1-0.8-0.1c-0.6,0-1.1,0.2-1.4,0.6s-0.6,1.1-0.8,2v5.4h-1.7v-9.5h1.4
		l0.2,1.9c0.3-0.7,0.6-1.2,1-1.6c0.4-0.4,0.9-0.5,1.5-0.5C211.2,96.6,211.6,96.6,211.8,96.7z"/>
	<path class="st0" d="M221.1,97.2c-0.4,0.1-0.8,0.2-1.2,0.2c-0.4,0-1,0.1-1.6,0.1c1.1,0.5,1.7,1.3,1.7,2.4c0,0.9-0.3,1.7-1,2.3
		s-1.5,0.9-2.6,0.9c-0.4,0-0.8-0.1-1.2-0.2c-0.1,0.1-0.3,0.2-0.3,0.4c-0.1,0.2-0.1,0.3-0.1,0.5c0,0.5,0.4,0.8,1.2,0.8h1.5
		c0.6,0,1.2,0.1,1.7,0.3c0.5,0.2,0.9,0.5,1.1,0.9s0.4,0.8,0.4,1.4c0,0.9-0.4,1.6-1.1,2.1s-1.9,0.7-3.3,0.7c-1,0-1.8-0.1-2.4-0.3
		c-0.6-0.2-1-0.5-1.3-0.9c-0.3-0.4-0.4-1-0.4-1.6h1.5c0,0.4,0.1,0.7,0.2,0.9s0.4,0.4,0.8,0.5c0.4,0.1,0.9,0.2,1.6,0.2
		c1,0,1.7-0.1,2.1-0.4s0.6-0.6,0.6-1.1c0-0.4-0.2-0.8-0.5-1c-0.3-0.2-0.8-0.3-1.4-0.3h-1.5c-0.8,0-1.4-0.2-1.8-0.5
		c-0.4-0.3-0.6-0.8-0.6-1.3c0-0.3,0.1-0.6,0.3-0.9c0.2-0.3,0.4-0.5,0.8-0.8c-0.6-0.3-1-0.6-1.2-1.1c-0.3-0.4-0.4-0.9-0.4-1.6
		c0-0.6,0.2-1.2,0.5-1.7s0.8-0.9,1.3-1.2c0.6-0.3,1.2-0.4,1.9-0.4c0.7,0,1.4,0,1.9-0.1c0.5-0.1,0.9-0.2,1.3-0.3
		c0.3-0.1,0.7-0.3,1.2-0.5L221.1,97.2z M214.8,98.3c-0.3,0.4-0.5,0.9-0.5,1.5c0,0.6,0.2,1.2,0.5,1.6c0.3,0.4,0.8,0.6,1.5,0.6
		c0.6,0,1.1-0.2,1.5-0.6c0.3-0.4,0.5-0.9,0.5-1.6c0-1.4-0.7-2.1-2-2.1C215.7,97.8,215.2,98,214.8,98.3z"/>
	<path class="st0" d="M229.7,102.1h-6c0.1,1,0.3,1.8,0.8,2.3c0.5,0.5,1,0.7,1.8,0.7c0.5,0,0.9-0.1,1.3-0.2c0.4-0.1,0.8-0.3,1.2-0.6
		l0.7,1c-1,0.8-2.1,1.2-3.3,1.2c-1.3,0-2.3-0.4-3.1-1.3c-0.7-0.9-1.1-2.1-1.1-3.6c0-1,0.2-1.9,0.5-2.6c0.3-0.8,0.8-1.4,1.4-1.8
		c0.6-0.4,1.3-0.6,2.1-0.6c1.3,0,2.2,0.4,2.9,1.2c0.7,0.8,1,2,1,3.4C229.7,101.5,229.7,101.8,229.7,102.1z M228.1,100.8
		c0-0.9-0.2-1.6-0.6-2.1c-0.4-0.5-0.9-0.7-1.7-0.7c-1.4,0-2.1,1-2.2,3h4.4V100.8z"/>
	<path class="st0" d="M238.8,97.3c0.5,0.5,0.7,1.2,0.7,2.1v6.8h-1.7v-6.6c0-0.7-0.1-1.1-0.4-1.4c-0.3-0.3-0.6-0.4-1.1-0.4
		c-0.5,0-0.9,0.1-1.3,0.4c-0.4,0.3-0.7,0.7-1.1,1.2v6.7h-1.7v-9.5h1.4l0.1,1.4c0.3-0.5,0.8-0.9,1.3-1.2s1-0.4,1.6-0.4
		C237.7,96.6,238.4,96.8,238.8,97.3z"/>
	<path class="st0" d="M244.2,104.3c0.2,0.2,0.4,0.5,0.4,0.9c0,0.4-0.1,0.8-0.3,1.3l-1.2,2.8h-1.2l0.7-3c-0.2-0.1-0.3-0.3-0.4-0.5
		c-0.1-0.2-0.1-0.4-0.1-0.6c0-0.3,0.1-0.6,0.4-0.9c0.2-0.2,0.5-0.4,0.9-0.4C243.7,104,244,104.1,244.2,104.3z"/>
	<path class="st0" d="M260.8,106.3h-2.3l-5-10.5c0.1,0.8,0.1,1.6,0.2,2.3c0,0.7,0.1,1.6,0.1,2.5v5.7h-1.6V93.9h2.2l5.1,10.5
		c0-0.3-0.1-0.9-0.1-1.6c-0.1-0.8-0.1-1.5-0.1-2.1v-6.8h1.6V106.3z"/>
	<path class="st0" d="M270.9,97.9c0.7,0.9,1.1,2.1,1.1,3.6c0,1-0.2,1.9-0.5,2.6s-0.8,1.3-1.5,1.7c-0.6,0.4-1.4,0.6-2.3,0.6
		c-1.3,0-2.4-0.4-3.1-1.3c-0.7-0.9-1.1-2.1-1.1-3.6c0-1,0.2-1.9,0.5-2.6s0.8-1.3,1.5-1.7c0.6-0.4,1.4-0.6,2.3-0.6
		C269.2,96.6,270.2,97,270.9,97.9z M265.4,101.5c0,2.4,0.8,3.6,2.4,3.6s2.4-1.2,2.4-3.6c0-2.4-0.8-3.6-2.4-3.6
		C266.2,97.9,265.4,99.1,265.4,101.5z"/>
	<path class="st0" d="M279.8,96.7l-0.3,1.6c-0.3-0.1-0.6-0.1-0.8-0.1c-0.6,0-1.1,0.2-1.4,0.6s-0.6,1.1-0.8,2v5.4h-1.7v-9.5h1.4
		l0.2,1.9c0.3-0.7,0.6-1.2,1-1.6c0.4-0.4,0.9-0.5,1.5-0.5C279.2,96.6,279.6,96.6,279.8,96.7z"/>
	<path class="st0" d="M292.6,96.8l-2.2,9.5h-2.2l-1.7-8l-1.7,8h-2.2l-2.2-9.5h1.7l1.7,8.3l1.9-8.3h1.9l1.8,8.3l1.7-8.3H292.6z"/>
	<path class="st0" d="M301,104.9c0.1,0.2,0.3,0.3,0.6,0.4l-0.4,1.2c-0.5-0.1-0.9-0.2-1.2-0.4c-0.3-0.2-0.5-0.6-0.7-1
		c-0.6,0.9-1.6,1.4-2.8,1.4c-0.9,0-1.7-0.3-2.2-0.8c-0.5-0.5-0.8-1.2-0.8-2.1c0-1,0.4-1.8,1.1-2.3c0.7-0.5,1.8-0.8,3.1-0.8h1.5v-0.7
		c0-0.7-0.2-1.2-0.5-1.4s-0.8-0.4-1.5-0.4c-0.7,0-1.5,0.2-2.6,0.5l-0.4-1.2c1.2-0.4,2.3-0.6,3.3-0.6c1.1,0,1.9,0.3,2.5,0.8
		c0.6,0.5,0.8,1.3,0.8,2.3v4.3C300.8,104.4,300.9,104.7,301,104.9z M299.2,103.8v-2.2h-1.2c-1.8,0-2.6,0.6-2.6,1.9
		c0,0.6,0.1,1,0.4,1.3s0.7,0.4,1.2,0.4C297.9,105.2,298.6,104.8,299.2,103.8z"/>
	<path class="st0" d="M307.7,106.3c-0.4,1.1-0.9,2-1.6,2.6s-1.6,1-2.9,1.2l-0.2-1.3c0.6-0.1,1.1-0.3,1.5-0.5
		c0.4-0.2,0.7-0.5,0.9-0.8c0.2-0.3,0.4-0.7,0.6-1.3h-0.6l-3.2-9.5h1.8l2.5,8.3l2.5-8.3h1.7L307.7,106.3z"/>
</g>
</svg>
