<?xml version="1.0" encoding="utf-8"?>
<!-- Generator: Adobe Illustrator 22.0.1, SVG Export Plug-In . SVG Version: 6.00 Build 0)  -->
<svg version="1.1" id="Layer_1" xmlns="http://www.w3.org/2000/svg" xmlns:xlink="http://www.w3.org/1999/xlink" x="0px" y="0px"
	 viewBox="0 0 367.7 127.1" style="enable-background:new 0 0 367.7 127.1;" xml:space="preserve">
<style type="text/css">
	.st0{fill:#0E3E4D;}
</style>
<g>
	<path class="st0" d="M81,36.5V85H67V44.6L81,36.5z M49,85h14V46.9L49,55V85z M31,85h14V57.3l-14,8.1V85z"/>
	<path class="st0" d="M124.1,66.8c0-11.6,5.7-19.2,18.6-19.2c12.9,0,18.6,7.6,18.6,19.2c0,11.6-5.8,19.2-18.6,19.2
		C129.7,86,124.1,78.3,124.1,66.8z M145.6,66.8c0-8.8-0.4-11.1-3-11.1c-2.4,0-3,2.2-3,11.1c0,8.8,0.5,11.2,3,11.2
		C145.2,77.9,145.6,75.6,145.6,66.8z M164.4,66.8c0-11.6,5.7-19.2,18.6-19.2c12.9,0,18.6,7.6,18.6,19.2c0,11.6-5.8,19.2-18.6,19.2
		C170,86,164.4,78.3,164.4,66.8z M185.9,66.8c0-8.8-0.4-11.1-3-11.1c-2.4,0-3,2.2-3,11.1c0,8.8,0.5,11.2,3,11.2
		C185.5,77.9,185.9,75.6,185.9,66.8z M214.3,73.5c0.4,0,0.7,0,1.6,0.1c0.2,1.9,1,4.7,4.6,4.7c1.9,0,2.9-1.2,2.9-2.8
		c0-2.8-4.4-3.1-8.8-4.1c-5-1.2-10.3-3.2-10.3-10.8c0-7.3,5.2-12.9,16.3-12.9c13.4,0,16,7.1,16,11.3c-2.2,0.8-6.7,1.3-10.1,1.3
		c-0.8,0-1.4,0-2-0.1c-0.2-1.6-0.5-4.8-4.2-4.8c-1.8,0-3.1,1-3.1,2.7c0,2.9,4.2,3.3,8.7,4.4c5.2,1.2,10.7,3,10.7,10.3
		c0,8-5.2,13.3-16.8,13.3c-11.4,0-15.8-5.1-16.1-11.2C205.5,74.2,210.8,73.5,214.3,73.5z M242.7,57.2h-3.9v-8.4h1
		c5.3,0,6.6-1.9,8.1-8.6c2.1,0,5.7-0.1,9.5-0.4v9h6.7v8.4h-6.7V72c0,3.3,0.5,4.7,4,4.7c0.8,0,1.8-0.1,2.6-0.3
		c0.2,0.7,0.3,2.8,0.3,4.8c0,1.4-0.1,2.9-0.2,3.6c-0.7,0.4-3.5,1.1-7.3,1.1c-9.5,0-14-2.7-14-12.7V57.2z M281.4,70.1
		c0.2,6,1,8,3.2,8c2.5,0,2.8-3.5,2.9-5c1.2-0.1,1.6-0.1,2.2-0.1c3.1,0,8.8,0.3,11.2,1.2C299.7,81,295,86,284.5,86
		c-12.2,0-18.6-6.9-18.6-19.4c0-12.4,6.5-19,18.2-19c12.6,0,17.7,7.9,17.7,18.2c0,1.4-0.1,3.2-0.3,4.3H281.4z M287.3,62.7
		c0-5.2-0.3-7.4-2.9-7.4c-2,0-2.8,1.6-3,7.4H287.3z M305.7,48.7c2.4,0,8.7-0.1,13.8-0.5v8.2h0.3c0.5-2.2,2-8.8,8.6-8.8
		c1,0,2.1,0.1,2.4,0.3c0.3,1.1,0.4,3.5,0.4,6.1c0,3.1-0.2,6.4-0.5,7.5c-0.8-0.1-2.3-0.3-3.4-0.3c-4.4,0-6.7,1.2-7.1,1.6v13.3
		c0,3.3,0.1,7.5,0.7,8.8h-15.4V48.7z M85.1,34.1v50.7H99v-3.3c1.9,2.5,4.6,4.3,9,4.3c9,0,12.9-7.3,12.9-19c0-11.6-3.8-19-12.9-19
		c-4.1,0-6.6,1.6-8.4,3.8v-26L85.1,34.1z M101.8,57.1c2.6,0,3.5,1.1,3.5,9.7c0,8.6-1,9.7-3.5,9.7c-0.7,0-1.4-0.2-2.1-0.7V57.8
		C100.4,57.3,101.1,57.1,101.8,57.1z"/>
</g>
</svg>
