<?xml version="1.0" encoding="UTF-8" standalone="no"?>
<svg width="234px" height="135px" viewBox="0 0 234 135" version="1.1" xmlns="http://www.w3.org/2000/svg" xmlns:xlink="http://www.w3.org/1999/xlink">
    <defs></defs>
    <g id="Page-7" stroke="none" stroke-width="1" fill="none" fill-rule="evenodd">
        <path d="M54.1832,117.0426 C63.7422,117.0426 72.6702,114.3466 80.2562,109.6806 C91.8832,122.5976 108.7292,130.7246 127.4772,130.7246 C144.9882,130.7246 160.8432,123.6366 172.3342,112.1756 C178.4672,118.0046 186.7552,121.5886 195.8842,121.5886 C214.7742,121.5886 230.0882,106.2746 230.0882,87.3846 C230.0882,68.4946 214.7742,53.1806 195.8842,53.1806 C193.7232,53.1806 191.6122,53.3906 189.5632,53.7736 C183.3982,25.1436 157.9492,3.6816 127.4772,3.6816 C108.7292,3.6816 91.8832,11.8086 80.2562,24.7256 C72.6702,20.0596 63.7422,17.3636 54.1832,17.3636 C26.6572,17.3636 4.3432,39.6776 4.3432,67.2026 C4.3432,94.7286 26.6572,117.0426 54.1832,117.0426 L54.1832,117.0426 Z" id="cloud2" stroke="#FFFFFF" stroke-width="7"></path>
    </g>
</svg>