<?xml version="1.0" encoding="UTF-8" standalone="no"?>
<svg width="1388px" height="866px" viewBox="0 0 1388 866" version="1.1" xmlns="http://www.w3.org/2000/svg" xmlns:xlink="http://www.w3.org/1999/xlink">
    <defs>
        <path id="path-1" d="M0,0 L1920,0 L1920,1080 L0,1080 L0,0 Z"></path>
    </defs>
    <g id="Page-4" stroke="none" stroke-width="1" fill="none" fill-rule="evenodd">
        <g id="desk" transform="translate(-314.000000, -125.000000)">
            <path d="M717.7224,692.9072 L712.2924,618.9292 L704.6434,606.0732 L698.9534,619.9082 L704.3084,692.9072 L717.7224,692.9072 Z" id="Fill-974" fill="#D1D1D1"></path>
            <path d="M765.2594,692.9072 L777.1274,647.5822 L774.0434,632.9472 L764.1844,644.1952 L751.4304,692.9072 L765.2594,692.9072 Z" id="Fill-975" fill="#D1D1D1"></path>
            <path d="M748.207,691.235 L734.829,691.235 L734.829,572.504 L748.207,572.504 L748.207,691.235 Z" id="Fill-976" fill="#A5ECDE"></path>
            <path d="M774.963,813.311 L694.694,813.311 L694.694,692.907 L774.963,692.907 L774.963,813.311 Z" id="Fill-977" fill="#DBF286"></path>
            <path d="M708.0724,803.2771 C706.2254,803.2771 704.7274,801.7811 704.7274,799.9321 L704.7274,733.0421 C704.7274,731.1931 706.2254,729.6971 708.0724,729.6971 C709.9194,729.6971 711.4174,731.1931 711.4174,733.0421 L711.4174,799.9321 C711.4174,801.7811 709.9194,803.2771 708.0724,803.2771" id="Fill-978" fill="#FFFFFF"></path>
            <path d="M708.0724,726.3526 C706.2254,726.3526 704.7274,724.8566 704.7274,723.0076 L704.7274,719.6636 C704.7274,717.8146 706.2254,716.3186 708.0724,716.3186 C709.9194,716.3186 711.4174,717.8146 711.4174,719.6636 L711.4174,723.0076 C711.4174,724.8566 709.9194,726.3526 708.0724,726.3526" id="Fill-980" fill="#FFFFFF"></path>
            <path d="M761.5851,694.5795 C759.7381,694.5795 758.2401,693.0835 758.2401,691.2345 L758.2401,615.1005 L754.8961,608.4115 L751.5511,615.1005 L751.5511,691.2345 C751.5511,693.0835 750.0541,694.5795 748.2071,694.5795 C746.3601,694.5795 744.8621,693.0835 744.8621,691.2345 L744.8621,614.3105 C744.8621,613.7915 744.9831,613.2785 745.2151,612.8145 L751.9041,599.4365 C753.0371,597.1695 756.7541,597.1695 757.8881,599.4365 L764.5771,612.8145 C764.8091,613.2785 764.9301,613.7915 764.9301,614.3105 L764.9301,691.2345 C764.9301,693.0835 763.4321,694.5795 761.5851,694.5795" id="Fill-982" fill="#020210"></path>
            <path d="M765.2594,692.9072 L777.1274,647.5822 L774.0434,632.9472 L764.1844,644.1952 L751.4304,692.9072 L765.2594,692.9072 Z" id="Fill-984" fill="#FFFFFF"></path>
            <path d="M765.261,696.2517 C764.982,696.2517 764.696,696.2157 764.412,696.1437 C762.625,695.6737 761.556,693.8477 762.024,692.0617 L773.691,647.5007 L772.149,640.1817 L767.221,645.8057 L754.666,693.7527 C754.199,695.5427 752.383,696.5977 750.583,696.1437 C748.797,695.6737 747.727,693.8477 748.196,692.0617 L760.95,643.3497 C761.08,642.8467 761.327,642.3827 761.67,641.9917 L771.529,630.7427 C772.363,629.7887 773.665,629.3967 774.891,629.7107 C776.116,630.0337 777.055,631.0167 777.316,632.2577 L780.4,646.8937 C780.507,647.3997 780.494,647.9287 780.362,648.4287 L768.495,693.7527 C768.101,695.2587 766.746,696.2517 765.261,696.2517" id="Fill-986" fill="#020210"></path>
            <path d="M774.9633,816.6552 C773.1163,816.6552 771.6183,815.1592 771.6183,813.3102 L771.6183,696.2512 L698.0393,696.2512 L698.0393,813.3102 C698.0393,815.1592 696.5413,816.6552 694.6943,816.6552 C692.8473,816.6552 691.3493,815.1592 691.3493,813.3102 L691.3493,692.9072 C691.3493,691.0582 692.8473,689.5622 694.6943,689.5622 L774.9633,689.5622 C776.8103,689.5622 778.3083,691.0582 778.3083,692.9072 L778.3083,813.3102 C778.3083,815.1592 776.8103,816.6552 774.9633,816.6552" id="Fill-988" fill="#020210"></path>
            <path d="M734.8287,696.2517 C732.9817,696.2517 731.4837,694.7557 731.4837,692.9067 L731.4837,589.2267 L724.7947,589.2267 L724.7947,692.9067 C724.7947,694.7557 723.2977,696.2517 721.4507,696.2517 C719.6037,696.2517 718.1057,694.7557 718.1057,692.9067 L718.1057,585.8817 C718.1057,584.0337 719.6037,582.5377 721.4507,582.5377 L734.8287,582.5377 C736.6757,582.5377 738.1737,584.0337 738.1737,585.8817 L738.1737,692.9067 C738.1737,694.7557 736.6757,696.2517 734.8287,696.2517" id="Fill-990" fill="#020210"></path>
            <path d="M704.3048,696.2517 C702.5688,696.2517 701.1008,694.9097 700.9718,693.1517 L695.6168,620.1537 C695.5788,619.6347 695.6628,619.1147 695.8598,618.6377 L701.5498,604.8027 C702.0318,603.6297 703.1338,602.8297 704.3978,602.7387 C705.6738,602.6307 706.8688,603.2737 707.5168,604.3617 L715.1668,617.2167 C715.4328,617.6647 715.5898,618.1677 715.6268,618.6837 L721.0588,692.6627 C721.1928,694.5037 719.8098,696.1077 717.9668,696.2417 C716.1018,696.3757 714.5218,694.9937 714.3878,693.1517 L709.0148,619.9607 L705.1898,613.5327 L702.3468,620.4507 L707.6448,692.6627 C707.7788,694.5037 706.3948,696.1077 704.5528,696.2417 C704.4698,696.2487 704.3868,696.2517 704.3048,696.2517" id="Fill-992" fill="#020210"></path>
            <path d="M734.8287,589.2264 C732.9817,589.2264 731.4837,587.7304 731.4837,585.8814 L731.4837,572.5034 C731.4837,570.6554 732.9817,569.1594 734.8287,569.1594 C736.6757,569.1594 738.1737,570.6554 738.1737,572.5034 L738.1737,585.8814 C738.1737,587.7304 736.6757,589.2264 734.8287,589.2264" id="Fill-994" fill="#020210"></path>
            <path d="M748.2069,575.8482 L734.8289,575.8482 C732.9819,575.8482 731.4839,574.3522 731.4839,572.5032 C731.4839,570.6552 732.9819,569.1592 734.8289,569.1592 L748.2069,569.1592 C750.0539,569.1592 751.5519,570.6552 751.5519,572.5032 C751.5519,574.3522 750.0539,575.8482 748.2069,575.8482" id="Fill-996" fill="#020210"></path>
            <path d="M748.2069,617.655 C746.3599,617.655 744.8619,616.159 744.8619,614.31 L744.8619,572.504 C744.8619,570.655 746.3599,569.159 748.2069,569.159 C750.0539,569.159 751.5519,570.655 751.5519,572.504 L751.5519,614.31 C751.5519,616.159 750.0539,617.655 748.2069,617.655" id="Fill-998" fill="#020210"></path>
            <path d="M774.9633,709.6299 L694.6943,709.6299 C692.8473,709.6299 691.3493,708.1339 691.3493,706.2849 C691.3493,704.4369 692.8473,702.9409 694.6943,702.9409 L774.9633,702.9409 C776.8103,702.9409 778.3083,704.4369 778.3083,706.2849 C778.3083,708.1339 776.8103,709.6299 774.9633,709.6299" id="Fill-1000" fill="#020210"></path>
            <mask id="mask-2" sketch:name="Clip 1003" fill="white">
                <use xlink:href="#path-1"></use>
            </mask>
            <g id="Clip-1003"></g>
            <path d="M1430.493,813.311 L1510.762,813.311 L1510.762,706.286 L1430.493,706.286 L1430.493,813.311 Z" id="Fill-1002" fill="#D1D1D1" mask="url(#mask-2)"></path>
            <path d="M1497.3843,706.2854 L1497.3843,746.4194 C1497.3843,750.1144 1494.3893,753.1094 1490.6953,753.1094 C1487.0013,753.1094 1484.0063,750.1144 1484.0063,746.4194 L1484.0063,726.3524 C1484.0063,722.6584 1481.0113,719.6634 1477.3173,719.6634 C1473.6233,719.6634 1470.6283,722.6584 1470.6283,726.3524 L1470.6283,733.0414 C1470.6283,736.7354 1467.6333,739.7304 1463.9393,739.7304 C1460.2443,739.7304 1457.2493,736.7354 1457.2493,733.0414 L1457.2493,706.2854 L1497.3843,706.2854 Z" id="Fill-1004" fill="#A5ECDE" mask="url(#mask-2)"></path>
            <path d="M1510.7625,816.6552 C1508.9135,816.6552 1507.4175,815.1592 1507.4175,813.3102 L1507.4175,709.6302 L1433.8385,709.6302 L1433.8385,813.3102 C1433.8385,815.1592 1432.3415,816.6552 1430.4935,816.6552 C1428.6445,816.6552 1427.1485,815.1592 1427.1485,813.3102 L1427.1485,706.2852 C1427.1485,704.4372 1428.6445,702.9412 1430.4935,702.9412 L1510.7625,702.9412 C1512.6115,702.9412 1514.1065,704.4372 1514.1065,706.2852 L1514.1065,813.3102 C1514.1065,815.1592 1512.6115,816.6552 1510.7625,816.6552" id="Fill-1005" fill="#020210" mask="url(#mask-2)"></path>
            <path d="M1457.2498,736.3862 C1455.4008,736.3862 1453.9048,734.8902 1453.9048,733.0412 L1453.9048,706.2852 C1453.9048,704.4372 1455.4008,702.9412 1457.2498,702.9412 C1459.0988,702.9412 1460.5938,704.4372 1460.5938,706.2852 L1460.5938,733.0412 C1460.5938,734.8902 1459.0988,736.3862 1457.2498,736.3862" id="Fill-1006" fill="#020210" mask="url(#mask-2)"></path>
            <path d="M1463.9388,743.0753 C1458.4058,743.0753 1453.9048,738.5743 1453.9048,733.0413 C1453.9048,731.1933 1455.4008,729.6973 1457.2498,729.6973 C1459.0978,729.6973 1460.5938,731.1933 1460.5938,733.0413 C1460.5938,734.8873 1462.0928,736.3863 1463.9388,736.3863 C1465.7838,736.3863 1467.2828,734.8873 1467.2828,733.0413 C1467.2828,731.1933 1468.7788,729.6973 1470.6278,729.6973 C1472.4768,729.6973 1473.9728,731.1933 1473.9728,733.0413 C1473.9728,738.5743 1469.4718,743.0753 1463.9388,743.0753" id="Fill-1007" fill="#020210" mask="url(#mask-2)"></path>
            <path d="M1490.6952,756.4535 C1485.1622,756.4535 1480.6612,751.9525 1480.6612,746.4195 C1480.6612,744.5715 1482.1572,743.0755 1484.0062,743.0755 C1485.8542,743.0755 1487.3502,744.5715 1487.3502,746.4195 C1487.3502,748.2655 1488.8492,749.7645 1490.6952,749.7645 C1492.5402,749.7645 1494.0392,748.2655 1494.0392,746.4195 C1494.0392,744.5715 1495.5352,743.0755 1497.3842,743.0755 C1499.2332,743.0755 1500.7292,744.5715 1500.7292,746.4195 C1500.7292,751.9525 1496.2282,756.4535 1490.6952,756.4535" id="Fill-1008" fill="#020210" mask="url(#mask-2)"></path>
            <path d="M1484.0061,729.6971 C1482.1571,729.6971 1480.6611,728.2011 1480.6611,726.3521 C1480.6611,724.5071 1479.1621,723.0081 1477.3171,723.0081 C1475.4711,723.0081 1473.9721,724.5071 1473.9721,726.3521 C1473.9721,728.2011 1472.4761,729.6971 1470.6281,729.6971 C1468.7791,729.6971 1467.2831,728.2011 1467.2831,726.3521 C1467.2831,720.8201 1471.7841,716.3191 1477.3171,716.3191 C1482.8501,716.3191 1487.3501,720.8201 1487.3501,726.3521 C1487.3501,728.2011 1485.8551,729.6971 1484.0061,729.6971" id="Fill-1009" fill="#020210" mask="url(#mask-2)"></path>
            <path d="M1470.6279,736.3862 C1468.7789,736.3862 1467.2829,734.8902 1467.2829,733.0412 L1467.2829,726.3522 C1467.2829,724.5042 1468.7789,723.0082 1470.6279,723.0082 C1472.4769,723.0082 1473.9719,724.5042 1473.9719,726.3522 L1473.9719,733.0412 C1473.9719,734.8902 1472.4769,736.3862 1470.6279,736.3862" id="Fill-1010" fill="#020210" mask="url(#mask-2)"></path>
            <path d="M1484.0061,749.7644 C1482.1571,749.7644 1480.6611,748.2684 1480.6611,746.4194 L1480.6611,726.3524 C1480.6611,724.5044 1482.1571,723.0084 1484.0061,723.0084 C1485.8551,723.0084 1487.3501,724.5044 1487.3501,726.3524 L1487.3501,746.4194 C1487.3501,748.2684 1485.8551,749.7644 1484.0061,749.7644" id="Fill-1011" fill="#020210" mask="url(#mask-2)"></path>
            <path d="M1497.3843,749.7644 C1495.5353,749.7644 1494.0393,748.2684 1494.0393,746.4194 L1494.0393,706.2854 C1494.0393,704.4364 1495.5353,702.9404 1497.3843,702.9404 C1499.2333,702.9404 1500.7283,704.4364 1500.7283,706.2854 L1500.7283,746.4194 C1500.7283,748.2684 1499.2333,749.7644 1497.3843,749.7644" id="Fill-1012" fill="#020210" mask="url(#mask-2)"></path>
            <path d="M1443.8716,803.2771 C1442.0226,803.2771 1440.5276,801.7811 1440.5276,799.9321 L1440.5276,733.0421 C1440.5276,731.1931 1442.0226,729.6971 1443.8716,729.6971 C1445.7206,729.6971 1447.2156,731.1931 1447.2156,733.0421 L1447.2156,799.9321 C1447.2156,801.7811 1445.7206,803.2771 1443.8716,803.2771" id="Fill-1013" fill="#FFFFFF" mask="url(#mask-2)"></path>
            <path d="M1443.8716,726.3526 C1442.0226,726.3526 1440.5276,724.8566 1440.5276,723.0076 L1440.5276,719.6636 C1440.5276,717.8146 1442.0226,716.3186 1443.8716,716.3186 C1445.7206,716.3186 1447.2156,717.8146 1447.2156,719.6636 L1447.2156,723.0076 C1447.2156,724.8566 1445.7206,726.3526 1443.8716,726.3526" id="Fill-1014" fill="#FFFFFF" mask="url(#mask-2)"></path>
            <path d="M1524.1406,789.8989 L1510.7626,789.8989 C1508.9136,789.8989 1507.4176,788.4029 1507.4176,786.5539 C1507.4176,784.7059 1508.9136,783.2099 1510.7626,783.2099 L1524.1406,783.2099 C1529.6736,783.2099 1534.1746,778.7089 1534.1746,773.1759 L1534.1746,746.4199 C1534.1746,740.8869 1529.6736,736.3859 1524.1406,736.3859 L1510.7626,736.3859 C1508.9136,736.3859 1507.4176,734.8899 1507.4176,733.0419 C1507.4176,731.1929 1508.9136,729.6969 1510.7626,729.6969 L1524.1406,729.6969 C1533.3606,729.6969 1540.8636,737.1999 1540.8636,746.4199 L1540.8636,773.1759 C1540.8636,782.3969 1533.3606,789.8989 1524.1406,789.8989" id="Fill-1015" fill="#020210" mask="url(#mask-2)"></path>
            <path d="M687.8034,286.2513 C687.8034,334.2783 726.7344,373.2093 774.7614,373.2093 C822.7884,373.2093 861.7194,334.2783 861.7194,286.2513 C861.7194,238.2243 822.7884,199.2933 774.7614,199.2933 C726.7344,199.2933 687.8034,238.2243 687.8034,286.2513" id="Fill-1016" fill="#DBF286" mask="url(#mask-2)"></path>
            <path d="M466.1889,481.8057 L439.2789,469.3667 L451.7159,442.4587 L478.6279,454.8957 L466.1889,481.8057 Z" id="Fill-1017" fill="#D1D1D1" mask="url(#mask-2)"></path>
            <path d="M443.7176,467.7336 L464.5556,477.3676 L474.1886,456.5286 L453.3496,446.8976 L443.7176,467.7336 Z M466.1876,485.1506 C465.7166,485.1506 465.2396,485.0526 464.7856,484.8416 L437.8756,472.4026 C436.1986,471.6266 435.4676,469.6396 436.2426,467.9636 L448.6806,441.0556 C449.4566,439.3786 451.4516,438.6466 453.1196,439.4226 L480.0306,451.8596 C480.8356,452.2326 481.4616,452.9086 481.7666,453.7416 C482.0736,454.5746 482.0356,455.4936 481.6636,456.2986 L469.2246,483.2086 C468.6596,484.4316 467.4496,485.1506 466.1876,485.1506 L466.1876,485.1506 Z" id="Fill-1018" fill="#020210" mask="url(#mask-2)"></path>
            <path d="M421.2644,628.5508 C418.9704,623.5078 413.0244,621.2768 407.9764,623.5728 C402.9314,625.8658 400.7024,631.8168 402.9964,636.8598 L471.0944,786.5548 L493.1424,786.5548 L421.2644,628.5508 Z" id="Fill-1019" fill="#D1D1D1" mask="url(#mask-2)"></path>
            <path d="M473.2469,783.2098 L487.9459,783.2098 L418.2209,629.9358 C416.7389,626.6858 412.6529,625.1148 409.3609,626.6178 C407.7339,627.3588 406.4929,628.6848 405.8659,630.3598 C405.2389,632.0328 405.3009,633.8488 406.0409,635.4748 L473.2469,783.2098 Z M493.1429,789.8988 L471.0949,789.8988 C469.7829,789.8988 468.5929,789.1318 468.0509,787.9398 L399.9529,638.2448 C398.4729,634.9918 398.3489,631.3598 399.6019,628.0118 C400.8559,624.6638 403.3379,622.0058 406.5929,620.5288 C408.3469,619.7288 410.2099,619.3238 412.1279,619.3238 C417.3599,619.3238 422.1409,622.4038 424.3089,627.1658 L496.1869,785.1698 C496.6589,786.2048 496.5699,787.4068 495.9549,788.3638 C495.3389,789.3208 494.2799,789.8988 493.1429,789.8988 L493.1429,789.8988 Z" id="Fill-1020" fill="#020210" mask="url(#mask-2)"></path>
            <path d="M562.6351,813.3107 L562.6351,799.9127 L495.7441,773.1757 L455.6101,773.1757 L388.7191,799.9127 L388.7191,813.3107 L562.6351,813.3107 Z" id="Fill-1021" fill="#D1D1D1" mask="url(#mask-2)"></path>
            <path d="M412.1224,642.7391 C410.0274,642.7391 407.9154,642.0861 406.1094,640.7301 C401.6774,637.4051 400.7794,631.1181 404.1044,626.6861 L513.0204,481.4911 C516.3454,477.0581 522.6344,476.1601 527.0684,479.4851 C531.5004,482.8101 532.3984,489.0991 529.0734,493.5331 L420.1574,638.7251 C418.1864,641.3541 415.1734,642.7391 412.1224,642.7391" id="Fill-1022" fill="#D1D1D1" mask="url(#mask-2)"></path>
            <path d="M521.0551,480.8228 C518.9241,480.8228 516.9711,481.7978 515.6951,483.4978 L406.7791,628.6918 C405.7081,630.1218 405.2571,631.8828 405.5081,633.6498 C405.7621,635.4198 406.6871,636.9838 408.1171,638.0558 C410.9951,640.2148 415.3381,639.5738 417.4811,636.7198 L526.3991,491.5258 C528.6111,488.5748 528.0101,484.3728 525.0611,482.1608 C523.8941,481.2848 522.5091,480.8228 521.0551,480.8228 M412.1221,646.0838 C409.2111,646.0838 406.4361,645.1558 404.1021,643.4058 C401.2441,641.2628 399.3931,638.1338 398.8861,634.5968 C398.3821,631.0598 399.2851,627.5388 401.4291,624.6808 L510.3451,479.4838 C512.8591,476.1328 516.8611,474.1338 521.0551,474.1338 C523.9671,474.1338 526.7401,475.0578 529.0751,476.8108 C534.9761,481.2358 536.1741,489.6378 531.7481,495.5398 L422.8321,640.7308 C420.3201,644.0818 416.3161,646.0838 412.1221,646.0838" id="Fill-1023" fill="#020210" mask="url(#mask-2)"></path>
            <path d="M438.8871,632.7054 C438.8871,647.4844 426.9101,659.4614 412.1311,659.4614 C397.3511,659.4614 385.3741,647.4844 385.3741,632.7054 C385.3741,617.9264 397.3511,605.9494 412.1311,605.9494 C426.9101,605.9494 438.8871,617.9264 438.8871,632.7054" id="Fill-1024" fill="#D1D1D1" mask="url(#mask-2)"></path>
            <path d="M586.571,554.5693 C597.088,551.3323 606.256,543.8563 611.237,533.0793 C616.215,522.3083 615.976,510.4793 611.619,500.3703 L586.571,554.5693 Z" id="Fill-1025" fill="#A5ECDE" mask="url(#mask-2)"></path>
            <path d="M502.8628,512.4651 L454.2888,490.0101 L476.7398,441.4381 L525.3178,463.8891 L502.8628,512.4651 Z" id="Fill-1026" fill="#D1D1D1" mask="url(#mask-2)"></path>
            <path d="M568.2252,594.2596 L502.8632,512.4656 L525.3182,463.8896 L629.9652,460.6786 L568.2252,594.2596 Z" id="Fill-1027" fill="#D1D1D1" mask="url(#mask-2)"></path>
            <path d="M586.5693,557.9138 C585.1403,557.9138 583.8173,556.9898 583.3753,555.5518 C582.8313,553.7888 583.8223,551.9168 585.5883,551.3718 C595.5973,548.2918 603.8393,541.1128 608.2013,531.6768 C612.5643,522.2338 612.6903,511.3058 608.5473,501.6948 C607.8173,499.9988 608.5993,498.0308 610.2953,497.2988 C611.9963,496.5588 613.9593,497.3528 614.6913,499.0458 C619.5853,510.4008 619.4313,523.3168 614.2723,534.4818 C609.1153,545.6418 599.3773,554.1288 587.5543,557.7668 C587.2273,557.8678 586.8963,557.9138 586.5693,557.9138" id="Fill-1028" fill="#020210" mask="url(#mask-2)"></path>
            <path d="M458.7272,488.3774 L501.2292,508.0264 L520.8792,465.5224 L478.3732,445.8764 L458.7272,488.3774 Z M502.8632,515.8094 C502.3822,515.8094 501.9042,515.7074 501.4602,515.5014 L452.8852,493.0464 C451.2082,492.2704 450.4772,490.2834 451.2522,488.6074 L473.7042,440.0354 C474.4802,438.3564 476.4742,437.6314 478.1432,438.4024 L526.7202,460.8534 C527.5252,461.2254 528.1512,461.9024 528.4562,462.7344 C528.7632,463.5674 528.7262,464.4874 528.3532,465.2924 L505.8982,513.8684 C505.5262,514.6734 504.8502,515.2984 504.0172,515.6044 C503.6432,515.7414 503.2532,515.8094 502.8632,515.8094 L502.8632,515.8094 Z" id="Fill-1029" fill="#020210" mask="url(#mask-2)"></path>
            <path d="M506.7659,511.9916 L567.4589,587.9426 L624.6589,464.1886 L527.4859,467.1686 L506.7659,511.9916 Z M568.2249,597.6046 C567.2159,597.6046 566.2509,597.1466 565.6119,596.3466 L500.2499,514.5536 C499.4599,513.5626 499.2959,512.2116 499.8269,511.0626 L522.2819,462.4866 C522.8119,461.3366 523.9489,460.5856 525.2149,460.5466 L629.8629,457.3356 C631.0149,457.2656 632.1139,457.8686 632.7549,458.8336 C633.3949,459.7996 633.4879,461.0296 633.0009,462.0816 L571.2609,595.6636 C570.7749,596.7156 569.7779,597.4406 568.6269,597.5806 C568.4929,597.5976 568.3589,597.6046 568.2249,597.6046 L568.2249,597.6046 Z" id="Fill-1030" fill="#020210" mask="url(#mask-2)"></path>
            <path d="M412.1308,609.2936 C399.2208,609.2936 388.7188,619.7976 388.7188,632.7056 C388.7188,645.6136 399.2208,656.1176 412.1308,656.1176 C425.0398,656.1176 435.5428,645.6136 435.5428,632.7056 C435.5428,619.7976 425.0398,609.2936 412.1308,609.2936 M412.1308,662.8066 C395.5338,662.8066 382.0298,649.3036 382.0298,632.7056 C382.0298,616.1066 395.5338,602.6046 412.1308,602.6046 C428.7278,602.6046 442.2318,616.1066 442.2318,632.7056 C442.2318,649.3036 428.7278,662.8066 412.1308,662.8066" id="Fill-1031" fill="#020210" mask="url(#mask-2)"></path>
            <path d="M600.7479,478.2816 C598.9429,478.2816 597.4569,476.8466 597.4069,475.0306 C597.3539,473.1846 598.8089,471.6446 600.6559,471.5946 L605.6109,471.4556 C607.4399,471.3576 608.9949,472.8596 609.0469,474.7056 C609.0989,476.5506 607.6439,478.0906 605.7969,478.1406 L600.8429,478.2796 C600.8119,478.2816 600.7789,478.2816 600.7479,478.2816" id="Fill-1032" fill="#FFFFFF" mask="url(#mask-2)"></path>
            <path d="M535.8771,480.101 C534.0821,480.101 532.5981,478.677 532.5361,476.871 C532.4741,475.024 533.9191,473.477 535.7641,473.414 L589.2771,471.594 C591.2101,471.499 592.6701,472.979 592.7341,474.823 C592.7961,476.67 591.3511,478.216 589.5061,478.28 L535.9931,480.099 C535.9541,480.101 535.9141,480.101 535.8771,480.101" id="Fill-1033" fill="#FFFFFF" mask="url(#mask-2)"></path>
            <path d="M561.1816,816.6552 C559.3346,816.6552 557.8366,815.1592 557.8366,813.3102 L557.8366,802.1762 L493.6476,776.5202 L454.7996,776.5202 L390.6096,802.1762 L390.6096,813.3102 C390.6096,815.1592 389.1126,816.6552 387.2656,816.6552 C385.4186,816.6552 383.9206,815.1592 383.9206,813.3102 L383.9206,799.9132 C383.9206,798.5442 384.7536,797.3162 386.0246,796.8062 L452.9156,770.0702 C453.3106,769.9132 453.7316,769.8312 454.1566,769.8312 L494.2906,769.8312 C494.7156,769.8312 495.1366,769.9132 495.5316,770.0702 L562.4226,796.8062 C563.6936,797.3162 564.5266,798.5442 564.5266,799.9132 L564.5266,813.3102 C564.5266,815.1592 563.0286,816.6552 561.1816,816.6552" id="Fill-1034" fill="#020210" mask="url(#mask-2)"></path>
            <path d="M487.6017,803.2771 L387.2657,803.2771 C385.4187,803.2771 383.9207,801.7811 383.9207,799.9321 C383.9207,798.0841 385.4187,796.5881 387.2657,796.5881 L487.6017,796.5881 C489.4487,796.5881 490.9467,798.0841 490.9467,799.9321 C490.9467,801.7811 489.4487,803.2771 487.6017,803.2771" id="Fill-1035" fill="#020210" mask="url(#mask-2)"></path>
            <path d="M418.8198,632.7054 C418.8198,636.3994 415.8248,639.3944 412.1308,639.3944 C408.4368,639.3944 405.4418,636.3994 405.4418,632.7054 C405.4418,629.0114 408.4368,626.0164 412.1308,626.0164 C415.8248,626.0164 418.8198,629.0114 418.8198,632.7054" id="Fill-1036" fill="#FFFFFF" mask="url(#mask-2)"></path>
            <path d="M412.1308,629.3609 C410.2868,629.3609 408.7858,630.8599 408.7858,632.7059 C408.7858,634.5509 410.2868,636.0499 412.1308,636.0499 C413.9748,636.0499 415.4758,634.5509 415.4758,632.7059 C415.4758,630.8599 413.9748,629.3609 412.1308,629.3609 M412.1308,642.7389 C406.5978,642.7389 402.0968,638.2379 402.0968,632.7059 C402.0968,627.1729 406.5978,622.6719 412.1308,622.6719 C417.6638,622.6719 422.1648,627.1729 422.1648,632.7059 C422.1648,638.2379 417.6638,642.7389 412.1308,642.7389" id="Fill-1037" fill="#020210" mask="url(#mask-2)"></path>
            <path d="M561.1816,803.2771 L521.0476,803.2771 C519.2006,803.2771 517.7026,801.7811 517.7026,799.9321 C517.7026,798.0841 519.2006,796.5881 521.0476,796.5881 L561.1816,796.5881 C563.0286,796.5881 564.5266,798.0841 564.5266,799.9321 C564.5266,801.7811 563.0286,803.2771 561.1816,803.2771" id="Fill-1038" fill="#020210" mask="url(#mask-2)"></path>
            <path d="M507.6689,803.2771 L500.9799,803.2771 C499.1329,803.2771 497.6349,801.7811 497.6349,799.9321 C497.6349,798.0841 499.1329,796.5881 500.9799,796.5881 L507.6689,796.5881 C509.5159,796.5881 511.0139,798.0841 511.0139,799.9321 C511.0139,801.7811 509.5159,803.2771 507.6689,803.2771" id="Fill-1039" fill="#020210" mask="url(#mask-2)"></path>
            <path d="M1203.0646,786.5544 L1203.0646,585.8824 C1203.0646,578.5234 1197.0446,572.5034 1189.6866,572.5034 L868.6106,572.5034 C861.2516,572.5034 855.2326,578.5234 855.2326,585.8824 L855.2326,786.5544 L1203.0646,786.5544 Z" id="Fill-1040" fill="#D1D1D1" mask="url(#mask-2)"></path>
            <path d="M1189.686,585.882 L868.61,585.882 L868.61,599.26 L1189.686,599.26 L1189.686,585.882 Z" id="Fill-1041" fill="#A5ECDE" mask="url(#mask-2)"></path>
            <path d="M868.61,786.554 L1189.686,786.554 L1189.686,599.26 L868.61,599.26 L868.61,786.554 Z" id="Fill-1042" fill="#FFFFFF" mask="url(#mask-2)"></path>
            <path d="M815.0978,799.9325 C815.0978,807.3265 821.0818,813.3105 828.4758,813.3105 L1229.8208,813.3105 C1237.2158,813.3105 1243.1988,807.3265 1243.1988,799.9325 L1243.1988,786.5545 L815.0978,786.5545 L815.0978,799.9325 Z" id="Fill-1043" fill="#D1D1D1" mask="url(#mask-2)"></path>
            <path d="M1203.0646,789.8989 C1201.2156,789.8989 1199.7206,788.4029 1199.7206,786.5539 L1199.7206,585.8819 C1199.7206,580.3489 1195.2196,575.8479 1189.6866,575.8479 L868.6106,575.8479 C863.0776,575.8479 858.5766,580.3489 858.5766,585.8819 L858.5766,786.5539 C858.5766,788.4029 857.0796,789.8989 855.2326,789.8989 C853.3856,789.8989 851.8876,788.4029 851.8876,786.5539 L851.8876,585.8819 C851.8876,576.6619 859.3906,569.1589 868.6106,569.1589 L1189.6866,569.1589 C1198.9066,569.1589 1206.4096,576.6619 1206.4096,585.8819 L1206.4096,786.5539 C1206.4096,788.4029 1204.9136,789.8989 1203.0646,789.8989" id="Fill-1044" fill="#020210" mask="url(#mask-2)"></path>
            <path d="M1062.5939,803.2771 L995.7029,803.2771 C993.8559,803.2771 992.3589,801.7811 992.3589,799.9321 L992.3589,786.5541 C992.3589,784.7061 993.8559,783.2101 995.7029,783.2101 C997.5499,783.2101 999.0479,784.7061 999.0479,786.5541 L999.0479,796.5881 L1059.2489,796.5881 L1059.2489,786.5541 C1059.2489,784.7061 1060.7449,783.2101 1062.5939,783.2101 C1064.4429,783.2101 1065.9379,784.7061 1065.9379,786.5541 L1065.9379,799.9321 C1065.9379,801.7811 1064.4429,803.2771 1062.5939,803.2771" id="Fill-1045" fill="#020210" mask="url(#mask-2)"></path>
            <path d="M871.955,783.21 L1186.342,783.21 L1186.342,589.227 L871.955,589.227 L871.955,783.21 Z M1189.686,789.899 L868.61,789.899 C866.764,789.899 865.266,788.403 865.266,786.554 L865.266,585.882 C865.266,584.033 866.764,582.537 868.61,582.537 L1189.686,582.537 C1191.535,582.537 1193.031,584.033 1193.031,585.882 L1193.031,786.554 C1193.031,788.403 1191.535,789.899 1189.686,789.899 L1189.686,789.899 Z" id="Fill-1046" fill="#020210" mask="url(#mask-2)"></path>
            <path d="M1176.3082,776.5207 L881.9882,776.5207 C880.1412,776.5207 878.6442,775.0247 878.6442,773.1757 C878.6442,771.3277 880.1412,769.8317 881.9882,769.8317 L1176.3082,769.8317 C1178.1572,769.8317 1179.6532,771.3277 1179.6532,773.1757 C1179.6532,775.0247 1178.1572,776.5207 1176.3082,776.5207" id="Fill-1047" fill="#020210" mask="url(#mask-2)"></path>
            <path d="M909.163,763.1426 L908.745,763.1426 C906.898,763.1426 905.4,761.6466 905.4,759.7976 C905.4,757.9496 906.898,756.4536 908.745,756.4536 L909.163,756.4536 C911.01,756.4536 912.508,757.9496 912.508,759.7976 C912.508,761.6466 911.01,763.1426 909.163,763.1426" id="Fill-1048" fill="#020210" mask="url(#mask-2)"></path>
            <path d="M923.3284,763.1426 L922.4954,763.1426 C920.6484,763.1426 919.1504,761.6466 919.1504,759.7976 C919.1504,757.9496 920.6484,756.4536 922.4954,756.4536 L923.3284,756.4536 C925.1754,756.4536 926.6734,757.9496 926.6734,759.7976 C926.6734,761.6466 925.1754,763.1426 923.3284,763.1426 M937.4934,763.1426 L936.6604,763.1426 C934.8134,763.1426 933.3164,761.6466 933.3164,759.7976 C933.3164,757.9496 934.8134,756.4536 936.6604,756.4536 L937.4934,756.4536 C939.3404,756.4536 940.8384,757.9496 940.8384,759.7976 C940.8384,761.6466 939.3404,763.1426 937.4934,763.1426 M951.6594,763.1426 L950.8254,763.1426 C948.9794,763.1426 947.4814,761.6466 947.4814,759.7976 C947.4814,757.9496 948.9794,756.4536 950.8254,756.4536 L951.6594,756.4536 C953.5054,756.4536 955.0034,757.9496 955.0034,759.7976 C955.0034,761.6466 953.5054,763.1426 951.6594,763.1426 M965.8244,763.1426 L964.9894,763.1426 C963.1424,763.1426 961.6454,761.6466 961.6454,759.7976 C961.6454,757.9496 963.1424,756.4536 964.9894,756.4536 L965.8244,756.4536 C967.6714,756.4536 969.1684,757.9496 969.1684,759.7976 C969.1684,761.6466 967.6714,763.1426 965.8244,763.1426 M979.9884,763.1426 L979.1544,763.1426 C977.3084,763.1426 975.8104,761.6466 975.8104,759.7976 C975.8104,757.9496 977.3084,756.4536 979.1544,756.4536 L979.9884,756.4536 C981.8344,756.4536 983.3324,757.9496 983.3324,759.7976 C983.3324,761.6466 981.8344,763.1426 979.9884,763.1426 M994.1534,763.1426 L993.3204,763.1426 C991.4734,763.1426 989.9754,761.6466 989.9754,759.7976 C989.9754,757.9496 991.4734,756.4536 993.3204,756.4536 L994.1534,756.4536 C996.0004,756.4536 997.4974,757.9496 997.4974,759.7976 C997.4974,761.6466 996.0004,763.1426 994.1534,763.1426 M1008.3184,763.1426 L1007.4854,763.1426 C1005.6384,763.1426 1004.1414,761.6466 1004.1414,759.7976 C1004.1414,757.9496 1005.6384,756.4536 1007.4854,756.4536 L1008.3184,756.4536 C1010.1654,756.4536 1011.6634,757.9496 1011.6634,759.7976 C1011.6634,761.6466 1010.1654,763.1426 1008.3184,763.1426 M1022.4834,763.1426 L1021.6494,763.1426 C1019.8024,763.1426 1018.3044,761.6466 1018.3044,759.7976 C1018.3044,757.9496 1019.8024,756.4536 1021.6494,756.4536 L1022.4834,756.4536 C1024.3314,756.4536 1025.8284,757.9496 1025.8284,759.7976 C1025.8284,761.6466 1024.3314,763.1426 1022.4834,763.1426 M1036.6474,763.1426 L1035.8144,763.1426 C1033.9654,763.1426 1032.4704,761.6466 1032.4704,759.7976 C1032.4704,757.9496 1033.9654,756.4536 1035.8144,756.4536 L1036.6474,756.4536 C1038.4964,756.4536 1039.9924,757.9496 1039.9924,759.7976 C1039.9924,761.6466 1038.4964,763.1426 1036.6474,763.1426 M1050.8124,763.1426 L1049.9794,763.1426 C1048.1314,763.1426 1046.6354,761.6466 1046.6354,759.7976 C1046.6354,757.9496 1048.1314,756.4536 1049.9794,756.4536 L1050.8124,756.4536 C1052.6614,756.4536 1054.1574,757.9496 1054.1574,759.7976 C1054.1574,761.6466 1052.6614,763.1426 1050.8124,763.1426 M1064.9784,763.1426 L1064.1454,763.1426 C1062.2964,763.1426 1060.8004,761.6466 1060.8004,759.7976 C1060.8004,757.9496 1062.2964,756.4536 1064.1454,756.4536 L1064.9784,756.4536 C1066.8264,756.4536 1068.3224,757.9496 1068.3224,759.7976 C1068.3224,761.6466 1066.8264,763.1426 1064.9784,763.1426 M1079.1434,763.1426 L1078.3104,763.1426 C1076.4614,763.1426 1074.9664,761.6466 1074.9664,759.7976 C1074.9664,757.9496 1076.4614,756.4536 1078.3104,756.4536 L1079.1434,756.4536 C1080.9924,756.4536 1082.4874,757.9496 1082.4874,759.7976 C1082.4874,761.6466 1080.9924,763.1426 1079.1434,763.1426 M1093.3084,763.1426 L1092.4764,763.1426 C1090.6274,763.1426 1089.1314,761.6466 1089.1314,759.7976 C1089.1314,757.9496 1090.6274,756.4536 1092.4764,756.4536 L1093.3084,756.4536 C1095.1574,756.4536 1096.6534,757.9496 1096.6534,759.7976 C1096.6534,761.6466 1095.1574,763.1426 1093.3084,763.1426 M1107.4734,763.1426 L1106.6414,763.1426 C1104.7924,763.1426 1103.2964,761.6466 1103.2964,759.7976 C1103.2964,757.9496 1104.7924,756.4536 1106.6414,756.4536 L1107.4734,756.4536 C1109.3224,756.4536 1110.8184,757.9496 1110.8184,759.7976 C1110.8184,761.6466 1109.3224,763.1426 1107.4734,763.1426 M1121.6394,763.1426 L1120.8034,763.1426 C1118.9544,763.1426 1117.4584,761.6466 1117.4584,759.7976 C1117.4584,757.9496 1118.9544,756.4536 1120.8034,756.4536 L1121.6394,756.4536 C1123.4874,756.4536 1124.9834,757.9496 1124.9834,759.7976 C1124.9834,761.6466 1123.4874,763.1426 1121.6394,763.1426 M1135.8014,763.1426 L1134.9684,763.1426 C1133.1194,763.1426 1131.6234,761.6466 1131.6234,759.7976 C1131.6234,757.9496 1133.1194,756.4536 1134.9684,756.4536 L1135.8014,756.4536 C1137.6504,756.4536 1139.1464,757.9496 1139.1464,759.7976 C1139.1464,761.6466 1137.6504,763.1426 1135.8014,763.1426" id="Fill-1049" fill="#020210" mask="url(#mask-2)"></path>
            <path d="M1149.5519,763.1426 L1149.1339,763.1426 C1147.2849,763.1426 1145.7889,761.6466 1145.7889,759.7976 C1145.7889,757.9496 1147.2849,756.4536 1149.1339,756.4536 L1149.5519,756.4536 C1151.4009,756.4536 1152.8969,757.9496 1152.8969,759.7976 C1152.8969,761.6466 1151.4009,763.1426 1149.5519,763.1426" id="Fill-1050" fill="#020210" mask="url(#mask-2)"></path>
            <path d="M1189.6864,602.6046 L868.6104,602.6046 C866.7634,602.6046 865.2654,601.1086 865.2654,599.2596 C865.2654,597.4116 866.7634,595.9156 868.6104,595.9156 L1189.6864,595.9156 C1191.5354,595.9156 1193.0314,597.4116 1193.0314,599.2596 C1193.0314,601.1086 1191.5354,602.6046 1189.6864,602.6046" id="Fill-1051" fill="#020210" mask="url(#mask-2)"></path>
            <path d="M818.4423,789.8989 L818.4423,799.9329 C818.4423,805.4649 822.9433,809.9659 828.4763,809.9659 L1229.8213,809.9659 C1235.3533,809.9659 1239.8543,805.4649 1239.8543,799.9329 L1239.8543,789.8989 L818.4423,789.8989 Z M1229.8213,816.6549 L828.4763,816.6549 C819.2553,816.6549 811.7533,809.1529 811.7533,799.9329 L811.7533,786.5539 C811.7533,784.7059 813.2513,783.2099 815.0973,783.2099 L1243.1993,783.2099 C1245.0473,783.2099 1246.5433,784.7059 1246.5433,786.5539 L1246.5433,799.9329 C1246.5433,809.1529 1239.0413,816.6549 1229.8213,816.6549 L1229.8213,816.6549 Z" id="Fill-1052" fill="#020210" mask="url(#mask-2)"></path>
            <path d="M1376.9807,813.3107 L1283.3337,813.3107 L1276.6447,736.3867 L1383.6697,736.3867 L1376.9807,813.3107 Z" id="Fill-1053" fill="#D1D1D1" mask="url(#mask-2)"></path>
            <path d="M1390.359,723.008 L1269.956,723.008 L1269.956,736.386 L1390.359,736.386 L1390.359,723.008 Z" id="Fill-1054" fill="#D1D1D1" mask="url(#mask-2)"></path>
            <path d="M1343.5353,672.8399 C1358.3243,672.8399 1370.2913,660.8729 1370.2913,646.0839 L1370.2913,639.3949 C1370.2913,632.0069 1376.2813,626.0159 1383.6703,626.0159 C1391.0583,626.0159 1397.0483,632.0069 1397.0483,639.3949 L1397.0483,646.0839 C1397.0483,675.6619 1373.1133,699.5959 1343.5353,699.5959 L1343.5353,672.8399 Z" id="Fill-1055" fill="#DBF286" mask="url(#mask-2)"></path>
            <path d="M1343.5353,686.2181 C1365.7193,686.2181 1383.6703,668.2671 1383.6703,646.0841 L1383.6703,639.3941 L1343.5353,686.2181 Z" id="Fill-1056" fill="#DBF286" mask="url(#mask-2)"></path>
            <path d="M1343.5353,723.0081 L1343.5353,559.1251 C1343.5353,551.7371 1337.5453,545.7471 1330.1573,545.7471 C1322.7693,545.7471 1316.7793,551.7371 1316.7793,559.1251 L1316.7793,723.0081 L1343.5353,723.0081 Z" id="Fill-1057" fill="#DBF286" mask="url(#mask-2)"></path>
            <path d="M1330.1572,559.1255 L1330.1572,709.6295 L1330.1572,559.1255 Z" id="Fill-1058" fill="#DBF286" mask="url(#mask-2)"></path>
            <path d="M1316.7791,646.0836 C1301.9901,646.0836 1290.0231,634.1166 1290.0231,619.3276 L1290.0231,605.9486 C1290.0231,598.5606 1284.0331,592.5706 1276.6441,592.5706 C1269.2561,592.5706 1263.2661,598.5606 1263.2661,605.9486 L1263.2661,619.3276 C1263.2661,648.9056 1287.2011,672.8396 1316.7791,672.8396 L1316.7791,646.0836 Z" id="Fill-1059" fill="#DBF286" mask="url(#mask-2)"></path>
            <path d="M1316.7791,659.4618 C1294.5951,659.4618 1276.6441,641.5108 1276.6441,619.3278 L1276.6441,605.9488 L1316.7791,659.4618 Z" id="Fill-1060" fill="#DBF286" mask="url(#mask-2)"></path>
            <path d="M1343.5353,702.9408 C1341.6863,702.9408 1340.1913,701.4448 1340.1913,699.5958 C1340.1913,697.7478 1341.6863,696.2518 1343.5353,696.2518 C1371.1993,696.2518 1393.7033,673.7478 1393.7033,646.0838 L1393.7033,639.3948 C1393.7033,633.8618 1389.2023,629.3608 1383.6703,629.3608 C1378.1373,629.3608 1373.6363,633.8618 1373.6363,639.3948 L1373.6363,646.0838 C1373.6363,662.6818 1360.1343,676.1848 1343.5353,676.1848 C1341.6863,676.1848 1340.1913,674.6888 1340.1913,672.8398 C1340.1913,670.9918 1341.6863,669.4958 1343.5353,669.4958 C1356.4433,669.4958 1366.9473,658.9918 1366.9473,646.0838 L1366.9473,639.3948 C1366.9473,630.1738 1374.4493,622.6718 1383.6703,622.6718 C1392.8903,622.6718 1400.3923,630.1738 1400.3923,639.3948 L1400.3923,646.0838 C1400.3923,677.4358 1374.8873,702.9408 1343.5353,702.9408" id="Fill-1061" fill="#020210" mask="url(#mask-2)"></path>
            <path d="M1343.5353,689.5627 C1341.6863,689.5627 1340.1913,688.0667 1340.1913,686.2177 C1340.1913,684.3697 1341.6863,682.8737 1343.5353,682.8737 L1343.8753,682.8707 C1345.6253,682.8247 1347.2523,684.2907 1347.2983,686.1367 C1347.3403,687.9847 1345.8773,689.5167 1344.0313,689.5597 L1343.5353,689.5627 Z" id="Fill-1062" fill="#020210" mask="url(#mask-2)"></path>
            <path d="M1382.9514,657.0611 C1382.7394,657.0611 1382.5234,657.0421 1382.3074,656.9991 C1380.4954,656.6461 1379.3124,654.8891 1379.6654,653.0761 L1379.7964,652.3551 C1380.1064,650.5351 1381.8314,649.3141 1383.6504,649.6111 C1385.4724,649.9181 1386.7014,651.6461 1386.3944,653.4651 L1386.2304,654.3571 C1385.9204,655.9541 1384.5194,657.0611 1382.9514,657.0611 M1377.9994,670.0181 C1377.4154,670.0181 1376.8234,669.8651 1376.2884,669.5441 C1374.7014,668.5971 1374.1854,666.5431 1375.1324,664.9591 L1375.5274,664.2831 C1376.4614,662.6921 1378.5124,662.1561 1380.1034,663.0771 C1381.6974,664.0081 1382.2364,666.0561 1381.3084,667.6531 L1380.8744,668.3881 C1380.2474,669.4361 1379.1394,670.0181 1377.9994,670.0181 M1368.9424,680.5151 C1367.9694,680.5151 1367.0094,680.0941 1366.3464,679.2841 C1365.1804,677.8531 1365.3954,675.7471 1366.8264,674.5771 L1367.3914,674.1071 C1368.7924,672.9051 1370.9054,673.0621 1372.1044,674.4701 C1373.3094,675.8711 1373.1464,677.9811 1371.7414,679.1831 L1371.0524,679.7641 C1370.4324,680.2701 1369.6844,680.5151 1368.9424,680.5151 M1356.8414,687.3091 C1355.4664,687.3091 1354.1764,686.4531 1353.6894,685.0821 C1353.0724,683.3401 1353.9834,681.4301 1355.7244,680.8131 L1356.4984,680.5351 C1358.2264,679.9211 1360.1474,680.8261 1360.7674,682.5701 C1361.3844,684.3111 1360.4734,686.2211 1358.7324,686.8381 L1357.9584,687.1161 C1357.5894,687.2471 1357.2134,687.3091 1356.8414,687.3091" id="Fill-1063" fill="#020210" mask="url(#mask-2)"></path>
            <path d="M1383.6698,643.1571 C1381.8208,643.1571 1380.3258,641.6611 1380.3258,639.8121 L1380.3258,639.3941 C1380.3258,637.5461 1381.8208,636.0501 1383.6698,636.0501 C1385.5188,636.0501 1387.0148,637.5461 1387.0148,639.3941 L1387.0148,639.8121 C1387.0148,641.6611 1385.5188,643.1571 1383.6698,643.1571" id="Fill-1064" fill="#020210" mask="url(#mask-2)"></path>
            <path d="M1343.5353,726.3526 C1341.6863,726.3526 1340.1913,724.8566 1340.1913,723.0076 L1340.1913,559.1256 C1340.1913,553.5926 1335.6903,549.0916 1330.1573,549.0916 C1324.6243,549.0916 1320.1233,553.5926 1320.1233,559.1256 L1320.1233,723.0076 C1320.1233,724.8566 1318.6273,726.3526 1316.7793,726.3526 C1314.9303,726.3526 1313.4343,724.8566 1313.4343,723.0076 L1313.4343,559.1256 C1313.4343,549.9056 1320.9373,542.4026 1330.1573,542.4026 C1339.3773,542.4026 1346.8803,549.9056 1346.8803,559.1256 L1346.8803,723.0076 C1346.8803,724.8566 1345.3843,726.3526 1343.5353,726.3526" id="Fill-1065" fill="#020210" mask="url(#mask-2)"></path>
            <path d="M1330.1572,562.8881 C1328.3082,562.8881 1326.8122,561.3921 1326.8122,559.5431 L1326.8122,559.1251 C1326.8122,557.2771 1328.3082,555.7811 1330.1572,555.7811 C1332.0052,555.7811 1333.5012,557.2771 1333.5012,559.1251 L1333.5012,559.5431 C1333.5012,561.3921 1332.0052,562.8881 1330.1572,562.8881" id="Fill-1066" fill="#020210" mask="url(#mask-2)"></path>
            <path d="M1330.1572,576.5667 C1328.3082,576.5667 1326.8122,575.0707 1326.8122,573.2217 L1326.8122,572.4187 C1326.8122,570.5707 1328.3082,569.0747 1330.1572,569.0747 C1332.0052,569.0747 1333.5012,570.5707 1333.5012,572.4187 L1333.5012,573.2217 C1333.5012,575.0707 1332.0052,576.5667 1330.1572,576.5667 M1330.1572,590.2487 C1328.3082,590.2487 1326.8122,588.7527 1326.8122,586.9047 L1326.8122,586.0977 C1326.8122,584.2487 1328.3082,582.7527 1330.1572,582.7527 C1332.0052,582.7527 1333.5012,584.2487 1333.5012,586.0977 L1333.5012,586.9047 C1333.5012,588.7527 1332.0052,590.2487 1330.1572,590.2487 M1330.1572,603.9277 C1328.3082,603.9277 1326.8122,602.4317 1326.8122,600.5827 L1326.8122,599.7757 C1326.8122,597.9277 1328.3082,596.4317 1330.1572,596.4317 C1332.0052,596.4317 1333.5012,597.9277 1333.5012,599.7757 L1333.5012,600.5827 C1333.5012,602.4317 1332.0052,603.9277 1330.1572,603.9277 M1330.1572,617.6067 C1328.3082,617.6067 1326.8122,616.1107 1326.8122,614.2617 L1326.8122,613.4577 C1326.8122,611.6097 1328.3082,610.1137 1330.1572,610.1137 C1332.0052,610.1137 1333.5012,611.6097 1333.5012,613.4577 L1333.5012,614.2617 C1333.5012,616.1107 1332.0052,617.6067 1330.1572,617.6067 M1330.1572,631.2847 C1328.3082,631.2847 1326.8122,629.7887 1326.8122,627.9397 L1326.8122,627.1367 C1326.8122,625.2877 1328.3082,623.7927 1330.1572,623.7927 C1332.0052,623.7927 1333.5012,625.2877 1333.5012,627.1367 L1333.5012,627.9397 C1333.5012,629.7887 1332.0052,631.2847 1330.1572,631.2847 M1330.1572,644.9637 C1328.3082,644.9637 1326.8122,643.4677 1326.8122,641.6187 L1326.8122,640.8157 C1326.8122,638.9667 1328.3082,637.4707 1330.1572,637.4707 C1332.0052,637.4707 1333.5012,638.9667 1333.5012,640.8157 L1333.5012,641.6187 C1333.5012,643.4677 1332.0052,644.9637 1330.1572,644.9637 M1330.1572,658.6457 C1328.3082,658.6457 1326.8122,657.1497 1326.8122,655.3007 L1326.8122,654.4937 C1326.8122,652.6457 1328.3082,651.1497 1330.1572,651.1497 C1332.0052,651.1497 1333.5012,652.6457 1333.5012,654.4937 L1333.5012,655.3007 C1333.5012,657.1497 1332.0052,658.6457 1330.1572,658.6457 M1330.1572,672.3237 C1328.3082,672.3237 1326.8122,670.8277 1326.8122,668.9797 L1326.8122,668.1727 C1326.8122,666.3237 1328.3082,664.8277 1330.1572,664.8277 C1332.0052,664.8277 1333.5012,666.3237 1333.5012,668.1727 L1333.5012,668.9797 C1333.5012,670.8277 1332.0052,672.3237 1330.1572,672.3237 M1330.1572,686.0027 C1328.3082,686.0027 1326.8122,684.5067 1326.8122,682.6577 L1326.8122,681.8547 C1326.8122,680.0057 1328.3082,678.5097 1330.1572,678.5097 C1332.0052,678.5097 1333.5012,680.0057 1333.5012,681.8547 L1333.5012,682.6577 C1333.5012,684.5067 1332.0052,686.0027 1330.1572,686.0027 M1330.1572,699.6817 C1328.3082,699.6817 1326.8122,698.1857 1326.8122,696.3367 L1326.8122,695.5337 C1326.8122,693.6847 1328.3082,692.1887 1330.1572,692.1887 C1332.0052,692.1887 1333.5012,693.6847 1333.5012,695.5337 L1333.5012,696.3367 C1333.5012,698.1857 1332.0052,699.6817 1330.1572,699.6817" id="Fill-1067" fill="#020210" mask="url(#mask-2)"></path>
            <path d="M1330.1572,712.9744 C1328.3082,712.9744 1326.8122,711.4784 1326.8122,709.6294 L1326.8122,709.2114 C1326.8122,707.3634 1328.3082,705.8674 1330.1572,705.8674 C1332.0052,705.8674 1333.5012,707.3634 1333.5012,709.2114 L1333.5012,709.6294 C1333.5012,711.4784 1332.0052,712.9744 1330.1572,712.9744" id="Fill-1068" fill="#020210" mask="url(#mask-2)"></path>
            <path d="M1316.7791,676.1845 C1285.4271,676.1845 1259.9221,650.6795 1259.9221,619.3275 L1259.9221,605.9495 C1259.9221,596.7285 1267.4241,589.2265 1276.6441,589.2265 C1285.8651,589.2265 1293.3671,596.7285 1293.3671,605.9495 L1293.3671,619.3275 C1293.3671,632.2355 1303.8711,642.7395 1316.7791,642.7395 C1318.6271,642.7395 1320.1231,644.2355 1320.1231,646.0835 C1320.1231,647.9325 1318.6271,649.4285 1316.7791,649.4285 C1300.1801,649.4285 1286.6781,635.9255 1286.6781,619.3275 L1286.6781,605.9495 C1286.6781,600.4165 1282.1771,595.9155 1276.6441,595.9155 C1271.1121,595.9155 1266.6111,600.4165 1266.6111,605.9495 L1266.6111,619.3275 C1266.6111,646.9915 1289.1151,669.4955 1316.7791,669.4955 C1318.6271,669.4955 1320.1231,670.9915 1320.1231,672.8395 C1320.1231,674.6885 1318.6271,676.1845 1316.7791,676.1845" id="Fill-1069" fill="#020210" mask="url(#mask-2)"></path>
            <path d="M1316.7791,662.8063 L1316.2831,662.8033 C1314.4371,662.7603 1312.9741,661.2283 1313.0161,659.3803 C1313.0591,657.5343 1314.6101,656.0583 1316.4391,656.1143 L1316.7791,656.1173 C1318.6271,656.1173 1320.1231,657.6133 1320.1231,659.4613 C1320.1231,661.3103 1318.6271,662.8063 1316.7791,662.8063" id="Fill-1070" fill="#020210" mask="url(#mask-2)"></path>
            <path d="M1276.7097,625.0267 C1274.9457,625.0267 1273.4727,623.6487 1273.3747,621.8647 L1273.3297,620.9277 C1273.2477,619.0827 1274.6817,617.5247 1276.5267,617.4427 C1278.3947,617.3317 1279.9297,618.7947 1280.0117,620.6407 L1280.0517,621.4997 C1280.1527,623.3447 1278.7417,624.9187 1276.8957,625.0197 C1276.8337,625.0267 1276.7717,625.0267 1276.7097,625.0267 M1280.4497,639.7607 C1279.1917,639.7607 1277.9897,639.0517 1277.4187,637.8367 L1277.0137,636.9487 C1276.2687,635.2567 1277.0367,633.2837 1278.7247,632.5387 C1280.4197,631.7877 1282.3897,632.5647 1283.1347,634.2507 L1283.4737,634.9947 C1284.2577,636.6637 1283.5387,638.6567 1281.8667,639.4437 C1281.4097,639.6587 1280.9267,639.7607 1280.4497,639.7607 M1289.4057,652.0377 C1288.5817,652.0377 1287.7587,651.7377 1287.1157,651.1297 L1286.4267,650.4737 C1285.1007,649.1867 1285.0677,647.0697 1286.3547,645.7437 C1287.6417,644.4147 1289.7577,644.3887 1291.0847,645.6727 L1291.6947,646.2567 C1293.0407,647.5207 1293.1057,649.6367 1291.8417,650.9827 C1291.1827,651.6847 1290.2937,652.0377 1289.4057,652.0377 M1302.2867,660.1147 C1301.8887,660.1147 1301.4837,660.0427 1301.0887,659.8927 L1300.1577,659.5207 C1298.4527,658.8057 1297.6487,656.8457 1298.3607,655.1437 C1299.0797,653.4357 1301.0367,652.6357 1302.7377,653.3477 L1303.4857,653.6477 C1305.2097,654.3107 1306.0727,656.2447 1305.4097,657.9687 C1304.8997,659.2987 1303.6297,660.1147 1302.2867,660.1147" id="Fill-1071" fill="#020210" mask="url(#mask-2)"></path>
            <path d="M1276.6445,609.7117 C1274.7955,609.7117 1273.2995,608.2157 1273.2995,606.3667 L1273.2995,605.9487 C1273.2995,604.1007 1274.7955,602.6047 1276.6445,602.6047 C1278.4935,602.6047 1279.9885,604.1007 1279.9885,605.9487 L1279.9885,606.3667 C1279.9885,608.2157 1278.4935,609.7117 1276.6445,609.7117" id="Fill-1072" fill="#020210" mask="url(#mask-2)"></path>
            <path d="M1273.3,733.042 L1387.014,733.042 L1387.014,726.353 L1273.3,726.353 L1273.3,733.042 Z M1390.359,739.731 L1269.955,739.731 C1268.107,739.731 1266.611,738.235 1266.611,736.386 L1266.611,723.008 C1266.611,721.16 1268.107,719.664 1269.955,719.664 L1390.359,719.664 C1392.207,719.664 1393.703,721.16 1393.703,723.008 L1393.703,736.386 C1393.703,738.235 1392.207,739.731 1390.359,739.731 L1390.359,739.731 Z" id="Fill-1073" fill="#020210" mask="url(#mask-2)"></path>
            <path d="M1295.5947,803.2771 C1293.8797,803.2771 1292.4197,801.9671 1292.2667,800.2301 L1287.8047,750.0621 C1287.6417,748.2191 1289.0007,746.5961 1290.8387,746.4331 C1292.7207,746.2701 1294.3047,747.6321 1294.4677,749.4671 L1298.9297,799.6351 C1299.0927,801.4771 1297.7337,803.1011 1295.8957,803.2641 C1295.7937,803.2741 1295.6927,803.2771 1295.5947,803.2771" id="Fill-1074" fill="#FFFFFF" mask="url(#mask-2)"></path>
            <path d="M1283.3302,816.6552 C1281.6122,816.6552 1280.1522,815.3422 1280.0022,813.6012 L1273.3132,736.6772 C1273.1532,734.8342 1274.5152,733.2152 1276.3542,733.0552 C1278.1502,732.8552 1279.8162,734.2532 1279.9762,736.0952 L1286.6652,813.0202 C1286.8252,814.8622 1285.4632,816.4822 1283.6242,816.6422 C1283.5262,816.6522 1283.4282,816.6552 1283.3302,816.6552" id="Fill-1075" fill="#020210" mask="url(#mask-2)"></path>
            <path d="M1376.9841,816.6552 C1376.8861,816.6552 1376.7881,816.6522 1376.6901,816.6422 C1374.8511,816.4822 1373.4891,814.8622 1373.6491,813.0202 L1380.3381,736.0952 C1380.4981,734.2572 1382.1411,732.8812 1383.9601,733.0552 C1385.7991,733.2152 1387.1611,734.8342 1387.0011,736.6772 L1380.3121,813.6012 C1380.1621,815.3422 1378.7021,816.6552 1376.9841,816.6552" id="Fill-1076" fill="#020210" mask="url(#mask-2)"></path>
            <path d="M774.7615,202.6378 C728.6565,202.6378 691.1475,240.1458 691.1475,286.2518 C691.1475,332.3568 728.6565,369.8648 774.7615,369.8648 C820.8665,369.8648 858.3755,332.3568 858.3755,286.2518 C858.3755,240.1458 820.8665,202.6378 774.7615,202.6378 M774.7615,376.5538 C724.9685,376.5538 684.4585,336.0438 684.4585,286.2518 C684.4585,236.4588 724.9685,195.9488 774.7615,195.9488 C824.5535,195.9488 865.0645,236.4588 865.0645,286.2518 C865.0645,336.0438 824.5535,376.5538 774.7615,376.5538" id="Fill-1077" fill="#020210" mask="url(#mask-2)"></path>
            <path d="M1112.85,360.54 L1137.478,360.54 L1137.478,225.086 L1112.85,225.086 L1112.85,360.54 Z" id="Fill-1078" fill="#D1D1D1" mask="url(#mask-2)"></path>
            <path d="M1433.014,360.54 L1408.386,360.54 L1408.386,212.772 L1433.014,212.772 L1433.014,360.54 Z" id="Fill-1079" fill="#D1D1D1" mask="url(#mask-2)"></path>
            <path d="M1383.758,360.54 L1359.13,360.54 L1359.13,175.83 L1383.758,175.83 L1383.758,360.54 Z" id="Fill-1080" fill="#D1D1D1" mask="url(#mask-2)"></path>
            <path d="M1383.758,360.54 L1396.072,360.54 L1396.072,200.458 L1383.758,200.458 L1383.758,360.54 Z" id="Fill-1081" fill="#DBF286" mask="url(#mask-2)"></path>
            <path d="M1297.56,360.54 L1272.932,360.54 L1272.932,188.144 L1297.56,188.144 L1297.56,360.54 Z" id="Fill-1082" fill="#D1D1D1" mask="url(#mask-2)"></path>
            <path d="M1346.816,200.458 L1322.188,200.458 L1322.188,237.4 L1346.816,237.4 L1346.816,200.458 Z" id="Fill-1083" fill="#A5ECDE" mask="url(#mask-2)"></path>
            <path d="M1346.816,237.4 L1322.188,237.4 L1322.188,335.912 L1346.816,335.912 L1346.816,237.4 Z" id="Fill-1084" fill="#DBF286" mask="url(#mask-2)"></path>
            <path d="M1272.932,200.458 L1235.99,200.458 L1235.99,335.912 L1272.932,335.912 L1272.932,200.458 Z" id="Fill-1085" fill="#A5ECDE" mask="url(#mask-2)"></path>
            <path d="M1223.676,188.144 L1199.048,188.144 L1199.048,348.226 L1223.676,348.226 L1223.676,188.144 Z" id="Fill-1086" fill="#DBF286" mask="url(#mask-2)"></path>
            <path d="M1199.048,348.226 L1162.106,348.226 L1162.106,212.772 L1199.048,212.772 L1199.048,348.226 Z" id="Fill-1087" fill="#D1D1D1" mask="url(#mask-2)"></path>
            <path d="M1149.792,360.54 L1137.478,360.54 L1137.478,200.458 L1149.792,200.458 L1149.792,360.54 Z" id="Fill-1088" fill="#DBF286" mask="url(#mask-2)"></path>
            <path d="M1469.956,372.854 L1075.908,372.854 L1075.908,360.54 L1469.956,360.54 L1469.956,372.854 Z" id="Fill-1089" fill="#A5ECDE" mask="url(#mask-2)"></path>
            <path d="M1309.874,360.54 L1297.56,360.54 L1297.56,175.83 L1309.874,175.83 L1309.874,360.54 Z" id="Fill-1090" fill="#DBF286" mask="url(#mask-2)"></path>
            <path d="M1186.734,249.714 L1174.42,249.714 L1174.42,335.912 L1186.734,335.912 L1186.734,249.714 Z" id="Fill-1091" fill="#A5ECDE" mask="url(#mask-2)"></path>
            <path d="M1078.986,369.775 L1466.877,369.775 L1466.877,363.618 L1078.986,363.618 L1078.986,369.775 Z M1469.956,375.932 L1075.908,375.932 C1074.206,375.932 1072.829,374.554 1072.829,372.854 L1072.829,360.54 C1072.829,358.84 1074.206,357.461 1075.908,357.461 L1469.956,357.461 C1471.657,357.461 1473.034,358.84 1473.034,360.54 L1473.034,372.854 C1473.034,374.554 1471.657,375.932 1469.956,375.932 L1469.956,375.932 Z" id="Fill-1092" fill="#020210" mask="url(#mask-2)"></path>
            <path d="M1165.184,357.461 L1195.969,357.461 L1195.969,203.536 L1165.184,203.536 L1165.184,357.461 Z M1199.048,363.618 L1162.106,363.618 C1160.404,363.618 1159.027,362.24 1159.027,360.54 L1159.027,200.458 C1159.027,198.758 1160.404,197.379 1162.106,197.379 L1199.048,197.379 C1200.749,197.379 1202.126,198.758 1202.126,200.458 L1202.126,360.54 C1202.126,362.24 1200.749,363.618 1199.048,363.618 L1199.048,363.618 Z" id="Fill-1093" fill="#020210" mask="url(#mask-2)"></path>
            <path d="M1226.754,357.461 L1232.911,357.461 L1232.911,191.222 L1226.754,191.222 L1226.754,357.461 Z M1235.99,363.618 L1223.676,363.618 C1221.974,363.618 1220.597,362.24 1220.597,360.54 L1220.597,188.144 C1220.597,186.444 1221.974,185.065 1223.676,185.065 L1235.99,185.065 C1237.691,185.065 1239.068,186.444 1239.068,188.144 L1239.068,360.54 C1239.068,362.24 1237.691,363.618 1235.99,363.618 L1235.99,363.618 Z" id="Fill-1094" fill="#020210" mask="url(#mask-2)"></path>
            <path d="M1239.068,357.461 L1269.853,357.461 L1269.853,178.908 L1239.068,178.908 L1239.068,357.461 Z M1272.932,363.618 L1235.99,363.618 C1234.288,363.618 1232.911,362.24 1232.911,360.54 L1232.911,175.83 C1232.911,174.13 1234.288,172.751 1235.99,172.751 L1272.932,172.751 C1274.633,172.751 1276.01,174.13 1276.01,175.83 L1276.01,360.54 C1276.01,362.24 1274.633,363.618 1272.932,363.618 L1272.932,363.618 Z" id="Fill-1095" fill="#020210" mask="url(#mask-2)"></path>
            <path d="M1276.01,357.461 L1294.481,357.461 L1294.481,191.222 L1276.01,191.222 L1276.01,357.461 Z M1297.56,363.618 L1272.932,363.618 C1271.23,363.618 1269.853,362.24 1269.853,360.54 L1269.853,188.144 C1269.853,186.444 1271.23,185.065 1272.932,185.065 L1297.56,185.065 C1299.261,185.065 1300.638,186.444 1300.638,188.144 L1300.638,360.54 C1300.638,362.24 1299.261,363.618 1297.56,363.618 L1297.56,363.618 Z" id="Fill-1096" fill="#020210" mask="url(#mask-2)"></path>
            <path d="M1300.638,357.461 L1306.795,357.461 L1306.795,178.908 L1300.638,178.908 L1300.638,357.461 Z M1309.874,363.618 L1297.56,363.618 C1295.858,363.618 1294.481,362.24 1294.481,360.54 L1294.481,175.83 C1294.481,174.13 1295.858,172.751 1297.56,172.751 L1309.874,172.751 C1311.575,172.751 1312.952,174.13 1312.952,175.83 L1312.952,360.54 C1312.952,362.24 1311.575,363.618 1309.874,363.618 L1309.874,363.618 Z" id="Fill-1097" fill="#020210" mask="url(#mask-2)"></path>
            <path d="M1312.952,357.461 L1319.109,357.461 L1319.109,191.222 L1312.952,191.222 L1312.952,357.461 Z M1322.188,363.618 L1309.874,363.618 C1308.172,363.618 1306.795,362.24 1306.795,360.54 L1306.795,188.144 C1306.795,186.444 1308.172,185.065 1309.874,185.065 L1322.188,185.065 C1323.889,185.065 1325.266,186.444 1325.266,188.144 L1325.266,360.54 C1325.266,362.24 1323.889,363.618 1322.188,363.618 L1322.188,363.618 Z" id="Fill-1098" fill="#020210" mask="url(#mask-2)"></path>
            <path d="M1399.15,357.461 L1405.307,357.461 L1405.307,191.222 L1399.15,191.222 L1399.15,357.461 Z M1408.385,363.618 L1396.072,363.618 C1394.37,363.618 1392.993,362.24 1392.993,360.54 L1392.993,188.144 C1392.993,186.444 1394.37,185.065 1396.072,185.065 L1408.385,185.065 C1410.087,185.065 1411.464,186.444 1411.464,188.144 L1411.464,360.54 C1411.464,362.24 1410.087,363.618 1408.385,363.618 L1408.385,363.618 Z" id="Fill-1099" fill="#020210" mask="url(#mask-2)"></path>
            <path d="M1199.0476,351.3044 L1162.1056,351.3044 C1160.4046,351.3044 1159.0276,349.9254 1159.0276,348.2264 C1159.0276,346.5264 1160.4046,345.1474 1162.1056,345.1474 L1199.0476,345.1474 C1200.7496,345.1474 1202.1256,346.5264 1202.1256,348.2264 C1202.1256,349.9254 1200.7496,351.3044 1199.0476,351.3044" id="Fill-1100" fill="#020210" mask="url(#mask-2)"></path>
            <path d="M1199.0476,215.8504 L1162.1056,215.8504 C1160.4046,215.8504 1159.0276,214.4714 1159.0276,212.7724 C1159.0276,211.0724 1160.4046,209.6934 1162.1056,209.6934 L1199.0476,209.6934 C1200.7496,209.6934 1202.1256,211.0724 1202.1256,212.7724 C1202.1256,214.4714 1200.7496,215.8504 1199.0476,215.8504" id="Fill-1101" fill="#020210" mask="url(#mask-2)"></path>
            <path d="M1177.498,332.833 L1183.655,332.833 L1183.655,252.792 L1177.498,252.792 L1177.498,332.833 Z M1186.734,338.99 L1174.42,338.99 C1172.718,338.99 1171.341,337.612 1171.341,335.912 L1171.341,249.714 C1171.341,248.014 1172.718,246.635 1174.42,246.635 L1186.734,246.635 C1188.435,246.635 1189.812,248.014 1189.812,249.714 L1189.812,335.912 C1189.812,337.612 1188.435,338.99 1186.734,338.99 L1186.734,338.99 Z" id="Fill-1102" fill="#020210" mask="url(#mask-2)"></path>
            <path d="M1186.7336,240.4784 L1174.4196,240.4784 C1172.7176,240.4784 1171.3416,239.0994 1171.3416,237.4004 C1171.3416,235.7004 1172.7176,234.3214 1174.4196,234.3214 L1186.7336,234.3214 C1188.4346,234.3214 1189.8116,235.7004 1189.8116,237.4004 C1189.8116,239.0994 1188.4346,240.4784 1186.7336,240.4784" id="Fill-1103" fill="#020210" mask="url(#mask-2)"></path>
            <path d="M1186.7336,228.1644 L1174.4196,228.1644 C1172.7176,228.1644 1171.3416,226.7854 1171.3416,225.0864 C1171.3416,223.3864 1172.7176,222.0074 1174.4196,222.0074 L1186.7336,222.0074 C1188.4346,222.0074 1189.8116,223.3864 1189.8116,225.0864 C1189.8116,226.7854 1188.4346,228.1644 1186.7336,228.1644" id="Fill-1104" fill="#020210" mask="url(#mask-2)"></path>
            <path d="M1248.3036,264.7441 C1246.6026,264.7441 1245.2256,263.3661 1245.2256,261.6661 L1245.2256,213.1341 C1245.2256,211.4341 1246.6026,210.0561 1248.3036,210.0561 C1250.0056,210.0561 1251.3816,211.4341 1251.3816,213.1341 L1251.3816,261.6661 C1251.3816,263.3661 1250.0056,264.7441 1248.3036,264.7441" id="Fill-1105" fill="#020210" mask="url(#mask-2)"></path>
            <path d="M1260.6177,265.1064 C1258.9157,265.1064 1257.5387,263.7274 1257.5387,262.0284 L1257.5387,225.0864 C1257.5387,223.3864 1258.9157,222.0074 1260.6177,222.0074 C1262.3187,222.0074 1263.6957,223.3864 1263.6957,225.0864 L1263.6957,262.0284 C1263.6957,263.7274 1262.3187,265.1064 1260.6177,265.1064" id="Fill-1106" fill="#020210" mask="url(#mask-2)"></path>
            <path d="M1272.9316,203.5364 L1235.9896,203.5364 C1234.2876,203.5364 1232.9106,202.1574 1232.9106,200.4584 C1232.9106,198.7584 1234.2876,197.3794 1235.9896,197.3794 L1272.9316,197.3794 C1274.6326,197.3794 1276.0096,198.7584 1276.0096,200.4584 C1276.0096,202.1574 1274.6326,203.5364 1272.9316,203.5364" id="Fill-1107" fill="#020210" mask="url(#mask-2)"></path>
            <path d="M1272.9316,338.9904 L1235.9896,338.9904 C1234.2876,338.9904 1232.9106,337.6114 1232.9106,335.9124 C1232.9106,334.2124 1234.2876,332.8334 1235.9896,332.8334 L1272.9316,332.8334 C1274.6326,332.8334 1276.0096,334.2124 1276.0096,335.9124 C1276.0096,337.6114 1274.6326,338.9904 1272.9316,338.9904" id="Fill-1108" fill="#020210" mask="url(#mask-2)"></path>
            <path d="M1248.3036,308.2054 C1246.6026,308.2054 1245.2256,306.8264 1245.2256,305.1274 L1245.2256,287.3804 C1245.2256,285.6804 1246.6026,284.3024 1248.3036,284.3024 C1250.0056,284.3024 1251.3816,285.6804 1251.3816,287.3804 L1251.3816,305.1274 C1251.3816,306.8264 1250.0056,308.2054 1248.3036,308.2054" id="Fill-1109" fill="#020210" mask="url(#mask-2)"></path>
            <path d="M1248.3036,326.6764 C1246.6026,326.6764 1245.2256,325.2974 1245.2256,323.5984 L1245.2256,317.4404 C1245.2256,315.7414 1246.6026,314.3624 1248.3036,314.3624 C1250.0056,314.3624 1251.3816,315.7414 1251.3816,317.4404 L1251.3816,323.5984 C1251.3816,325.2974 1250.0056,326.6764 1248.3036,326.6764" id="Fill-1110" fill="#020210" mask="url(#mask-2)"></path>
            <path d="M1325.266,357.461 L1343.737,357.461 L1343.737,178.908 L1325.266,178.908 L1325.266,357.461 Z M1346.816,363.618 L1322.188,363.618 C1320.486,363.618 1319.109,362.24 1319.109,360.54 L1319.109,175.83 C1319.109,174.13 1320.486,172.751 1322.188,172.751 L1346.816,172.751 C1348.517,172.751 1349.894,174.13 1349.894,175.83 L1349.894,360.54 C1349.894,362.24 1348.517,363.618 1346.816,363.618 L1346.816,363.618 Z" id="Fill-1111" fill="#020210" mask="url(#mask-2)"></path>
            <path d="M1346.8156,338.9904 L1322.1876,338.9904 C1320.4866,338.9904 1319.1096,337.6114 1319.1096,335.9124 C1319.1096,334.2124 1320.4866,332.8334 1322.1876,332.8334 L1346.8156,332.8334 C1348.5176,332.8334 1349.8936,334.2124 1349.8936,335.9124 C1349.8936,337.6114 1348.5176,338.9904 1346.8156,338.9904" id="Fill-1112" fill="#020210" mask="url(#mask-2)"></path>
            <path d="M1346.8156,203.5364 L1322.1876,203.5364 C1320.4866,203.5364 1319.1096,202.1574 1319.1096,200.4584 C1319.1096,198.7584 1320.4866,197.3794 1322.1876,197.3794 L1346.8156,197.3794 C1348.5176,197.3794 1349.8936,198.7584 1349.8936,200.4584 C1349.8936,202.1574 1348.5176,203.5364 1346.8156,203.5364" id="Fill-1113" fill="#020210" mask="url(#mask-2)"></path>
            <path d="M1334.5016,324.683 C1332.7996,324.683 1331.4236,323.305 1331.4236,321.605 L1331.4236,311.284 C1331.4236,309.584 1332.7996,308.205 1334.5016,308.205 C1336.2026,308.205 1337.5796,309.584 1337.5796,311.284 L1337.5796,321.605 C1337.5796,323.305 1336.2026,324.683 1334.5016,324.683" id="Fill-1114" fill="#020210" mask="url(#mask-2)"></path>
            <path d="M1334.5016,302.0484 C1332.7996,302.0484 1331.4236,300.6694 1331.4236,298.9704 L1331.4236,275.0664 C1331.4236,273.3664 1332.7996,271.9884 1334.5016,271.9884 C1336.2026,271.9884 1337.5796,273.3664 1337.5796,275.0664 L1337.5796,298.9704 C1337.5796,300.6694 1336.2026,302.0484 1334.5016,302.0484" id="Fill-1115" fill="#020210" mask="url(#mask-2)"></path>
            <path d="M1346.8156,240.4784 L1325.2666,240.4784 C1323.5646,240.4784 1322.1876,239.0994 1322.1876,237.4004 C1322.1876,235.7004 1323.5646,234.3214 1325.2666,234.3214 L1346.8156,234.3214 C1348.5176,234.3214 1349.8936,235.7004 1349.8936,237.4004 C1349.8936,239.0994 1348.5176,240.4784 1346.8156,240.4784" id="Fill-1116" fill="#020210" mask="url(#mask-2)"></path>
            <path d="M1334.5016,228.1644 C1332.7996,228.1644 1331.4236,226.7854 1331.4236,225.0864 L1331.4236,213.1344 C1331.4236,211.4344 1332.7996,210.0554 1334.5016,210.0554 C1336.2026,210.0554 1337.5796,211.4344 1337.5796,213.1344 L1337.5796,225.0864 C1337.5796,226.7854 1336.2026,228.1644 1334.5016,228.1644" id="Fill-1117" fill="#020210" mask="url(#mask-2)"></path>
            <path d="M1202.126,357.461 L1220.597,357.461 L1220.597,178.908 L1202.126,178.908 L1202.126,357.461 Z M1223.676,363.618 L1199.048,363.618 C1197.346,363.618 1195.969,362.24 1195.969,360.54 L1195.969,175.83 C1195.969,174.13 1197.346,172.751 1199.048,172.751 L1223.676,172.751 C1225.377,172.751 1226.754,174.13 1226.754,175.83 L1226.754,360.54 C1226.754,362.24 1225.377,363.618 1223.676,363.618 L1223.676,363.618 Z" id="Fill-1118" fill="#020210" mask="url(#mask-2)"></path>
            <path d="M1223.6757,351.3044 L1199.0477,351.3044 C1197.3467,351.3044 1195.9687,349.9254 1195.9687,348.2264 C1195.9687,346.5264 1197.3467,345.1474 1199.0477,345.1474 L1223.6757,345.1474 C1225.3767,345.1474 1226.7537,346.5264 1226.7537,348.2264 C1226.7537,349.9254 1225.3767,351.3044 1223.6757,351.3044" id="Fill-1119" fill="#020210" mask="url(#mask-2)"></path>
            <path d="M1223.6757,191.2224 L1199.0477,191.2224 C1197.3467,191.2224 1195.9687,189.8434 1195.9687,188.1444 C1195.9687,186.4444 1197.3467,185.0654 1199.0477,185.0654 L1223.6757,185.0654 C1225.3767,185.0654 1226.7537,186.4444 1226.7537,188.1444 C1226.7537,189.8434 1225.3767,191.2224 1223.6757,191.2224" id="Fill-1120" fill="#020210" mask="url(#mask-2)"></path>
            <path d="M1362.208,357.461 L1380.679,357.461 L1380.679,178.908 L1362.208,178.908 L1362.208,357.461 Z M1383.758,363.618 L1359.13,363.618 C1357.428,363.618 1356.051,362.24 1356.051,360.54 L1356.051,175.83 C1356.051,174.13 1357.428,172.751 1359.13,172.751 L1383.758,172.751 C1385.459,172.751 1386.836,174.13 1386.836,175.83 L1386.836,360.54 C1386.836,362.24 1385.459,363.618 1383.758,363.618 L1383.758,363.618 Z" id="Fill-1121" fill="#020210" mask="url(#mask-2)"></path>
            <path d="M1371.4436,351.6652 C1369.7416,351.6652 1368.3656,350.2862 1368.3656,348.5872 L1368.3656,311.2842 C1368.3656,309.5842 1369.7416,308.2052 1371.4436,308.2052 C1373.1446,308.2052 1374.5216,309.5842 1374.5216,311.2842 L1374.5216,348.5872 C1374.5216,350.2862 1373.1446,351.6652 1371.4436,351.6652" id="Fill-1122" fill="#020210" mask="url(#mask-2)"></path>
            <path d="M1371.4436,267.2786 C1369.7416,267.2786 1368.3656,265.8996 1368.3656,264.2006 L1368.3656,191.9926 C1368.3656,190.2926 1369.7416,188.9136 1371.4436,188.9136 C1373.1446,188.9136 1374.5216,190.2926 1374.5216,191.9926 L1374.5216,264.2006 C1374.5216,265.8996 1373.1446,267.2786 1371.4436,267.2786" id="Fill-1123" fill="#020210" mask="url(#mask-2)"></path>
            <path d="M1359.1295,191.2224 L1346.8155,191.2224 C1345.1135,191.2224 1343.7375,189.8434 1343.7375,188.1444 C1343.7375,186.4444 1345.1135,185.0654 1346.8155,185.0654 L1359.1295,185.0654 C1360.8315,185.0654 1362.2085,186.4444 1362.2085,188.1444 C1362.2085,189.8434 1360.8315,191.2224 1359.1295,191.2224" id="Fill-1124" fill="#020210" mask="url(#mask-2)"></path>
            <path d="M1396.0715,203.5364 L1383.7575,203.5364 C1382.0555,203.5364 1380.6795,202.1574 1380.6795,200.4584 C1380.6795,198.7584 1382.0555,197.3794 1383.7575,197.3794 L1396.0715,197.3794 C1397.7735,197.3794 1399.1495,198.7584 1399.1495,200.4584 C1399.1495,202.1574 1397.7735,203.5364 1396.0715,203.5364" id="Fill-1125" fill="#020210" mask="url(#mask-2)"></path>
            <path d="M1433.0135,215.8504 L1408.3855,215.8504 C1406.6845,215.8504 1405.3065,214.4714 1405.3065,212.7724 C1405.3065,211.0724 1406.6845,209.6934 1408.3855,209.6934 L1433.0135,209.6934 C1434.7145,209.6934 1436.0915,211.0724 1436.0915,212.7724 C1436.0915,214.4714 1434.7145,215.8504 1433.0135,215.8504" id="Fill-1126" fill="#020210" mask="url(#mask-2)"></path>
            <path d="M1433.0135,363.6183 C1431.3115,363.6183 1429.9355,362.2393 1429.9355,360.5403 L1429.9355,212.7723 C1429.9355,211.0723 1431.3115,209.6933 1433.0135,209.6933 C1434.7145,209.6933 1436.0915,211.0723 1436.0915,212.7723 L1436.0915,360.5403 C1436.0915,362.2393 1434.7145,363.6183 1433.0135,363.6183" id="Fill-1127" fill="#020210" mask="url(#mask-2)"></path>
            <path d="M1112.8497,363.6183 C1111.1477,363.6183 1109.7717,362.2393 1109.7717,360.5403 L1109.7717,225.0863 C1109.7717,223.3863 1111.1477,222.0073 1112.8497,222.0073 C1114.5507,222.0073 1115.9277,223.3863 1115.9277,225.0863 L1115.9277,360.5403 C1115.9277,362.2393 1114.5507,363.6183 1112.8497,363.6183" id="Fill-1128" fill="#020210" mask="url(#mask-2)"></path>
            <path d="M1137.4777,228.1644 L1112.8497,228.1644 C1111.1487,228.1644 1109.7717,226.7854 1109.7717,225.0864 C1109.7717,223.3864 1111.1487,222.0074 1112.8497,222.0074 L1137.4777,222.0074 C1139.1797,222.0074 1140.5557,223.3864 1140.5557,225.0864 C1140.5557,226.7854 1139.1797,228.1644 1137.4777,228.1644" id="Fill-1129" fill="#020210" mask="url(#mask-2)"></path>
            <path d="M1140.556,357.461 L1146.713,357.461 L1146.713,203.536 L1140.556,203.536 L1140.556,357.461 Z M1149.792,363.618 L1137.478,363.618 C1135.776,363.618 1134.399,362.24 1134.399,360.54 L1134.399,200.458 C1134.399,198.758 1135.776,197.379 1137.478,197.379 L1149.792,197.379 C1151.493,197.379 1152.87,198.758 1152.87,200.458 L1152.87,360.54 C1152.87,362.24 1151.493,363.618 1149.792,363.618 L1149.792,363.618 Z" id="Fill-1130" fill="#020210" mask="url(#mask-2)"></path>
            <path d="M1162.1057,215.8504 L1149.7917,215.8504 C1148.0897,215.8504 1146.7127,214.4714 1146.7127,212.7724 C1146.7127,211.0724 1148.0897,209.6934 1149.7917,209.6934 L1162.1057,209.6934 C1163.8067,209.6934 1165.1837,211.0724 1165.1837,212.7724 C1165.1837,214.4714 1163.8067,215.8504 1162.1057,215.8504" id="Fill-1131" fill="#020210" mask="url(#mask-2)"></path>
            <path d="M848.3414,286.2513 C848.3414,326.8893 815.3994,359.8313 774.7614,359.8313 C734.1244,359.8313 701.1814,326.8893 701.1814,286.2513 C701.1814,245.6133 734.1244,212.6713 774.7614,212.6713 C815.3994,212.6713 848.3414,245.6133 848.3414,286.2513" id="Fill-1132" fill="#FFFFFF" mask="url(#mask-2)"></path>
            <path d="M774.7615,216.0159 C736.0325,216.0159 704.5265,247.5229 704.5265,286.2509 C704.5265,324.9799 736.0325,356.4869 774.7615,356.4869 C813.4895,356.4869 844.9965,324.9799 844.9965,286.2509 C844.9965,247.5229 813.4895,216.0159 774.7615,216.0159 M774.7615,363.1759 C732.3455,363.1759 697.8375,328.6669 697.8375,286.2509 C697.8375,243.8359 732.3455,209.3269 774.7615,209.3269 C817.1775,209.3269 851.6855,243.8359 851.6855,286.2509 C851.6855,328.6669 817.1775,363.1759 774.7615,363.1759" id="Fill-1133" fill="#020210" mask="url(#mask-2)"></path>
            <path d="M775.3983,229.3974 L775.3723,229.3974 L774.7613,229.3944 C772.9143,229.3944 771.3283,227.8984 771.3283,226.0494 C771.3283,224.2024 772.7363,222.7064 774.5833,222.7064 L774.5833,226.0514 L774.6683,222.7064 L775.4243,222.7084 C777.2713,222.7234 778.7573,224.2314 778.7433,226.0794 C778.7283,227.9164 777.2343,229.3974 775.3983,229.3974 M751.5733,234.0244 C750.2653,234.0244 749.0223,233.2514 748.4873,231.9674 C747.7733,230.2644 748.5763,228.3044 750.2813,227.5924 L751.0923,227.2614 C752.8013,226.5784 754.7533,227.4214 755.4323,229.1394 C756.1133,230.8554 755.2723,232.8004 753.5543,233.4804 L752.8613,233.7624 C752.4403,233.9394 752.0033,234.0244 751.5733,234.0244 M798.3773,234.2054 C797.9343,234.2054 797.4853,234.1164 797.0543,233.9294 L796.3603,233.6404 C794.6513,232.9394 793.8313,230.9864 794.5293,229.2784 C795.2283,227.5704 797.1903,226.7564 798.8913,227.4474 L799.7033,227.7884 C801.4003,228.5204 802.1823,230.4884 801.4493,232.1834 C800.9053,233.4474 799.6723,234.2054 798.3773,234.2054 M732.0913,247.1274 C731.2403,247.1274 730.3873,246.8044 729.7363,246.1574 C728.4243,244.8574 728.4153,242.7394 729.7163,241.4284 L730.3243,240.8244 C731.6403,239.5274 733.7563,239.5454 735.0533,240.8634 C736.3483,242.1814 736.3303,244.2974 735.0143,245.5924 L734.4653,246.1374 C733.8123,246.7974 732.9513,247.1274 732.0913,247.1274 M817.7623,247.4624 C816.8963,247.4624 816.0323,247.1294 815.3773,246.4634 L814.8323,245.9144 C813.5213,244.6144 813.5113,242.4964 814.8123,241.1854 C816.1113,239.8714 818.2293,239.8624 819.5423,241.1654 L820.1463,241.7724 C821.4413,243.0904 821.4233,245.2074 820.1073,246.5024 C819.4553,247.1424 818.6083,247.4624 817.7623,247.4624 M719.0753,266.6754 C718.6473,266.6754 718.2133,266.5924 717.7933,266.4174 C716.0883,265.7084 715.2803,263.7524 715.9883,262.0454 L716.3153,261.2684 C717.0373,259.5704 718.9953,258.7774 720.7013,259.4984 C722.4013,260.2204 723.1933,262.1844 722.4723,263.8844 L722.1653,264.6134 C721.6313,265.8984 720.3863,266.6754 719.0753,266.6754 M830.6213,267.1034 C829.2963,267.1034 828.0423,266.3094 827.5163,265.0064 L827.2253,264.2964 C826.5123,262.5934 827.3153,260.6334 829.0203,259.9214 C830.7253,259.2104 832.6853,260.0124 833.3953,261.7164 L833.7223,262.5084 C834.4113,264.2214 833.5813,266.1694 831.8683,266.8604 C831.4583,267.0254 831.0353,267.1034 830.6213,267.1034 M714.5593,289.6544 C712.7133,289.6544 711.2153,288.2174 711.2153,286.3704 L711.2183,285.5324 C711.2313,283.6924 712.7263,282.2114 714.5633,282.2114 L714.5853,282.2114 C716.4333,282.2244 717.9203,283.7314 717.9073,285.5784 L717.9043,286.2514 C717.9043,288.0984 716.4063,289.6544 714.5593,289.6544 M834.9583,290.4104 L834.9173,290.4104 C833.0703,290.3874 831.5923,288.8724 831.6133,287.0254 L831.6183,286.2514 C831.6183,284.4044 833.1163,282.7894 834.9633,282.7894 C836.8103,282.7894 838.3073,284.1674 838.3073,286.0144 L838.3023,287.1074 C838.2803,288.9394 836.7873,290.4104 834.9583,290.4104 M719.1663,312.7334 C717.8583,312.7334 716.6153,311.9604 716.0803,310.6774 L715.7483,309.8674 C715.0673,308.1514 715.9083,306.2054 717.6263,305.5264 C719.3413,304.8454 721.2883,305.6884 721.9673,307.4044 L722.2503,308.0964 C722.9633,309.8004 722.1603,311.7604 720.4553,312.4714 C720.0333,312.6484 719.5963,312.7334 719.1663,312.7334 M830.0803,313.3834 C829.6373,313.3834 829.1883,313.2954 828.7573,313.1094 C827.0603,312.3754 826.2783,310.4074 827.0123,308.7124 L827.3123,308.0004 C828.0193,306.2974 829.9773,305.4844 831.6843,306.1964 C833.3893,306.9044 834.1973,308.8614 833.4883,310.5674 L833.1523,311.3614 C832.6083,312.6254 831.3753,313.3834 830.0803,313.3834 M732.2513,332.2244 C731.4003,332.2244 730.5473,331.9004 729.8953,331.2544 L729.2823,330.6364 C727.9933,329.3144 728.0213,327.1954 729.3423,325.9054 C730.6703,324.6174 732.7803,324.6484 734.0733,325.9664 L734.6063,326.5044 C735.9173,327.8044 735.9273,329.9234 734.6253,331.2344 C733.9723,331.8944 733.1113,332.2244 732.2513,332.2244 M816.7693,332.7204 C815.8983,332.7204 815.0293,332.3824 814.3733,331.7114 C813.0853,330.3884 813.1123,328.2704 814.4333,326.9804 L814.9843,326.4384 C816.2903,325.1314 818.4073,325.1314 819.7133,326.4384 C821.0203,327.7444 821.0203,329.8614 819.7133,331.1674 L819.1043,331.7714 C818.4533,332.4054 817.6103,332.7204 816.7693,332.7204 M751.7823,345.2594 C751.3543,345.2594 750.9203,345.1764 750.5003,345.0014 L749.7233,344.6744 C748.0233,343.9524 747.2313,341.9884 747.9533,340.2884 C748.6743,338.5894 750.6363,337.7964 752.3393,338.5174 L753.0673,338.8244 C754.7723,339.5334 755.5813,341.4904 754.8723,343.1964 C754.3383,344.4814 753.0943,345.2594 751.7823,345.2594 M797.0893,345.5244 C795.7553,345.5244 794.4943,344.7184 793.9743,343.4024 C793.2983,341.6824 794.1423,339.7414 795.8623,339.0654 L796.5503,338.7854 C798.2533,338.0774 800.2133,338.8754 800.9253,340.5804 C801.6383,342.2834 800.8353,344.2434 799.1303,344.9554 L798.3123,345.2904 C797.9103,345.4484 797.4953,345.5244 797.0893,345.5244 M774.8203,349.7974 L773.9633,349.7924 C772.1163,349.7684 770.6383,348.2514 770.6623,346.4044 C770.6873,344.5574 772.0983,343.0664 774.0513,343.1034 L774.7613,343.1084 C776.6083,343.1084 778.1353,344.6064 778.1353,346.4534 C778.1353,348.2994 776.6673,349.7974 774.8203,349.7974" id="Fill-1134" fill="#020210" mask="url(#mask-2)"></path>
            <path d="M774.7615,289.5958 C772.9145,289.5958 771.4165,288.0978 771.4165,286.2508 L771.4165,239.4278 C771.4165,237.5808 772.9145,236.0828 774.7615,236.0828 C776.6085,236.0828 778.1055,237.5808 778.1055,239.4278 L778.1055,286.2508 C778.1055,288.0978 776.6085,289.5958 774.7615,289.5958" id="Fill-1135" fill="#020210" mask="url(#mask-2)"></path>
            <path d="M774.7632,289.5975 C773.4352,289.5975 772.1792,288.8005 771.6552,287.4945 L758.2772,254.0485 C757.5912,252.3325 758.4262,250.3875 760.1402,249.6995 C761.8622,249.0185 763.8022,249.8505 764.4892,251.5635 L777.8672,285.0085 C778.5532,286.7245 777.7192,288.6695 776.0042,289.3575 C775.5962,289.5195 775.1762,289.5975 774.7632,289.5975" id="Fill-1136" fill="#020210" mask="url(#mask-2)"></path>
            <path d="M827.2953,896.9242 L691.3493,896.9242 C689.5033,896.9242 688.0053,895.4282 688.0053,893.5792 C688.0053,891.7312 689.5033,890.2352 691.3493,890.2352 L827.2953,890.2352 C829.1423,890.2352 830.6403,891.7312 830.6403,893.5792 C830.6403,895.4282 829.1423,896.9242 827.2953,896.9242" id="Fill-1137" fill="#020210" mask="url(#mask-2)"></path>
            <path d="M851.8877,910.3024 L730.9177,910.3024 C729.0707,910.3024 727.5727,908.8064 727.5727,906.9574 C727.5727,905.1094 729.0707,903.6134 730.9177,903.6134 L851.8877,903.6134 C853.7347,903.6134 855.2327,905.1094 855.2327,906.9574 C855.2327,908.8064 853.7347,910.3024 851.8877,910.3024" id="Fill-1138" fill="#020210" mask="url(#mask-2)"></path>
            <path d="M871.955,910.3024 L865.266,910.3024 C863.419,910.3024 861.921,908.8064 861.921,906.9574 C861.921,905.1094 863.419,903.6134 865.266,903.6134 L871.955,903.6134 C873.802,903.6134 875.3,905.1094 875.3,906.9574 C875.3,908.8064 873.802,910.3024 871.955,910.3024" id="Fill-1139" fill="#020210" mask="url(#mask-2)"></path>
            <path d="M1584.3423,883.5461 L1420.4603,883.5461 C1418.6113,883.5461 1417.1153,882.0501 1417.1153,880.2011 C1417.1153,878.3531 1418.6113,876.8571 1420.4603,876.8571 L1584.3423,876.8571 C1586.1913,876.8571 1587.6873,878.3531 1587.6873,880.2011 C1587.6873,882.0501 1586.1913,883.5461 1584.3423,883.5461" id="Fill-1140" fill="#020210" mask="url(#mask-2)"></path>
            <path d="M1485.6783,896.9242 L1380.3253,896.9242 C1378.4763,896.9242 1376.9803,895.4282 1376.9803,893.5792 C1376.9803,891.7312 1378.4763,890.2352 1380.3253,890.2352 L1485.6783,890.2352 C1487.5273,890.2352 1489.0233,891.7312 1489.0233,893.5792 C1489.0233,895.4282 1487.5273,896.9242 1485.6783,896.9242" id="Fill-1141" fill="#020210" mask="url(#mask-2)"></path>
            <path d="M1604.4095,883.5461 L1597.7205,883.5461 C1595.8715,883.5461 1594.3755,882.0501 1594.3755,880.2011 C1594.3755,878.3531 1595.8715,876.8571 1597.7205,876.8571 L1604.4095,876.8571 C1606.2585,876.8571 1607.7545,878.3531 1607.7545,880.2011 C1607.7545,882.0501 1606.2585,883.5461 1604.4095,883.5461" id="Fill-1142" fill="#020210" mask="url(#mask-2)"></path>
            <path d="M1684.6786,883.5461 L1617.7876,883.5461 C1615.9396,883.5461 1614.4436,882.0501 1614.4436,880.2011 C1614.4436,878.3531 1615.9396,876.8571 1617.7876,876.8571 L1684.6786,876.8571 C1686.5276,876.8571 1688.0226,878.3531 1688.0226,880.2011 C1688.0226,882.0501 1686.5276,883.5461 1684.6786,883.5461" id="Fill-1143" fill="#020210" mask="url(#mask-2)"></path>
            <path d="M1497.3843,145.1254 L1390.3593,145.1254 C1388.5103,145.1254 1387.0143,143.6274 1387.0143,141.7804 C1387.0143,139.9344 1388.5103,138.4364 1390.3593,138.4364 L1497.3843,138.4364 C1499.2333,138.4364 1500.7283,139.9344 1500.7283,141.7804 C1500.7283,143.6274 1499.2333,145.1254 1497.3843,145.1254" id="Fill-1144" fill="#020210" mask="url(#mask-2)"></path>
            <path d="M1524.1406,131.7472 L1470.6276,131.7472 C1468.7796,131.7472 1467.2836,130.2492 1467.2836,128.4022 C1467.2836,126.5562 1468.7796,125.0582 1470.6276,125.0582 L1524.1406,125.0582 C1525.9896,125.0582 1527.4846,126.5562 1527.4846,128.4022 C1527.4846,130.2492 1525.9896,131.7472 1524.1406,131.7472" id="Fill-1145" fill="#020210" mask="url(#mask-2)"></path>
            <path d="M1109.4174,174.5032 L1015.7684,174.5032 C1013.9214,174.5032 1012.4244,173.0052 1012.4244,171.1582 C1012.4244,169.3122 1013.9214,167.8142 1015.7684,167.8142 L1109.4174,167.8142 C1111.2664,167.8142 1112.7624,169.3122 1112.7624,171.1582 C1112.7624,173.0052 1111.2664,174.5032 1109.4174,174.5032" id="Fill-1146" fill="#020210" mask="url(#mask-2)"></path>
            <path d="M1028.5802,187.8814 L962.2562,187.8814 C960.4092,187.8814 958.9112,186.3834 958.9112,184.5364 C958.9112,182.6904 960.4092,181.1924 962.2562,181.1924 L1028.5802,181.1924 C1030.4272,181.1924 1031.9242,182.6904 1031.9242,184.5364 C1031.9242,186.3834 1030.4272,187.8814 1028.5802,187.8814" id="Fill-1147" fill="#020210" mask="url(#mask-2)"></path>
            <path d="M948.8777,187.8814 L942.1887,187.8814 C940.3417,187.8814 938.8437,186.3834 938.8437,184.5364 C938.8437,182.6904 940.3417,181.1924 942.1887,181.1924 L948.8777,181.1924 C950.7247,181.1924 952.2227,182.6904 952.2227,184.5364 C952.2227,186.3834 950.7247,187.8814 948.8777,187.8814" id="Fill-1148" fill="#020210" mask="url(#mask-2)"></path>
            <path d="M928.8105,187.8814 L881.9865,187.8814 C880.1405,187.8814 878.6425,186.3834 878.6425,184.5364 C878.6425,182.6904 880.1405,181.1924 881.9865,181.1924 L928.8105,181.1924 C930.6575,181.1924 932.1555,182.6904 932.1555,184.5364 C932.1555,186.3834 930.6575,187.8814 928.8105,187.8814" id="Fill-1149" fill="#020210" mask="url(#mask-2)"></path>
            <path d="M1564.275,549.0919 L1510.762,549.0919 C1508.914,549.0919 1507.418,547.5939 1507.418,545.7469 C1507.418,543.9009 1508.914,542.4029 1510.762,542.4029 L1564.275,542.4029 C1566.124,542.4029 1567.62,543.9009 1567.62,545.7469 C1567.62,547.5939 1566.124,549.0919 1564.275,549.0919" id="Fill-1150" fill="#020210" mask="url(#mask-2)"></path>
            <path d="M1577.6532,562.4701 L1537.5192,562.4701 C1535.6702,562.4701 1534.1742,560.9741 1534.1742,559.1251 C1534.1742,557.2771 1535.6702,555.7811 1537.5192,555.7811 L1577.6532,555.7811 C1579.5022,555.7811 1580.9982,557.2771 1580.9982,559.1251 C1580.9982,560.9741 1579.5022,562.4701 1577.6532,562.4701" id="Fill-1151" fill="#020210" mask="url(#mask-2)"></path>
            <path d="M440.5091,883.5461 L373.6181,883.5461 C371.7711,883.5461 370.2741,882.0501 370.2741,880.2011 C370.2741,878.3531 371.7711,876.8571 373.6181,876.8571 L440.5091,876.8571 C442.3561,876.8571 443.8541,878.3531 443.8541,880.2011 C443.8541,882.0501 442.3561,883.5461 440.5091,883.5461" id="Fill-1152" fill="#020210" mask="url(#mask-2)"></path>
            <path d="M1597.7205,562.4701 L1591.0315,562.4701 C1589.1825,562.4701 1587.6865,560.9741 1587.6865,559.1251 C1587.6865,557.2771 1589.1825,555.7811 1591.0315,555.7811 L1597.7205,555.7811 C1599.5695,555.7811 1601.0655,557.2771 1601.0655,559.1251 C1601.0655,560.9741 1599.5695,562.4701 1597.7205,562.4701" id="Fill-1153" fill="#020210" mask="url(#mask-2)"></path>
            <path d="M324.3462,789.8988 C322.5022,789.8988 321.0012,791.3978 321.0012,793.2438 C321.0012,795.0888 322.5022,796.5878 324.3462,796.5878 C326.1902,796.5878 327.6912,795.0888 327.6912,793.2438 C327.6912,791.3978 326.1902,789.8988 324.3462,789.8988 M324.3462,803.2768 C318.8132,803.2768 314.3122,798.7758 314.3122,793.2438 C314.3122,787.7108 318.8132,783.2098 324.3462,783.2098 C329.8792,783.2098 334.3802,787.7108 334.3802,793.2438 C334.3802,798.7758 329.8792,803.2768 324.3462,803.2768" id="Fill-1154" fill="#020210" mask="url(#mask-2)"></path>
            <path d="M1571.1659,359.176 C1565.6329,359.176 1561.1319,363.677 1561.1319,369.21 C1561.1319,374.742 1565.6329,379.243 1571.1659,379.243 C1576.6989,379.243 1581.1999,374.742 1581.1999,369.21 C1581.1999,363.677 1576.6989,359.176 1571.1659,359.176 M1571.1659,385.932 C1561.9459,385.932 1554.4429,378.43 1554.4429,369.21 C1554.4429,359.989 1561.9459,352.487 1571.1659,352.487 C1580.3859,352.487 1587.8889,359.989 1587.8889,369.21 C1587.8889,378.43 1580.3859,385.932 1571.1659,385.932" id="Fill-1155" fill="#020210" mask="url(#mask-2)"></path>
            <path d="M1570.9641,776.5207 C1569.1191,776.5207 1567.6201,778.0197 1567.6201,779.8657 C1567.6201,781.7107 1569.1191,783.2097 1570.9641,783.2097 C1572.8101,783.2097 1574.3091,781.7107 1574.3091,779.8657 C1574.3091,778.0197 1572.8101,776.5207 1570.9641,776.5207 M1570.9641,789.8987 C1565.4311,789.8987 1560.9301,785.3977 1560.9301,779.8657 C1560.9301,774.3327 1565.4311,769.8317 1570.9641,769.8317 C1576.4971,769.8317 1580.9981,774.3327 1580.9981,779.8657 C1580.9981,785.3977 1576.4971,789.8987 1570.9641,789.8987" id="Fill-1156" fill="#020210" mask="url(#mask-2)"></path>
            <path d="M594.358,228.0159 C592.514,228.0159 591.013,229.5169 591.013,231.3609 C591.013,233.2039 592.514,234.7049 594.358,234.7049 C596.202,234.7049 597.703,233.2039 597.703,231.3609 C597.703,229.5169 596.202,228.0159 594.358,228.0159 M594.358,241.3939 C588.825,241.3939 584.324,236.8929 584.324,231.3609 C584.324,225.8279 588.825,221.3269 594.358,221.3269 C599.891,221.3269 604.392,225.8279 604.392,231.3609 C604.392,236.8929 599.891,241.3939 594.358,241.3939" id="Fill-1157" fill="#020210" mask="url(#mask-2)"></path>
            <path d="M494.0218,896.9242 C493.1658,896.9242 492.3108,896.5972 491.6568,895.9442 C490.3508,894.6382 490.3508,892.5212 491.6568,891.2152 L505.0358,877.8372 C506.3418,876.5302 508.4578,876.5302 509.7648,877.8372 C511.0708,879.1432 511.0708,881.2602 509.7648,882.5662 L496.3868,895.9442 C495.7328,896.5972 494.8778,896.9242 494.0218,896.9242" id="Fill-1158" fill="#020210" mask="url(#mask-2)"></path>
            <path d="M507.3999,896.9242 C506.5439,896.9242 505.6889,896.5972 505.0349,895.9442 L491.6569,882.5662 C490.3509,881.2602 490.3509,879.1432 491.6569,877.8372 C492.9639,876.5302 495.0799,876.5302 496.3859,877.8372 L509.7649,891.2152 C511.0709,892.5212 511.0709,894.6382 509.7649,895.9442 C509.1109,896.5972 508.2559,896.9242 507.3999,896.9242" id="Fill-1159" fill="#020210" mask="url(#mask-2)"></path>
            <path d="M1657.9222,830.0334 C1656.0732,830.0334 1654.5782,828.5374 1654.5782,826.6884 L1654.5782,813.3104 C1654.5782,811.4624 1656.0732,809.9664 1657.9222,809.9664 C1659.7712,809.9664 1661.2672,811.4624 1661.2672,813.3104 L1661.2672,826.6884 C1661.2672,828.5374 1659.7712,830.0334 1657.9222,830.0334" id="Fill-1160" fill="#020210" mask="url(#mask-2)"></path>
            <path d="M1664.6113,823.3443 L1651.2333,823.3443 C1649.3843,823.3443 1647.8883,821.8483 1647.8883,819.9993 C1647.8883,818.1513 1649.3843,816.6553 1651.2333,816.6553 L1664.6113,816.6553 C1666.4603,816.6553 1667.9553,818.1513 1667.9553,819.9993 C1667.9553,821.8483 1666.4603,823.3443 1664.6113,823.3443" id="Fill-1161" fill="#020210" mask="url(#mask-2)"></path>
            <path d="M1149.5519,151.8145 C1147.7029,151.8145 1146.2079,150.3165 1146.2079,148.4695 L1146.2079,135.0915 C1146.2079,133.2445 1147.7029,131.7475 1149.5519,131.7475 C1151.4009,131.7475 1152.8969,133.2445 1152.8969,135.0915 L1152.8969,148.4695 C1152.8969,150.3165 1151.4009,151.8145 1149.5519,151.8145" id="Fill-1162" fill="#020210" mask="url(#mask-2)"></path>
            <path d="M1156.241,145.1254 L1142.863,145.1254 C1141.014,145.1254 1139.518,143.6274 1139.518,141.7804 C1139.518,139.9344 1141.014,138.4364 1142.863,138.4364 L1156.241,138.4364 C1158.09,138.4364 1159.586,139.9344 1159.586,141.7804 C1159.586,143.6274 1158.09,145.1254 1156.241,145.1254" id="Fill-1163" fill="#020210" mask="url(#mask-2)"></path>
            <path d="M861.9213,990.5714 C860.0743,990.5714 858.5763,989.0754 858.5763,987.2264 L858.5763,973.8484 C858.5763,972.0004 860.0743,970.5044 861.9213,970.5044 C863.7683,970.5044 865.2663,972.0004 865.2663,973.8484 L865.2663,987.2264 C865.2663,989.0754 863.7683,990.5714 861.9213,990.5714" id="Fill-1164" fill="#020210" mask="url(#mask-2)"></path>
            <path d="M868.6104,983.8823 L855.2324,983.8823 C853.3854,983.8823 851.8874,982.3863 851.8874,980.5373 C851.8874,978.6893 853.3854,977.1933 855.2324,977.1933 L868.6104,977.1933 C870.4574,977.1933 871.9554,978.6893 871.9554,980.5373 C871.9554,982.3863 870.4574,983.8823 868.6104,983.8823" id="Fill-1165" fill="#020210" mask="url(#mask-2)"></path>
            <path d="M641.1816,696.2517 C639.3346,696.2517 637.8366,694.7557 637.8366,692.9067 L637.8366,679.5287 C637.8366,677.6807 639.3346,676.1847 641.1816,676.1847 C643.0286,676.1847 644.5266,677.6807 644.5266,679.5287 L644.5266,692.9067 C644.5266,694.7557 643.0286,696.2517 641.1816,696.2517" id="Fill-1166" fill="#020210" mask="url(#mask-2)"></path>
            <path d="M647.8707,689.5627 L634.4927,689.5627 C632.6457,689.5627 631.1477,688.0667 631.1477,686.2177 C631.1477,684.3697 632.6457,682.8737 634.4927,682.8737 L647.8707,682.8737 C649.7177,682.8737 651.2157,684.3697 651.2157,686.2177 C651.2157,688.0667 649.7177,689.5627 647.8707,689.5627" id="Fill-1167" fill="#020210" mask="url(#mask-2)"></path>
            <path d="M1698.0568,656.1172 L1631.1658,656.1172 C1629.3178,656.1172 1627.8218,654.6212 1627.8218,652.7722 C1627.8218,650.9242 1629.3178,649.4282 1631.1658,649.4282 L1698.0568,649.4282 C1699.9058,649.4282 1701.4008,650.9242 1701.4008,652.7722 C1701.4008,654.6212 1699.9058,656.1172 1698.0568,656.1172" id="Fill-1168" fill="#020210" mask="url(#mask-2)"></path>
            <path d="M340.1729,555.781 C338.3259,555.781 336.8279,554.285 336.8279,552.436 L336.8279,539.058 C336.8279,537.211 338.3259,535.714 340.1729,535.714 C342.0199,535.714 343.5179,537.211 343.5179,539.058 L343.5179,552.436 C343.5179,554.285 342.0199,555.781 340.1729,555.781" id="Fill-1169" fill="#020210" mask="url(#mask-2)"></path>
            <path d="M346.8619,549.0919 L333.4839,549.0919 C331.6369,549.0919 330.1389,547.5939 330.1389,545.7469 C330.1389,543.9009 331.6369,542.4029 333.4839,542.4029 L346.8619,542.4029 C348.7089,542.4029 350.2069,543.9009 350.2069,545.7469 C350.2069,547.5939 348.7089,549.0919 346.8619,549.0919" id="Fill-1170" fill="#020210" mask="url(#mask-2)"></path>
            <path d="M1537.5188,682.8736 L1497.3838,682.8736 C1495.5358,682.8736 1494.0398,681.3776 1494.0398,679.5286 C1494.0398,677.6806 1495.5358,676.1846 1497.3838,676.1846 L1537.5188,676.1846 C1539.3668,676.1846 1540.8628,677.6806 1540.8628,679.5286 C1540.8628,681.3776 1539.3668,682.8736 1537.5188,682.8736" id="Fill-1171" fill="#020210" mask="url(#mask-2)"></path>
            <path d="M1356.9135,923.6806 C1355.0685,923.6806 1353.5695,925.1796 1353.5695,927.0256 C1353.5695,928.8706 1355.0685,930.3696 1356.9135,930.3696 C1358.7595,930.3696 1360.2585,928.8706 1360.2585,927.0256 C1360.2585,925.1796 1358.7595,923.6806 1356.9135,923.6806 M1356.9135,937.0586 C1351.3805,937.0586 1346.8795,932.5576 1346.8795,927.0256 C1346.8795,921.4926 1351.3805,916.9916 1356.9135,916.9916 C1362.4465,916.9916 1366.9475,921.4926 1366.9475,927.0256 C1366.9475,932.5576 1362.4465,937.0586 1356.9135,937.0586" id="Fill-1172" fill="#020210" mask="url(#mask-2)"></path>
            <path d="M821.7869,682.8736 C819.9429,682.8736 818.4419,684.3726 818.4419,686.2186 C818.4419,688.0636 819.9429,689.5626 821.7869,689.5626 C823.6309,689.5626 825.1319,688.0636 825.1319,686.2186 C825.1319,684.3726 823.6309,682.8736 821.7869,682.8736 M821.7869,696.2516 C816.2539,696.2516 811.7529,691.7506 811.7529,686.2186 C811.7529,680.6856 816.2539,676.1846 821.7869,676.1846 C827.3199,676.1846 831.8209,680.6856 831.8209,686.2186 C831.8209,691.7506 827.3199,696.2516 821.7869,696.2516" id="Fill-1173" fill="#020210" mask="url(#mask-2)"></path>
            <path d="M917.3627,253.4615 C916.5067,253.4615 915.6517,253.1355 914.9977,252.4815 L901.6197,239.1035 C900.3137,237.7975 900.3137,235.6805 901.6197,234.3745 C902.9267,233.0675 905.0427,233.0675 906.3487,234.3745 L919.7277,247.7525 C921.0337,249.0585 921.0337,251.1755 919.7277,252.4815 C919.0737,253.1355 918.2187,253.4615 917.3627,253.4615" id="Fill-1174" fill="#020210" mask="url(#mask-2)"></path>
            <path d="M903.9845,253.4615 C903.1285,253.4615 902.2735,253.1355 901.6195,252.4815 C900.3135,251.1755 900.3135,249.0585 901.6195,247.7525 L914.9985,234.3745 C916.3045,233.0675 918.4205,233.0675 919.7275,234.3745 C921.0335,235.6805 921.0335,237.7975 919.7275,239.1035 L906.3495,252.4815 C905.6955,253.1355 904.8405,253.4615 903.9845,253.4615" id="Fill-1175" fill="#020210" mask="url(#mask-2)"></path>
            <path d="M1443.8716,602.6046 C1443.0156,602.6046 1442.1606,602.2776 1441.5066,601.6246 L1428.1286,588.2466 C1426.8216,586.9406 1426.8216,584.8236 1428.1286,583.5176 C1429.4356,582.2106 1431.5516,582.2106 1432.8576,583.5176 L1446.2366,596.8956 C1447.5426,598.2016 1447.5426,600.3186 1446.2366,601.6246 C1445.5826,602.2776 1444.7276,602.6046 1443.8716,602.6046" id="Fill-1176" fill="#020210" mask="url(#mask-2)"></path>
            <path d="M1430.4934,602.6046 C1429.6374,602.6046 1428.7824,602.2776 1428.1284,601.6246 C1426.8224,600.3186 1426.8224,598.2016 1428.1284,596.8956 L1441.5074,583.5176 C1442.8134,582.2106 1444.9294,582.2106 1446.2364,583.5176 C1447.5424,584.8236 1447.5424,586.9406 1446.2364,588.2466 L1432.8584,601.6246 C1432.2044,602.2776 1431.3494,602.6046 1430.4934,602.6046" id="Fill-1177" fill="#020210" mask="url(#mask-2)"></path>
            <path d="M440.5091,896.9242 L427.1311,896.9242 C425.2841,896.9242 423.7861,895.4282 423.7861,893.5792 C423.7861,891.7312 425.2841,890.2352 427.1311,890.2352 L440.5091,890.2352 C442.3561,890.2352 443.8541,891.7312 443.8541,893.5792 C443.8541,895.4282 442.3561,896.9242 440.5091,896.9242" id="Fill-1178" fill="#020210" mask="url(#mask-2)"></path>
            <path d="M1644.5441,669.4954 L1617.7881,669.4954 C1615.9391,669.4954 1614.4431,667.9994 1614.4431,666.1504 C1614.4431,664.3024 1615.9391,662.8064 1617.7881,662.8064 L1644.5441,662.8064 C1646.3931,662.8064 1647.8891,664.3024 1647.8891,666.1504 C1647.8891,667.9994 1646.3931,669.4954 1644.5441,669.4954" id="Fill-1179" fill="#020210" mask="url(#mask-2)"></path>
            <path d="M1664.6113,669.4954 L1657.9223,669.4954 C1656.0733,669.4954 1654.5773,667.9994 1654.5773,666.1504 C1654.5773,664.3024 1656.0733,662.8064 1657.9223,662.8064 L1664.6113,662.8064 C1666.4603,662.8064 1667.9553,664.3024 1667.9553,666.1504 C1667.9553,667.9994 1666.4603,669.4954 1664.6113,669.4954" id="Fill-1180" fill="#020210" mask="url(#mask-2)"></path>
            <path d="M467.2654,415.3102 L440.5094,415.3102 C438.6624,415.3102 437.1644,413.8122 437.1644,411.9652 C437.1644,410.1192 438.6624,408.6212 440.5094,408.6212 L467.2654,408.6212 C469.1124,408.6212 470.6104,410.1192 470.6104,411.9652 C470.6104,413.8122 469.1124,415.3102 467.2654,415.3102" id="Fill-1181" fill="#020210" mask="url(#mask-2)"></path>
            <path d="M480.6436,428.6884 L467.2656,428.6884 C465.4186,428.6884 463.9206,427.1904 463.9206,425.3434 C463.9206,423.4974 465.4186,421.9994 467.2656,421.9994 L480.6436,421.9994 C482.4906,421.9994 483.9886,423.4974 483.9886,425.3434 C483.9886,427.1904 482.4906,428.6884 480.6436,428.6884" id="Fill-1182" fill="#020210" mask="url(#mask-2)"></path>
            <path d="M505.5089,388.9459 L494.0219,388.9459 C492.1749,388.9459 490.6769,387.4479 490.6769,385.6009 C490.6769,383.7539 492.1749,382.2569 494.0219,382.2569 L505.5089,382.2569 C507.3559,382.2569 508.8539,383.7539 508.8539,385.6009 C508.8539,387.4479 507.3559,388.9459 505.5089,388.9459" id="Fill-1183" fill="#020210" mask="url(#mask-2)"></path>
            <path d="M1617.788,853.445 L357.131,853.445 L357.131,813.311 L1617.788,813.311 L1617.788,853.445 Z" id="Fill-1184" fill="#A5ECDE" mask="url(#mask-2)"></path>
            <path d="M360.475,850.101 L1614.443,850.101 L1614.443,816.656 L360.475,816.656 L360.475,850.101 Z M1617.788,856.79 L357.131,856.79 C355.284,856.79 353.786,855.294 353.786,853.445 L353.786,813.311 C353.786,811.462 355.284,809.966 357.131,809.966 L1617.788,809.966 C1619.636,809.966 1621.132,811.462 1621.132,813.311 L1621.132,853.445 C1621.132,855.294 1619.636,856.79 1617.788,856.79 L1617.788,856.79 Z" id="Fill-1185" fill="#020210" mask="url(#mask-2)"></path>
            <path d="M1009.3032,310.0386 L942.4122,310.0386 C940.5642,310.0386 939.0682,308.5426 939.0682,306.6946 C939.0682,304.8456 940.5642,303.3496 942.4122,303.3496 L1009.3032,303.3496 C1011.1522,303.3496 1012.6482,304.8456 1012.6482,306.6946 C1012.6482,308.5426 1011.1522,310.0386 1009.3032,310.0386" id="Fill-1186" fill="#020210" mask="url(#mask-2)"></path>
            <path d="M955.7906,323.4167 L929.0346,323.4167 C927.1856,323.4167 925.6896,321.9207 925.6896,320.0717 C925.6896,318.2237 927.1856,316.7277 929.0346,316.7277 L955.7906,316.7277 C957.6386,316.7277 959.1356,318.2237 959.1356,320.0717 C959.1356,321.9207 957.6386,323.4167 955.7906,323.4167" id="Fill-1187" fill="#020210" mask="url(#mask-2)"></path>
            <path d="M975.8578,323.4167 L969.1688,323.4167 C967.3198,323.4167 965.8238,321.9207 965.8238,320.0717 C965.8238,318.2237 967.3198,316.7277 969.1688,316.7277 L975.8578,316.7277 C977.7058,316.7277 979.2018,318.2237 979.2018,320.0717 C979.2018,321.9207 977.7058,323.4167 975.8578,323.4167" id="Fill-1188" fill="#020210" mask="url(#mask-2)"></path>
        </g>
    </g>
</svg>