<?xml version="1.0" encoding="UTF-8" standalone="no"?>
<svg width="32px" height="7px" viewBox="0 0 32 7" version="1.1" xmlns="http://www.w3.org/2000/svg" xmlns:xlink="http://www.w3.org/1999/xlink">
    <!-- Generator: Sketch 41.2 (35397) - http://www.bohemiancoding.com/sketch -->
    <title>logo</title>
    <desc>Created with Sketch.</desc>
    <defs>
        <polygon id="path-1" points="2.186765 5.441 2.186765 0.611209 0.7638 0.611209 0.7638 3.0261045 0.7638 5.441 2.186765 5.441"></polygon>
    </defs>
    <g id="Page-1" stroke="none" stroke-width="1" fill="none" fill-rule="evenodd">
        <g id="logo">
            <g id="Group-146" transform="translate(6.000000, 0.000000)" fill="#FFFFFF">
                <path d="M2.6182,5.5714 C2.4241,5.5714 2.2661,5.4852 2.1511,5.2912 L2.1511,3.8394 C2.2948,3.5807 2.4745,3.4801 2.6614,3.4801 C2.9128,3.4801 3.1141,3.631 3.1141,4.5293 C3.1141,5.3343 2.9057,5.5714 2.6182,5.5714 M3.1212,2.4596 C2.7619,2.4596 2.3595,2.6536 2.1511,2.9411 L2.1511,0.4876 L0.7282,1.3011 L0.7282,6.441 L1.9929,6.441 L2.0433,6.1105 C2.2661,6.4051 2.6111,6.5847 3.0351,6.5847 C4.0052,6.5847 4.573,5.7008 4.573,4.5293 C4.573,3.243 4.1131,2.4596 3.1212,2.4596" id="Fill-138"></path>
                <path d="M6.7499,5.5643 C6.3906,5.5643 6.2324,5.2768 6.2324,4.5151 C6.2324,3.7891 6.3906,3.4801 6.7499,3.4801 C7.1091,3.4801 7.2673,3.7675 7.2673,4.5294 C7.2673,5.2552 7.1091,5.5643 6.7499,5.5643 M6.7499,2.4597 C5.5282,2.4597 4.7736,3.2645 4.7736,4.5151 C4.7736,5.8518 5.5425,6.5847 6.7499,6.5847 C7.9716,6.5847 8.7262,5.7798 8.7262,4.5294 C8.7262,3.1927 7.9573,2.4597 6.7499,2.4597" id="Fill-140"></path>
                <path d="M10.8528,5.5643 C10.4935,5.5643 10.3354,5.2768 10.3354,4.5151 C10.3354,3.7891 10.4935,3.4801 10.8528,3.4801 C11.2121,3.4801 11.3703,3.7675 11.3703,4.5294 C11.3703,5.2552 11.2121,5.5643 10.8528,5.5643 M10.8528,2.4597 C9.6311,2.4597 8.8765,3.2645 8.8765,4.5151 C8.8765,5.8518 9.6454,6.5847 10.8528,6.5847 C12.0745,6.5847 12.8291,5.7798 12.8291,4.5294 C12.8291,3.1927 12.0602,2.4597 10.8528,2.4597" id="Fill-141"></path>
                <path d="M15.167,4.0263 C14.4412,3.8036 14.398,3.7461 14.398,3.6167 C14.398,3.516 14.4842,3.4442 14.779,3.4442 C15.0304,3.4442 15.3611,3.552 15.6341,3.7245 L16.1373,2.9555 C15.785,2.6537 15.2317,2.4596 14.664,2.4596 C13.5859,2.4596 12.9895,3.013 12.9895,3.7029 C12.9895,4.321 13.3847,4.7307 14.1033,4.9462 C14.7645,5.1474 14.8436,5.1833 14.8436,5.3701 C14.8436,5.5283 14.6926,5.6074 14.4267,5.6074 C14.089,5.6074 13.7369,5.4421 13.4637,5.2265 L12.7883,5.9738 C13.1834,6.3475 13.8016,6.5848 14.4771,6.5848 C15.5407,6.5848 16.2953,6.0529 16.2953,5.2624 C16.2953,4.5653 15.8929,4.2491 15.167,4.0263" id="Fill-142"></path>
                <path d="M18.4593,5.4708 C18.2796,5.4708 18.1573,5.3702 18.1573,5.0108 L18.1573,3.5663 L18.876,3.5663 L19.0198,2.6033 L18.1573,2.6033 L18.1573,1.1028 L16.7344,1.9164 L16.7344,2.6033 L16.2744,2.6033 L16.2744,3.5663 L16.7344,3.5663 L16.7344,5.0253 C16.7344,6.0386 17.1656,6.5775 18.1286,6.5848 C18.488,6.5848 18.9623,6.477 19.2785,6.2541 L18.8185,5.3702 C18.6892,5.442 18.5671,5.4708 18.4593,5.4708" id="Fill-143"></path>
                <path d="M21.5142,4.1197 L20.5513,4.1197 C20.6015,3.5304 20.7597,3.3579 21.0614,3.3579 C21.428,3.3579 21.5071,3.6813 21.5142,4.0693 L21.5142,4.1197 Z M21.0327,2.4596 C19.7606,2.4596 19.121,3.4083 19.121,4.5294 C19.121,5.7153 19.7822,6.5848 21.1909,6.5848 C21.8592,6.5848 22.391,6.3261 22.7718,6.017 L22.197,5.2408 C21.8664,5.4708 21.6005,5.5787 21.3273,5.5787 C20.9105,5.5787 20.6375,5.478 20.5584,4.9246 L22.887,4.9246 C22.9013,4.788 22.9156,4.5939 22.9156,4.472 C22.9156,3.1855 22.1683,2.4596 21.0327,2.4596 L21.0327,2.4596 Z" id="Fill-144"></path>
                <path d="M25.5747,2.4811 C25.1506,2.4811 24.7626,2.819 24.6044,3.322 L24.4894,2.6033 L23.2461,2.6033 L23.2461,6.441 L24.6691,6.441 L24.6691,4.6946 C24.7769,4.206 24.928,3.861 25.3878,3.861 C25.5101,3.861 25.6177,3.8826 25.7399,3.9185 L25.9627,2.5458 C25.8263,2.5027 25.7256,2.4811 25.5747,2.4811" id="Fill-145"></path>
            </g>
            <g id="Group-149" transform="translate(4.000000, 1.000000)">
                <mask id="mask-2" fill="white">
                    <use xlink:href="#path-1"></use>
                </mask>
                <g id="Clip-148"></g>
                <polygon id="Fill-147" fill-opacity="0.75" fill="#FFFFFF" mask="url(#mask-2)" points="0.7638 5.441 2.1868 5.441 2.1868 0.6107 0.7638 1.4244"></polygon>
            </g>
            <polygon id="Fill-150" fill-opacity="0.5" fill="#FFFFFF" points="2.7996 6.441 4.2225 6.441 4.2225 2.7339 2.7996 3.5476"></polygon>
            <polygon id="Fill-152" fill-opacity="0.25" fill="#FFFFFF" points="0.8319 6.441 2.2548 6.441 2.2548 3.859 0.8319 4.6727"></polygon>
        </g>
    </g>
</svg>