<?xml version="1.0" encoding="UTF-8" standalone="no"?>
<svg width="885px" height="174px" viewBox="0 0 885 174" version="1.1" xmlns="http://www.w3.org/2000/svg" xmlns:xlink="http://www.w3.org/1999/xlink">
    <defs></defs>
    <g id="Page-10" stroke="none" stroke-width="1" fill="none" fill-rule="evenodd">
        <g id="elementer" transform="translate(-487.000000, -1049.000000)" fill="#2E3E4D">
            <g id="Group-5665">
                <g id="Group" transform="translate(487.000000, 1049.000000)">
                    <path d="M221.277,144.8633 C215.764,144.8633 211.271,142.4133 208.004,136.8993 L208.004,95.6503 C212.088,88.2993 217.193,85.4403 222.503,85.4403 C229.649,85.4403 235.367,89.7293 235.367,115.2543 C235.367,138.1253 229.445,144.8633 221.277,144.8633 M235.572,56.4443 C225.361,56.4443 213.926,61.9573 208.004,70.1253 L208.004,0.4103 L167.572,23.5293 L167.572,169.5723 L203.511,169.5723 L204.941,160.1793 C211.271,168.5513 221.073,173.6563 233.121,173.6563 C260.688,173.6563 276.82,148.5393 276.82,115.2543 C276.82,78.7023 263.751,56.4443 235.572,56.4443" id="Fill-5623"></path>
                    <path d="M338.674,144.6595 C328.464,144.6595 323.972,136.4915 323.972,114.8455 C323.972,94.2215 328.464,85.4405 338.674,85.4405 C348.884,85.4405 353.377,93.6085 353.377,115.2545 C353.377,135.8785 348.884,144.6595 338.674,144.6595 M338.674,56.4435 C303.96,56.4435 282.519,79.3145 282.519,114.8455 C282.519,152.8275 304.368,173.6565 338.674,173.6565 C373.388,173.6565 394.829,150.7855 394.829,115.2545 C394.829,77.2725 372.981,56.4435 338.674,56.4435" id="Fill-5625"></path>
                    <path d="M455.2551,144.6595 C445.0451,144.6595 440.5521,136.4915 440.5521,114.8455 C440.5521,94.2215 445.0451,85.4405 455.2551,85.4405 C465.4651,85.4405 469.9571,93.6085 469.9571,115.2545 C469.9571,135.8785 465.4651,144.6595 455.2551,144.6595 M455.2551,56.4435 C420.5401,56.4435 399.0991,79.3145 399.0991,114.8455 C399.0991,152.8275 420.9491,173.6565 455.2551,173.6565 C489.9691,173.6565 511.4101,150.7855 511.4101,115.2545 C511.4101,77.2725 489.5611,56.4435 455.2551,56.4435" id="Fill-5627"></path>
                    <path d="M577.838,100.9602 C557.214,94.6292 555.988,92.9962 555.988,89.3202 C555.988,86.4612 558.439,84.4192 566.811,84.4192 C573.958,84.4192 583.351,87.4822 591.111,92.3832 L605.405,70.5342 C595.399,61.9572 579.675,56.4442 563.544,56.4442 C532.913,56.4442 515.965,72.1672 515.965,91.7712 C515.965,109.3322 527.195,120.9722 547.616,127.0982 C566.402,132.8152 568.648,133.8362 568.648,139.1462 C568.648,143.6382 564.36,145.8842 556.805,145.8842 C547.207,145.8842 537.202,141.1872 529.441,135.0622 L510.247,156.2982 C521.478,166.9172 539.039,173.6562 558.234,173.6562 C588.456,173.6562 609.897,158.5452 609.897,136.0832 C609.897,116.2752 598.463,107.2902 577.838,100.9602" id="Fill-5629"></path>
                    <path d="M671.3838,142.0047 C666.2778,142.0047 662.8068,139.1457 662.8068,128.9357 L662.8068,87.8917 L683.2268,87.8917 L687.3118,60.5277 L662.8068,60.5277 L662.8068,17.8917 L622.3738,41.0117 L622.3738,60.5277 L609.3058,60.5277 L609.3058,87.8917 L622.3738,87.8917 L622.3738,129.3437 C622.3738,158.1367 634.6268,173.4517 661.9898,173.6557 C672.2008,173.6557 685.6768,170.5927 694.6628,164.2627 L681.5928,139.1457 C677.9178,141.1877 674.4458,142.0047 671.3838,142.0047" id="Fill-5631"></path>
                    <path d="M758.188,103.6144 L730.825,103.6144 C732.254,86.8704 736.747,81.9684 745.323,81.9684 C755.737,81.9684 757.984,91.1584 758.188,102.1854 L758.188,103.6144 Z M744.506,56.4434 C708.362,56.4434 690.188,83.3984 690.188,115.2544 C690.188,148.9474 708.975,173.6564 748.999,173.6564 C767.989,173.6564 783.1,166.3054 793.923,157.5244 L777.587,135.4704 C768.193,142.0044 760.638,145.0674 752.878,145.0674 C741.035,145.0674 733.276,142.2084 731.028,126.4854 L797.191,126.4854 C797.599,122.6054 798.008,117.0914 798.008,113.6204 C798.008,77.0684 776.77,56.4434 744.506,56.4434 L744.506,56.4434 Z" id="Fill-5633"></path>
                    <path d="M873.5613,57.0565 C861.5123,57.0565 850.4863,66.6545 845.9943,80.9475 L842.7263,60.5275 L807.3983,60.5275 L807.3983,169.5715 L847.8313,169.5715 L847.8313,119.9505 C850.8943,106.0645 855.1823,96.2635 868.2513,96.2635 C871.7233,96.2635 874.7853,96.8765 878.2573,97.8975 L884.5883,58.8945 C880.7083,57.6695 877.8493,57.0565 873.5613,57.0565" id="Fill-5635"></path>
                    <path d="M111.7594,169.5719 L152.1914,169.5719 L152.1914,32.3239 L111.7594,55.4439 L111.7594,169.5719 Z" id="Fill-5637"></path>
                    <path d="M55.9468,169.5719 L96.3788,169.5719 L96.3788,64.2379 L55.9468,87.3579 L55.9468,169.5719 Z" id="Fill-5639"></path>
                    <path d="M0.0375,169.5719 L40.4695,169.5719 L40.4695,96.2079 L0.0375,119.3269 L0.0375,169.5719 Z" id="Fill-5641"></path>
                </g>
            </g>
        </g>
    </g>
</svg>