<svg xmlns="http://www.w3.org/2000/svg" xmlns:xlink="http://www.w3.org/1999/xlink" viewBox="0 0 134.64 603.88">
  <defs>
    <clipPath id="a" transform="translate(-4762.1 -1302.22)">
      <path d="M4848.25,1549.07c0-20.83-8.48-32.81-18.95-32.81s-18.95,12-18.95,32.81,18.95,72.61,18.95,72.61S4848.25,1569.9,4848.25,1549.07Z" style="fill: none"/>
    </clipPath>
    <clipPath id="b" transform="translate(-4762.1 -1302.22)">
      <path d="M4840.4,1532.64c0,22.88-5,41.44-11.1,41.44s-11.1-18.55-11.1-41.44,5-68.47,11.1-68.47S4840.4,1509.76,4840.4,1532.64Z" style="fill: none"/>
    </clipPath>
  </defs>
  <title>rocket_final</title>
  <g style="isolation: isolate">
    <g>
      <rect x="52.69" y="224.64" width="28.87" height="379.24" style="fill: #fff"/>
      <g>
        <g>
          <g style="clip-path: url(#a)">
            <rect x="48.25" y="214.05" width="37.9" height="105.42" style="fill: #e54749"/>
            <path d="M4829.09,1615.8a34.38,34.38,0,0,1-20.23-7.09h0.75v-93.15H4849v93.37h0.41A34.41,34.41,0,0,1,4829.09,1615.8Z" transform="translate(-4762.1 -1302.22)" style="fill: #e54749"/>
            <path d="M4829.09,1615.08a34.11,34.11,0,0,1-20.06-7h0.58v-92.49H4849v92.7h0.25A34.13,34.13,0,0,1,4829.09,1615.08Z" transform="translate(-4762.1 -1302.22)" style="fill: #e54849"/>
            <path d="M4829.09,1614.36a33.83,33.83,0,0,1-19.9-7h0.42v-91.82H4849v92h0.09A33.85,33.85,0,0,1,4829.09,1614.36Z" transform="translate(-4762.1 -1302.22)" style="fill: #e54a48"/>
            <path d="M4829.1,1613.64a33.55,33.55,0,0,1-19.73-6.92h0.25v-91.16H4849v87.74h4.39a47,47,0,0,1-4.46,3.63A33.57,33.57,0,0,1,4829.1,1613.64Z" transform="translate(-4762.1 -1302.22)" style="fill: #e54b49"/>
            <path d="M4829.1,1612.91a33.27,33.27,0,0,1-19.57-6.86h0.08v-90.49H4849v87.1h4.19a46.65,46.65,0,0,1-4.42,3.6A33.29,33.29,0,0,1,4829.1,1612.91Z" transform="translate(-4762.1 -1302.22)" style="fill: #e64c48"/>
            <path d="M4829.11,1612.19a33,33,0,0,1-19.4-6.8,46.21,46.21,0,0,1-4.35-3.61h4.26v-86.21H4849V1602h4a46.27,46.27,0,0,1-4.39,3.57A33,33,0,0,1,4829.11,1612.19Z" transform="translate(-4762.1 -1302.22)" style="fill: #e64d49"/>
            <path d="M4829.11,1611.47a32.71,32.71,0,0,1-19.24-6.75,45.81,45.81,0,0,1-4.31-3.58h4.05v-85.58H4849v85.83h3.79a45.87,45.87,0,0,1-4.35,3.54A32.74,32.74,0,0,1,4829.11,1611.47Z" transform="translate(-4762.1 -1302.22)" style="fill: #e64e48"/>
            <path d="M4829.12,1610.75a32.43,32.43,0,0,1-19.07-6.69,45.42,45.42,0,0,1-4.27-3.55h3.84v-84.95H4849v85.19h3.59a45.5,45.5,0,0,1-4.31,3.51A32.46,32.46,0,0,1,4829.12,1610.75Z" transform="translate(-4762.1 -1302.22)" style="fill: #e64f49"/>
            <path d="M4829.12,1610a32.15,32.15,0,0,1-18.91-6.63,45,45,0,0,1-4.23-3.52h3.64v-84.31H4849v84.56h3.4a45.11,45.11,0,0,1-4.28,3.48A32.18,32.18,0,0,1,4829.12,1610Z" transform="translate(-4762.1 -1302.22)" style="fill: #e75048"/>
            <path d="M4829.12,1609.3a31.87,31.87,0,0,1-18.75-6.57,44.65,44.65,0,0,1-4.2-3.49h3.43v-83.68H4849v83.92h3.2a44.71,44.71,0,0,1-4.24,3.45A31.9,31.9,0,0,1,4829.12,1609.3Z" transform="translate(-4762.1 -1302.22)" style="fill: #e75148"/>
            <path d="M4829.13,1608.58a31.59,31.59,0,0,1-18.58-6.52,44.24,44.24,0,0,1-4.16-3.46h3.23v-83H4849v83.29h3a44.3,44.3,0,0,1-4.2,3.42A31.62,31.62,0,0,1,4829.13,1608.58Z" transform="translate(-4762.1 -1302.22)" style="fill: #e75249"/>
            <path d="M4829.13,1607.86a31.31,31.31,0,0,1-18.42-6.46,43.85,43.85,0,0,1-4.12-3.43h3v-82.41H4849v82.65h2.8a43.92,43.92,0,0,1-4.16,3.39A31.34,31.34,0,0,1,4829.13,1607.86Z" transform="translate(-4762.1 -1302.22)" style="fill: #e75348"/>
            <path d="M4829.14,1607.13a31,31,0,0,1-18.25-6.4,43.46,43.46,0,0,1-4.09-3.4h2.82v-81.77H4849v82h2.6a43.52,43.52,0,0,1-4.13,3.36A31.06,31.06,0,0,1,4829.14,1607.13Z" transform="translate(-4762.1 -1302.22)" style="fill: #e75449"/>
            <path d="M4829.14,1606.41a30.75,30.75,0,0,1-18.09-6.34,43.07,43.07,0,0,1-4.05-3.37h2.61v-81.14H4849v81.38h2.41a43.14,43.14,0,0,1-4.09,3.33A30.78,30.78,0,0,1,4829.14,1606.41Z" transform="translate(-4762.1 -1302.22)" style="fill: #e75548"/>
            <path d="M4829.14,1605.69a30.47,30.47,0,0,1-17.92-6.28,42.69,42.69,0,0,1-4-3.34h2.41v-80.51H4849v80.74h2.21a42.74,42.74,0,0,1-4.05,3.29A30.5,30.5,0,0,1,4829.14,1605.69Z" transform="translate(-4762.1 -1302.22)" style="fill: #e75649"/>
            <path d="M4829.15,1605a30.19,30.19,0,0,1-17.76-6.23,42.3,42.3,0,0,1-4-3.31h2.2v-79.87H4849v80.1h2a42.35,42.35,0,0,1-4,3.26A30.22,30.22,0,0,1,4829.15,1605Z" transform="translate(-4762.1 -1302.22)" style="fill: #e75748"/>
            <path d="M4829.15,1604.24a29.91,29.91,0,0,1-17.59-6.17,41.9,41.9,0,0,1-3.94-3.28h2v-79.24H4849V1595h1.81a42,42,0,0,1-4,3.23A29.94,29.94,0,0,1,4829.15,1604.24Z" transform="translate(-4762.1 -1302.22)" style="fill: #e75848"/>
            <path d="M4829.16,1603.52a29.63,29.63,0,0,1-17.43-6.11,41.5,41.5,0,0,1-3.9-3.25h1.79v-78.6H4849v78.83h1.61a41.57,41.57,0,0,1-3.94,3.2A29.66,29.66,0,0,1,4829.16,1603.52Z" transform="translate(-4762.1 -1302.22)" style="fill: #e85948"/>
            <path d="M4829.16,1602.8a29.35,29.35,0,0,1-17.27-6.05,41.12,41.12,0,0,1-3.87-3.22h1.58v-78H4849V1590h5.1a44.73,44.73,0,0,1-7.59,7A29.38,29.38,0,0,1,4829.16,1602.8Z" transform="translate(-4762.1 -1302.22)" style="fill: #e85a48"/>
            <path d="M4829.17,1602.08a29.07,29.07,0,0,1-17.1-6,44.24,44.24,0,0,1-7.44-7h5v-73.55H4849v73.81h4.87a44.31,44.31,0,0,1-7.52,6.89A29.1,29.1,0,0,1,4829.17,1602.08Z" transform="translate(-4762.1 -1302.22)" style="fill: #e85b49"/>
            <path d="M4829.17,1601.35a28.79,28.79,0,0,1-16.94-5.94,43.82,43.82,0,0,1-7.37-6.9h4.75v-73H4849v73.21h4.64a43.88,43.88,0,0,1-7.45,6.82A28.82,28.82,0,0,1,4829.17,1601.35Z" transform="translate(-4762.1 -1302.22)" style="fill: #e85c48"/>
            <path d="M4829.17,1600.63a28.51,28.51,0,0,1-16.77-5.88,43.39,43.39,0,0,1-7.29-6.83h4.51v-72.36H4849v72.61h4.4a43.45,43.45,0,0,1-7.37,6.76A28.54,28.54,0,0,1,4829.17,1600.63Z" transform="translate(-4762.1 -1302.22)" style="fill: #e85d48"/>
            <path d="M4829.18,1599.91a28.23,28.23,0,0,1-16.61-5.82,43,43,0,0,1-7.22-6.77h4.27v-71.76H4849v72h4.17a43,43,0,0,1-7.3,6.69A28.26,28.26,0,0,1,4829.18,1599.91Z" transform="translate(-4762.1 -1302.22)" style="fill: #e85e48"/>
            <path d="M4829.18,1599.19a28,28,0,0,1-16.44-5.77,42.54,42.54,0,0,1-7.15-6.7h4v-71.16H4849V1587h3.94a42.6,42.6,0,0,1-7.23,6.62A28,28,0,0,1,4829.18,1599.19Z" transform="translate(-4762.1 -1302.22)" style="fill: #e85f48"/>
            <path d="M4829.19,1598.46a27.68,27.68,0,0,1-16.28-5.71,42.12,42.12,0,0,1-7.08-6.63h3.79v-70.56H4849v70.81h3.7a42.17,42.17,0,0,1-7.16,6.56A27.7,27.7,0,0,1,4829.19,1598.46Z" transform="translate(-4762.1 -1302.22)" style="fill: #e86048"/>
            <path d="M4829.19,1597.74a27.4,27.4,0,0,1-16.11-5.65,41.69,41.69,0,0,1-7-6.57h3.55v-70H4849v70.21h3.47a41.75,41.75,0,0,1-7.08,6.49A27.42,27.42,0,0,1,4829.19,1597.74Z" transform="translate(-4762.1 -1302.22)" style="fill: #e96148"/>
            <path d="M4829.2,1597a27.12,27.12,0,0,1-15.95-5.59,41.27,41.27,0,0,1-6.94-6.5h3.31v-69.37H4849v69.61h3.24a41.32,41.32,0,0,1-7,6.42A27.14,27.14,0,0,1,4829.2,1597Z" transform="translate(-4762.1 -1302.22)" style="fill: #e96248"/>
            <path d="M4829.2,1596.3a26.84,26.84,0,0,1-15.79-5.53,40.84,40.84,0,0,1-6.87-6.43h3.07v-68.77H4849v69h3a40.9,40.9,0,0,1-6.94,6.36A26.86,26.86,0,0,1,4829.2,1596.3Z" transform="translate(-4762.1 -1302.22)" style="fill: #e96348"/>
            <path d="M4829.2,1595.57a26.56,26.56,0,0,1-15.62-5.48,40.42,40.42,0,0,1-6.79-6.36h2.83v-68.17H4849V1584h2.77a40.47,40.47,0,0,1-6.87,6.29A26.58,26.58,0,0,1,4829.2,1595.57Z" transform="translate(-4762.1 -1302.22)" style="fill: #e96448"/>
            <path d="M4829.21,1594.85a26.28,26.28,0,0,1-15.46-5.42,40,40,0,0,1-6.72-6.3h2.59v-67.57H4849v67.81h2.54a40,40,0,0,1-6.79,6.23A26.3,26.3,0,0,1,4829.21,1594.85Z" transform="translate(-4762.1 -1302.22)" style="fill: #e96548"/>
            <path d="M4829.21,1594.13a26,26,0,0,1-15.29-5.36,39.56,39.56,0,0,1-6.65-6.23h2.35v-67H4849v67.21h2.3a39.62,39.62,0,0,1-6.72,6.16A26,26,0,0,1,4829.21,1594.13Z" transform="translate(-4762.1 -1302.22)" style="fill: #e96648"/>
            <path d="M4829.22,1593.41a25.72,25.72,0,0,1-15.13-5.3,39.14,39.14,0,0,1-6.58-6.16h2.11v-66.38H4849v66.61h2.07a39.19,39.19,0,0,1-6.65,6.09A25.74,25.74,0,0,1,4829.22,1593.41Z" transform="translate(-4762.1 -1302.22)" style="fill: #ea6647"/>
            <path d="M4829.22,1592.68a25.44,25.44,0,0,1-15-5.25,38.71,38.71,0,0,1-6.51-6.1h1.87v-65.78H4849v66h1.84a38.77,38.77,0,0,1-6.58,6A25.46,25.46,0,0,1,4829.22,1592.68Z" transform="translate(-4762.1 -1302.22)" style="fill: #ea6748"/>
            <path d="M4829.22,1592a25.16,25.16,0,0,1-14.8-5.19,38.29,38.29,0,0,1-6.44-6h1.63v-65.18H4849V1581h1.6a38.34,38.34,0,0,1-6.51,6A25.18,25.18,0,0,1,4829.22,1592Z" transform="translate(-4762.1 -1302.22)" style="fill: #ea6847"/>
            <path d="M4829.23,1591.24a24.88,24.88,0,0,1-14.63-5.13,37.86,37.86,0,0,1-6.36-6h1.39v-64.58H4849v64.81h1.37a37.92,37.92,0,0,1-6.43,5.89A24.9,24.9,0,0,1,4829.23,1591.24Z" transform="translate(-4762.1 -1302.22)" style="fill: #ea6947"/>
            <path d="M4829.23,1590.52a24.6,24.6,0,0,1-14.47-5.07,37.43,37.43,0,0,1-6.29-5.9h1.15v-64H4849v64.21h1.14a37.49,37.49,0,0,1-6.36,5.83A24.62,24.62,0,0,1,4829.23,1590.52Z" transform="translate(-4762.1 -1302.22)" style="fill: #ea6a48"/>
            <path d="M4829.24,1589.79a24.32,24.32,0,0,1-14.31-5,37,37,0,0,1-6.22-5.83h0.9v-63.39H4849v63.61h0.9a37.06,37.06,0,0,1-6.29,5.76A24.34,24.34,0,0,1,4829.24,1589.79Z" transform="translate(-4762.1 -1302.22)" style="fill: #ea6b47"/>
            <path d="M4829.24,1589.07a24,24,0,0,1-14.14-5,36.59,36.59,0,0,1-6.15-5.76h0.66v-62.79H4849v63h0.67a36.64,36.64,0,0,1-6.22,5.7A24.06,24.06,0,0,1,4829.24,1589.07Z" transform="translate(-4762.1 -1302.22)" style="fill: #ea6c47"/>
            <path d="M4829.25,1588.35a23.76,23.76,0,0,1-14-4.9,36.16,36.16,0,0,1-6.08-5.69h0.42v-62.19H4849V1578h0.44a36.21,36.21,0,0,1-6.14,5.63A23.78,23.78,0,0,1,4829.25,1588.35Z" transform="translate(-4762.1 -1302.22)" style="fill: #eb6d47"/>
            <path d="M4829.25,1587.63a23.48,23.48,0,0,1-13.81-4.84,35.73,35.73,0,0,1-6-5.63h0.18v-61.59H4849v61.81h0.21a35.78,35.78,0,0,1-6.07,5.56A23.5,23.5,0,0,1,4829.25,1587.63Z" transform="translate(-4762.1 -1302.22)" style="fill: #eb6e47"/>
            <path d="M4829.25,1586.9c-9.7-.05-18.45-6.81-24.74-17.7h5.1v-53.65H4849v57.77h2.7q-1.31,1.83-2.72,3.44a35.36,35.36,0,0,1-6,5.5A23.22,23.22,0,0,1,4829.25,1586.9Z" transform="translate(-4762.1 -1302.22)" style="fill: #eb6f46"/>
            <path d="M4829.26,1586.18c-9.58-.05-18.22-6.73-24.44-17.48h4.8v-53.14H4849V1569h4.92C4847.56,1579.65,4838.84,1586.23,4829.26,1586.18Z" transform="translate(-4762.1 -1302.22)" style="fill: #eb7047"/>
            <path d="M4829.26,1585.46c-9.47-.05-18-6.65-24.14-17.27h4.5v-52.63H4849v52.89h4.62C4847.34,1579,4838.73,1585.51,4829.26,1585.46Z" transform="translate(-4762.1 -1302.22)" style="fill: #eb7047"/>
            <path d="M4829.27,1584.74c-9.35,0-17.78-6.56-23.85-17.06h4.19v-52.12H4849v52.37h4.32C4847.12,1578.36,4838.62,1584.79,4829.27,1584.74Z" transform="translate(-4762.1 -1302.22)" style="fill: #eb7146"/>
            <path d="M4829.27,1584c-9.23,0-17.56-6.48-23.55-16.84h3.89v-51.61H4849v51.86h4C4846.9,1577.72,4838.5,1584.06,4829.27,1584Z" transform="translate(-4762.1 -1302.22)" style="fill: #eb7246"/>
            <path d="M4829.27,1583.29c-9.12,0-17.33-6.4-23.25-16.63h3.59v-51.1H4849v51.35h3.73C4846.68,1577.08,4838.39,1583.34,4829.27,1583.29Z" transform="translate(-4762.1 -1302.22)" style="fill: #eb7346"/>
            <path d="M4829.28,1582.57c-9,0-17.11-6.32-23-16.42h3.29v-50.59H4849v50.84h3.44C4846.46,1576.43,4838.28,1582.62,4829.28,1582.57Z" transform="translate(-4762.1 -1302.22)" style="fill: #ec7446"/>
            <path d="M4829.28,1581.85c-8.88,0-16.89-6.24-22.65-16.2h3v-50.08H4849v50.32h3.14C4846.24,1575.79,4838.17,1581.89,4829.28,1581.85Z" transform="translate(-4762.1 -1302.22)" style="fill: #ec7545"/>
            <path d="M4829.29,1581.12c-8.77,0-16.67-6.15-22.36-16h2.68v-49.57H4849v49.81h2.84C4846,1575.15,4838.05,1581.17,4829.29,1581.12Z" transform="translate(-4762.1 -1302.22)" style="fill: #ec7646"/>
            <path d="M4829.29,1580.4c-8.65,0-16.45-6.07-22.06-15.78h2.38v-49.06H4849v49.3h2.55C4845.81,1574.5,4837.94,1580.45,4829.29,1580.4Z" transform="translate(-4762.1 -1302.22)" style="fill: #ec7745"/>
            <path d="M4829.3,1579.68c-8.53,0-16.22-6-21.76-15.56h2.08v-48.55H4849v48.79h2.25C4845.59,1573.86,4837.83,1579.72,4829.3,1579.68Z" transform="translate(-4762.1 -1302.22)" style="fill: #ec7845"/>
            <path d="M4829.3,1579c-8.42,0-16-5.91-21.46-15.35h1.78v-48H4849v48.27h2C4845.37,1573.22,4837.72,1579,4829.3,1579Z" transform="translate(-4762.1 -1302.22)" style="fill: #ec7845"/>
            <path d="M4829.3,1578.23c-8.3,0-15.78-5.83-21.16-15.14h1.47v-47.53H4849v47.76h1.66C4845.15,1572.58,4837.6,1578.28,4829.3,1578.23Z" transform="translate(-4762.1 -1302.22)" style="fill: #ec7945"/>
            <path d="M4829.31,1577.51c-8.18,0-15.56-5.74-20.87-14.92h1.17v-47H4849v47.25h1.36C4844.93,1571.93,4837.49,1577.55,4829.31,1577.51Z" transform="translate(-4762.1 -1302.22)" style="fill: #ec7a45"/>
            <path d="M4829.31,1576.79c-8.07,0-15.33-5.66-20.57-14.71h0.87v-46.52H4849v46.74H4850C4844.71,1571.29,4837.38,1576.83,4829.31,1576.79Z" transform="translate(-4762.1 -1302.22)" style="fill: #ec7b44"/>
            <path d="M4829.32,1576.07c-7.95,0-15.11-5.58-20.27-14.5h0.57v-46H4849v46.22h0.77C4844.49,1570.65,4837.27,1576.11,4829.32,1576.07Z" transform="translate(-4762.1 -1302.22)" style="fill: #ed7c44"/>
            <path d="M4829.32,1575.34c-7.83,0-14.89-5.5-20-14.29h0.27v-45.5H4849v45.71h0.47C4844.27,1570,4837.15,1575.38,4829.32,1575.34Z" transform="translate(-4762.1 -1302.22)" style="fill: #ed7d44"/>
            <path d="M4829.33,1574.62c-7.71,0-14.67-5.42-19.67-14.07a51.35,51.35,0,0,1-3.37-7.08h3.33v-37.91H4849v45.2h0.18C4844.05,1569.36,4837,1574.66,4829.33,1574.62Z" transform="translate(-4762.1 -1302.22)" style="fill: #ed7e44"/>
            <path d="M4829.33,1573.9c-7.6,0-14.45-5.33-19.38-13.86a50.56,50.56,0,0,1-3.32-7h3v-37.51H4849v37.75h3.28a50.62,50.62,0,0,1-3.4,6.93C4843.84,1568.72,4836.93,1573.94,4829.33,1573.9Z" transform="translate(-4762.1 -1302.22)" style="fill: #ee7e44"/>
            <path d="M4829.33,1573.18c-7.48,0-14.22-5.25-19.08-13.65a55.66,55.66,0,0,1-5.72-14.73h5.08v-29.24H4849v37.35h2.93a49.85,49.85,0,0,1-3.35,6.83C4843.62,1568.08,4836.81,1573.22,4829.33,1573.18Z" transform="translate(-4762.1 -1302.22)" style="fill: #ee7f43"/>
            <path d="M4829.34,1572.45c-7.36,0-14-5.17-18.78-13.43a54.79,54.79,0,0,1-5.63-14.5h4.69v-29H4849v29.22h5.09a54.84,54.84,0,0,1-5.8,14.44C4843.4,1567.43,4836.7,1572.49,4829.34,1572.45Z" transform="translate(-4762.1 -1302.22)" style="fill: #ee8044"/>
            <path d="M4829.34,1571.73c-7.25,0-13.78-5.09-18.48-13.22a53.92,53.92,0,0,1-5.54-14.27h4.3v-28.68H4849v28.94h4.7a54,54,0,0,1-5.71,14.21C4843.18,1566.79,4836.59,1571.77,4829.34,1571.73Z" transform="translate(-4762.1 -1302.22)" style="fill: #ee8043"/>
            <path d="M4829.35,1571c-7.13,0-13.56-5-18.18-13a53.05,53.05,0,0,1-5.45-14h3.9v-28.4H4849v28.66h4.31a53.1,53.1,0,0,1-5.61,14C4843,1566.15,4836.48,1571,4829.35,1571Z" transform="translate(-4762.1 -1302.22)" style="fill: #ee8243"/>
            <path d="M4829.35,1570.29c-7,0-13.33-4.92-17.88-12.79a52.18,52.18,0,0,1-5.36-13.81h3.51v-28.12H4849v28.37h3.92a52.23,52.23,0,0,1-5.52,13.75C4842.74,1565.5,4836.36,1570.32,4829.35,1570.29Z" transform="translate(-4762.1 -1302.22)" style="fill: #ee8243"/>
            <path d="M4829.35,1569.56c-13.79-.07-24.86-19.22-24.73-42.76h5v-11.24H4849v28.09h3.53a51.36,51.36,0,0,1-5.43,13.52C4842.52,1564.86,4836.25,1569.6,4829.35,1569.56Z" transform="translate(-4762.1 -1302.22)" style="fill: #ef8343"/>
            <path d="M4829.36,1568.84c-13.56-.07-24.44-18.89-24.31-42h4.56v-11.24H4849v27.81h3.14a50.49,50.49,0,0,1-5.34,13.29C4842.3,1564.22,4836.14,1568.88,4829.36,1568.84Z" transform="translate(-4762.1 -1302.22)" style="fill: #ef8442"/>
            <path d="M4829.36,1568.12c-13.33-.07-24-18.57-23.89-41.31h4.14v-11.25H4849v11.5h4.74C4853.6,1549.81,4842.69,1568.19,4829.36,1568.12Z" transform="translate(-4762.1 -1302.22)" style="fill: #ef8542"/>
            <path d="M4829.37,1567.4c-13.09-.07-23.6-18.24-23.47-40.59h3.72v-11.25H4849v11.5h4.32C4853.18,1549.41,4842.46,1567.47,4829.37,1567.4Z" transform="translate(-4762.1 -1302.22)" style="fill: #ef8642"/>
            <path d="M4829.37,1566.67c-12.86-.07-23.18-17.92-23.05-39.86h3.29v-11.25H4849v11.5h3.9C4852.76,1549,4842.23,1566.74,4829.37,1566.67Z" transform="translate(-4762.1 -1302.22)" style="fill: #ef8642"/>
            <path d="M4829.38,1566c-12.62-.07-22.76-17.59-22.63-39.14h2.87v-11.25H4849v11.5h3.47C4852.33,1548.6,4842,1566,4829.38,1566Z" transform="translate(-4762.1 -1302.22)" style="fill: #ef8742"/>
            <path d="M4829.38,1565.23c-12.39-.07-22.33-17.26-22.21-38.41h2.45v-11.25H4849v11.49H4852C4851.91,1548.2,4841.77,1565.29,4829.38,1565.23Z" transform="translate(-4762.1 -1302.22)" style="fill: #ef8841"/>
            <path d="M4829.38,1564.51c-12.16-.06-21.91-16.94-21.79-37.69h2v-11.26H4849v11.49h2.63C4851.49,1547.8,4841.54,1564.57,4829.38,1564.51Z" transform="translate(-4762.1 -1302.22)" style="fill: #ef8941"/>
            <path d="M4829.39,1563.78c-11.92-.06-21.49-16.61-21.37-37a59.89,59.89,0,0,1,1.78-14.33v3.08H4849V1527h2.2C4851.07,1547.4,4841.31,1563.85,4829.39,1563.78Z" transform="translate(-4762.1 -1302.22)" style="fill: #f08a40"/>
            <path d="M4829.39,1563.06c-11.69-.06-21.07-16.29-21-36.24a58.71,58.71,0,0,1,1.74-14.05v2.79H4849V1527h1.78C4850.65,1547,4841.08,1563.12,4829.39,1563.06Z" transform="translate(-4762.1 -1302.22)" style="fill: #f08a40"/>
            <path d="M4829.4,1562.34c-11.45-.06-20.65-16-20.54-35.51a57.53,57.53,0,0,1,1.71-13.77v2.51h38.22v-2.31a57.52,57.52,0,0,1,1.55,13.79C4850.23,1546.6,4840.85,1562.4,4829.4,1562.34Z" transform="translate(-4762.1 -1302.22)" style="fill: #f08b40"/>
            <path d="M4829.4,1561.62c-11.22-.06-20.23-15.64-20.12-34.79a56.36,56.36,0,0,1,1.67-13.49v2.23h37.44v-2a56.35,56.35,0,0,1,1.52,13.51C4849.81,1546.2,4840.62,1561.68,4829.4,1561.62Z" transform="translate(-4762.1 -1302.22)" style="fill: #f08c40"/>
            <path d="M4829.4,1560.89c-11-.06-19.81-15.31-19.7-34.06a55.19,55.19,0,0,1,1.64-13.21v1.94H4848v-1.75a55.17,55.17,0,0,1,1.49,13.23C4849.39,1545.8,4840.39,1561,4829.4,1560.89Z" transform="translate(-4762.1 -1302.22)" style="fill: #f08d40"/>
            <path d="M4829.41,1560.17c-10.75-.06-19.38-15-19.28-33.34a54,54,0,0,1,1.61-12.93v1.66h35.88v-1.47a54,54,0,0,1,1.46,12.94C4849,1545.39,4840.16,1560.23,4829.41,1560.17Z" transform="translate(-4762.1 -1302.22)" style="fill: #f08e3f"/>
            <path d="M4829.41,1559.45c-10.52-.06-19-14.66-18.86-32.61a52.84,52.84,0,0,1,1.57-12.65v1.38h35.1v-1.19a52.82,52.82,0,0,1,1.42,12.66C4848.55,1545,4839.93,1559.5,4829.41,1559.45Z" transform="translate(-4762.1 -1302.22)" style="fill: #f18f3f"/>
            <path d="M4829.42,1558.73c-10.29-.05-18.54-14.33-18.44-31.89a51.67,51.67,0,0,1,1.54-12.37v1.09h34.32v-0.91a51.65,51.65,0,0,1,1.39,12.38C4848.12,1544.59,4839.7,1558.78,4829.42,1558.73Z" transform="translate(-4762.1 -1302.22)" style="fill: #f1903e"/>
            <path d="M4829.42,1558c-10.05-.05-18.12-14-18-31.17a50.49,50.49,0,0,1,1.5-12.09v0.81h33.54v-0.63a50.48,50.48,0,0,1,1.36,12.1C4847.7,1544.19,4839.47,1558.06,4829.42,1558Z" transform="translate(-4762.1 -1302.22)" style="fill: #f1903e"/>
            <path d="M4829.43,1557.28c-9.82-.05-17.7-13.68-17.6-30.44a49.32,49.32,0,0,1,1.47-11.8v0.53h32.76v-0.35a49.3,49.3,0,0,1,1.33,11.82C4847.28,1543.79,4839.24,1557.33,4829.43,1557.28Z" transform="translate(-4762.1 -1302.22)" style="fill: #f1913e"/>
            <path d="M4829.43,1556.56c-9.58-.05-17.28-13.36-17.18-29.72a48.14,48.14,0,0,1,1.43-11.52v0.24h32v-0.07A48.13,48.13,0,0,1,4847,1527C4846.86,1543.39,4839,1556.61,4829.43,1556.56Z" transform="translate(-4762.1 -1302.22)" style="fill: #f2923e"/>
            <path d="M4829.43,1555.84c-9.35,0-16.86-13-16.76-29a47,47,0,0,1,1.4-11.24,38.56,38.56,0,0,1,1.59-4.9v4.86h28.08v-4.71a38.54,38.54,0,0,1,1.53,4.92,47,47,0,0,1,1.27,11.26C4846.44,1543,4838.79,1555.89,4829.43,1555.84Z" transform="translate(-4762.1 -1302.22)" style="fill: #f2933e"/>
            <path d="M4829.44,1555.11c-9.12,0-16.43-12.7-16.34-28.27a45.79,45.79,0,0,1,1.36-11,37.59,37.59,0,0,1,1.55-4.78v4.45h27.38v-4.31a37.58,37.58,0,0,1,1.49,4.79,45.78,45.78,0,0,1,1.23,11C4846,1542.58,4838.56,1555.16,4829.44,1555.11Z" transform="translate(-4762.1 -1302.22)" style="fill: #f2943d"/>
            <path d="M4829.44,1554.39c-8.88,0-16-12.38-15.93-27.54a44.62,44.62,0,0,1,1.33-10.68,36.64,36.64,0,0,1,1.51-4.66v4H4843v-3.91a36.61,36.61,0,0,1,1.46,4.67,44.6,44.6,0,0,1,1.2,10.69C4845.6,1542.18,4838.33,1554.44,4829.44,1554.39Z" transform="translate(-4762.1 -1302.22)" style="fill: #f2953d"/>
            <path d="M4829.45,1553.67c-8.65,0-15.59-12.05-15.51-26.82a43.45,43.45,0,0,1,1.29-10.4,35.67,35.67,0,0,1,1.47-4.53v3.64h26v-3.5a35.64,35.64,0,0,1,1.42,4.55,43.43,43.43,0,0,1,1.17,10.41C4845.18,1541.78,4838.1,1553.71,4829.45,1553.67Z" transform="translate(-4762.1 -1302.22)" style="fill: #f2953c"/>
            <path d="M4829.45,1552.95c-8.42,0-15.17-11.73-15.09-26.09a42.27,42.27,0,0,1,1.26-10.12,34.71,34.71,0,0,1,1.43-4.41v3.24h25.27v-3.1a34.67,34.67,0,0,1,1.38,4.43,42.26,42.26,0,0,1,1.14,10.13C4844.76,1541.38,4837.87,1553,4829.45,1552.95Z" transform="translate(-4762.1 -1302.22)" style="fill: #f2963c"/>
            <path d="M4829.46,1552.22c-8.18,0-14.75-11.4-14.67-25.37A41.1,41.1,0,0,1,4816,1517a33.73,33.73,0,0,1,1.39-4.29v2.83H4842v-2.7a33.71,33.71,0,0,1,1.34,4.3,41.09,41.09,0,0,1,1.11,9.85C4844.34,1541,4837.64,1552.27,4829.46,1552.22Z" transform="translate(-4762.1 -1302.22)" style="fill: #f3973b"/>
            <path d="M4829.46,1551.5c-7.95,0-14.33-11.07-14.25-24.64a39.93,39.93,0,0,1,1.19-9.56,32.79,32.79,0,0,1,1.35-4.17v2.42h23.87v-2.3a32.75,32.75,0,0,1,1.3,4.18A39.91,39.91,0,0,1,4844,1527C4843.91,1540.58,4837.41,1551.54,4829.46,1551.5Z" transform="translate(-4762.1 -1302.22)" style="fill: #f3983b"/>
            <path d="M4829.46,1550.78c-7.71,0-13.91-10.75-13.83-23.92a38.75,38.75,0,0,1,1.15-9.27,31.81,31.81,0,0,1,1.31-4v2h23.17v-1.9a31.79,31.79,0,0,1,1.26,4.06,38.73,38.73,0,0,1,1,9.29C4843.49,1540.18,4837.18,1550.82,4829.46,1550.78Z" transform="translate(-4762.1 -1302.22)" style="fill: #f3983b"/>
            <path d="M4829.47,1550.06c-7.48,0-13.49-10.42-13.41-23.19a37.58,37.58,0,0,1,1.12-9,30.86,30.86,0,0,1,1.27-3.92v1.61h20.83v-4.92a32.9,32.9,0,0,1,3.87,16.37C4843.07,1539.78,4836.95,1550.09,4829.47,1550.06Z" transform="translate(-4762.1 -1302.22)" style="fill: #f3993b"/>
            <path d="M4829.47,1549.33c-7.25,0-13.06-10.1-13-22.47a31.89,31.89,0,0,1,3.94-15.82v4.51H4839v-4.41a31.87,31.87,0,0,1,3.75,15.86C4842.65,1539.37,4836.72,1549.37,4829.47,1549.33Z" transform="translate(-4762.1 -1302.22)" style="fill: #f39a3b"/>
            <path d="M4829.48,1548.61c-7,0-12.64-9.77-12.57-21.74a30.87,30.87,0,0,1,3.81-15.31v4h18v-3.91a30.84,30.84,0,0,1,3.63,15.35C4842.23,1539,4836.49,1548.65,4829.48,1548.61Z" transform="translate(-4762.1 -1302.22)" style="fill: #f39b3a"/>
            <path d="M4829.48,1547.89c-6.78,0-12.22-9.45-12.15-21a29.84,29.84,0,0,1,3.68-14.8v3.49h17.36v-3.4a29.82,29.82,0,0,1,3.51,14.84C4841.81,1538.57,4836.26,1547.92,4829.48,1547.89Z" transform="translate(-4762.1 -1302.22)" style="fill: #f39c3a"/>
            <path d="M4829.48,1547.17c-6.55,0-11.8-9.12-11.73-20.29a28.81,28.81,0,0,1,3.55-14.29v3h16.76v-2.89a28.79,28.79,0,0,1,3.39,14.32C4841.39,1538.17,4836,1547.2,4829.48,1547.17Z" transform="translate(-4762.1 -1302.22)" style="fill: #f49c39"/>
            <path d="M4829.49,1546.44c-6.31,0-11.38-8.79-11.32-19.57a27.78,27.78,0,0,1,3.43-13.78v2.46h16.16v-2.38A27.76,27.76,0,0,1,4841,1527C4841,1537.77,4835.8,1546.48,4829.49,1546.44Z" transform="translate(-4762.1 -1302.22)" style="fill: #f49d39"/>
            <path d="M4829.49,1545.72c-6.08,0-11-8.47-10.9-18.84a26.75,26.75,0,0,1,3.3-13.27v2h15.56v-1.87a26.73,26.73,0,0,1,3.15,13.3C4840.55,1537.37,4835.57,1545.75,4829.49,1545.72Z" transform="translate(-4762.1 -1302.22)" style="fill: #f49e38"/>
            <path d="M4829.5,1545c-5.84,0-10.54-8.14-10.48-18.12a25.72,25.72,0,0,1,3.17-12.76v1.44h15v-1.36a25.7,25.7,0,0,1,3,12.79C4840.13,1537,4835.34,1545,4829.5,1545Z" transform="translate(-4762.1 -1302.22)" style="fill: #f49f38"/>
            <path d="M4829.5,1544.27c-5.61,0-10.11-7.82-10.06-17.39a24.69,24.69,0,0,1,3-12.25v0.93h14.37v-0.85a24.68,24.68,0,0,1,2.9,12.28C4839.71,1536.57,4835.11,1544.3,4829.5,1544.27Z" transform="translate(-4762.1 -1302.22)" style="fill: #f49f38"/>
            <path d="M4829.51,1543.55c-5.38,0-9.69-7.49-9.64-16.67a23.66,23.66,0,0,1,2.92-11.74v0.41h13.77v-0.34a23.65,23.65,0,0,1,2.78,11.77C4839.28,1536.16,4834.88,1543.58,4829.51,1543.55Z" transform="translate(-4762.1 -1302.22)" style="fill: #f4a037"/>
            <ellipse cx="4829.6" cy="1526.93" rx="15.9" ry="9.31" transform="translate(-1487.41 5045.38) rotate(-89.67)" style="fill: #f5a137"/>
            <ellipse cx="4829.6" cy="1526.93" rx="15.17" ry="8.89" transform="matrix(0.01, -1, 1, 0.01, -1487.41, 5045.38)" style="fill: #f5a236"/>
            <ellipse cx="4829.6" cy="1526.93" rx="14.45" ry="8.47" transform="translate(-1487.41 5045.38) rotate(-89.67)" style="fill: #f5a336"/>
            <ellipse cx="4829.6" cy="1526.93" rx="13.73" ry="8.04" transform="translate(-1487.41 5045.38) rotate(-89.67)" style="fill: #f6a335"/>
            <ellipse cx="4829.6" cy="1526.93" rx="13.01" ry="7.62" transform="translate(-1487.41 5045.38) rotate(-89.67)" style="fill: #f6a435"/>
            <ellipse cx="4829.6" cy="1526.93" rx="12.28" ry="7.2" transform="translate(-1487.41 5045.38) rotate(-89.67)" style="fill: #f6a534"/>
            <ellipse cx="4829.6" cy="1526.93" rx="11.56" ry="6.77" transform="translate(-1487.41 5045.38) rotate(-89.67)" style="fill: #f6a634"/>
            <ellipse cx="4829.6" cy="1526.93" rx="10.84" ry="6.35" transform="translate(-1487.41 5045.38) rotate(-89.67)" style="fill: #f6a734"/>
            <ellipse cx="4829.6" cy="1526.93" rx="10.12" ry="5.93" transform="translate(-1487.41 5045.38) rotate(-89.67)" style="fill: #f6a733"/>
            <ellipse cx="4829.6" cy="1526.93" rx="9.39" ry="5.5" transform="translate(-1487.41 5045.38) rotate(-89.67)" style="fill: #f7a833"/>
            <ellipse cx="4829.6" cy="1526.93" rx="8.67" ry="5.08" transform="translate(-1487.41 5045.38) rotate(-89.67)" style="fill: #f7a932"/>
            <ellipse cx="4829.6" cy="1526.93" rx="7.95" ry="4.66" transform="translate(-1487.41 5045.38) rotate(-89.67)" style="fill: #f7aa32"/>
            <ellipse cx="4829.6" cy="1526.93" rx="7.23" ry="4.23" transform="matrix(0.01, -1, 1, 0.01, -1487.41, 5045.38)" style="fill: #f7aa31"/>
            <ellipse cx="4829.6" cy="1526.93" rx="6.5" ry="3.81" transform="translate(-1487.41 5045.38) rotate(-89.67)" style="fill: #f7ab31"/>
            <ellipse cx="4829.6" cy="1526.93" rx="5.78" ry="3.39" transform="translate(-1487.41 5045.38) rotate(-89.67)" style="fill: #f7ac31"/>
            <ellipse cx="4829.6" cy="1526.93" rx="5.06" ry="2.96" transform="matrix(0.01, -1, 1, 0.01, -1487.41, 5045.38)" style="fill: #f7ad2f"/>
            <ellipse cx="4829.6" cy="1526.93" rx="4.34" ry="2.54" transform="translate(-1487.41 5045.38) rotate(-89.67)" style="fill: #f8ad2f"/>
            <ellipse cx="4829.6" cy="1526.93" rx="3.61" ry="2.12" transform="translate(-1487.41 5045.38) rotate(-89.67)" style="fill: #f8ae2e"/>
            <ellipse cx="4829.6" cy="1526.93" rx="2.89" ry="1.69" transform="translate(-1487.41 5045.38) rotate(-89.67)" style="fill: #f8af2e"/>
            <ellipse cx="4829.6" cy="1526.93" rx="2.17" ry="1.27" transform="translate(-1487.41 5045.38) rotate(-89.67)" style="fill: #f8b02d"/>
            <ellipse cx="4829.6" cy="1526.93" rx="1.45" ry="0.85" transform="translate(-1487.41 5045.38) rotate(-89.67)" style="fill: #f8b02d"/>
            <ellipse cx="4829.6" cy="1526.93" rx="0.72" ry="0.42" transform="translate(-1487.41 5045.38) rotate(-89.67)" style="fill: #f8b12c"/>
          </g>
          <g style="clip-path: url(#b)">
            <rect x="56.1" y="161.95" width="22.21" height="109.91" style="fill: #ed7623"/>
            <path d="M4830.1,1573c-4.07,0-8-2.73-11.52-7.73a53.39,53.39,0,0,1-5.06-9.12h3.93v-92.71h23.68v101.71h0.39C4838,1570.21,4834.17,1573,4830.1,1573Z" transform="translate(-4762.1 -1302.22)" style="fill: #ed7623"/>
            <path d="M4830.1,1572.78c-4.06,0-7.94-2.73-11.49-7.72a53.27,53.27,0,0,1-5-9.1h3.9v-92.51h23.68V1565h0.36C4838,1570,4834.16,1572.76,4830.1,1572.78Z" transform="translate(-4762.1 -1302.22)" style="fill: #ed7623"/>
            <path d="M4830.09,1572.54c-4,0-7.92-2.72-11.46-7.7a53.14,53.14,0,0,1-5-9.07h3.86v-92.31h23.68v101.27h0.33C4838,1569.74,4834.14,1572.52,4830.09,1572.54Z" transform="translate(-4762.1 -1302.22)" style="fill: #ed7623"/>
            <path d="M4830.09,1572.3c-4,0-7.9-2.71-11.43-7.68a53,53,0,0,1-5-9.05h3.82v-92.11h23.68v101h0.3C4838,1569.51,4834.13,1572.28,4830.09,1572.3Z" transform="translate(-4762.1 -1302.22)" style="fill: #ed7623"/>
            <path d="M4830.09,1572.06c-4,0-7.88-2.71-11.4-7.66a52.87,52.87,0,0,1-5-9h3.78v-91.91h23.68v100.82h0.27C4837.95,1569.27,4834.12,1572,4830.09,1572.06Z" transform="translate(-4762.1 -1302.22)" style="fill: #ed7623"/>
            <path d="M4830.09,1571.82c-4,0-7.86-2.7-11.38-7.64a52.75,52.75,0,0,1-5-9h3.74v-91.71h23.68v100.6h0.24C4837.93,1569,4834.11,1571.8,4830.09,1571.82Z" transform="translate(-4762.1 -1302.22)" style="fill: #ed7623"/>
            <path d="M4830.09,1571.58c-4,0-7.85-2.69-11.35-7.62a52.62,52.62,0,0,1-5-9h3.7v-91.51h23.68v100.38h0.21C4837.91,1568.81,4834.1,1571.56,4830.09,1571.58Z" transform="translate(-4762.1 -1302.22)" style="fill: #ed7623"/>
            <path d="M4830.09,1571.34c-4,0-7.83-2.69-11.32-7.6a52.48,52.48,0,0,1-5-9h3.66v-91.31h23.68v100.16h0.18C4837.88,1568.57,4834.09,1571.32,4830.09,1571.34Z" transform="translate(-4762.1 -1302.22)" style="fill: #ed7623"/>
            <path d="M4830.09,1571.1c-4,0-7.81-2.68-11.29-7.58a52.35,52.35,0,0,1-5-8.94h3.62v-91.11h23.68v99.93h0.16C4837.86,1568.34,4834.08,1571.08,4830.09,1571.1Z" transform="translate(-4762.1 -1302.22)" style="fill: #ed7623"/>
            <path d="M4830.09,1570.86c-4,0-7.79-2.67-11.26-7.57a52.23,52.23,0,0,1-4.95-8.92h3.58v-90.91h23.68v99.71h0.13C4837.84,1568.1,4834.07,1570.84,4830.09,1570.86Z" transform="translate(-4762.1 -1302.22)" style="fill: #ed7623"/>
            <path d="M4830.08,1570.61c-4,0-7.77-2.67-11.24-7.55a52.1,52.1,0,0,1-4.93-8.9h3.54v-90.71h23.68V1563h0.1C4837.82,1567.87,4834.05,1570.59,4830.08,1570.61Z" transform="translate(-4762.1 -1302.22)" style="fill: #ed7623"/>
            <path d="M4830.08,1570.37c-4,0-7.75-2.66-11.21-7.53A52,52,0,0,1,4814,1554h3.51v-90.51h23.68v99.27h0.07C4837.8,1567.63,4834,1570.35,4830.08,1570.37Z" transform="translate(-4762.1 -1302.22)" style="fill: #ed7623"/>
            <path d="M4830.08,1570.13c-4,0-7.73-2.66-11.18-7.51a51.83,51.83,0,0,1-4.91-8.85h3.47v-90.31h23.68v99h0C4837.78,1567.4,4834,1570.11,4830.08,1570.13Z" transform="translate(-4762.1 -1302.22)" style="fill: #ed7623"/>
            <path d="M4830.08,1569.89c-3.94,0-7.71-2.65-11.15-7.49a51.71,51.71,0,0,1-4.9-8.83h3.43v-90.11h23.68v98.82h0C4837.76,1567.17,4834,1569.87,4830.08,1569.89Z" transform="translate(-4762.1 -1302.22)" style="fill: #ed7623"/>
            <path d="M4830.08,1569.65c-3.93,0-7.69-2.64-11.12-7.47a51.58,51.58,0,0,1-4.88-8.81h3.39v-89.91h23.68v89.75h4.77a51.52,51.52,0,0,1-4.79,8.86C4837.74,1566.93,4834,1569.63,4830.08,1569.65Z" transform="translate(-4762.1 -1302.22)" style="fill: #ed7623"/>
            <path d="M4830.08,1569.41c-3.92,0-7.67-2.64-11.1-7.45a51.45,51.45,0,0,1-4.87-8.78h3.35v-89.7h23.68V1553h4.73a51.39,51.39,0,0,1-4.78,8.83C4837.72,1566.7,4834,1569.39,4830.08,1569.41Z" transform="translate(-4762.1 -1302.22)" style="fill: #ed7623"/>
            <path d="M4830.08,1569.17c-3.91,0-7.65-2.63-11.07-7.43a51.32,51.32,0,0,1-4.86-8.76h3.31v-89.5h23.68v89.35h4.69a51.26,51.26,0,0,1-4.76,8.81C4837.7,1566.46,4834,1569.15,4830.08,1569.17Z" transform="translate(-4762.1 -1302.22)" style="fill: #ed7623"/>
            <path d="M4830.08,1568.93c-3.9,0-7.63-2.62-11-7.42a51.18,51.18,0,0,1-4.85-8.74h3.27v-89.3h23.68v89.15h4.65a51.12,51.12,0,0,1-4.75,8.79C4837.68,1566.23,4834,1568.91,4830.08,1568.93Z" transform="translate(-4762.1 -1302.22)" style="fill: #ed7623"/>
            <path d="M4830.07,1568.69c-3.89,0-7.61-2.62-11-7.4a51.06,51.06,0,0,1-4.84-8.72h3.23v-89.1h23.68v88.95h4.6a51,51,0,0,1-4.74,8.77C4837.66,1566,4834,1568.67,4830.07,1568.69Z" transform="translate(-4762.1 -1302.22)" style="fill: #ed7623"/>
            <path d="M4830.07,1568.44c-3.88,0-7.59-2.61-11-7.38a50.93,50.93,0,0,1-4.82-8.7h3.19v-88.9h23.68v88.75h4.56A50.87,50.87,0,0,1,4841,1561C4837.64,1565.76,4834,1568.43,4830.07,1568.44Z" transform="translate(-4762.1 -1302.22)" style="fill: #ed7623"/>
            <path d="M4830.07,1568.2c-3.87,0-7.57-2.6-11-7.36a50.8,50.8,0,0,1-4.81-8.67h3.15v-88.7h23.68V1552h4.52a50.74,50.74,0,0,1-4.72,8.72C4837.62,1565.53,4833.94,1568.18,4830.07,1568.2Z" transform="translate(-4762.1 -1302.22)" style="fill: #ed7623"/>
            <path d="M4830.07,1568c-3.86,0-7.56-2.6-10.93-7.34a50.67,50.67,0,0,1-4.8-8.65h3.12v-88.5h23.68v88.35h4.48a50.61,50.61,0,0,1-4.7,8.7C4837.6,1565.29,4833.93,1567.94,4830.07,1568Z" transform="translate(-4762.1 -1302.22)" style="fill: #ed7623"/>
            <path d="M4830.07,1567.72c-3.85,0-7.54-2.59-10.9-7.32a50.54,50.54,0,0,1-4.79-8.63h3.08v-88.3h23.68v88.15h4.44a50.48,50.48,0,0,1-4.69,8.68C4837.58,1565.06,4833.92,1567.7,4830.07,1567.72Z" transform="translate(-4762.1 -1302.22)" style="fill: #ed7723"/>
            <path d="M4830.07,1567.48c-3.84,0-7.52-2.58-10.87-7.3a50.41,50.41,0,0,1-4.77-8.61h3v-88.1h23.68v87.95h4.4a50.35,50.35,0,0,1-4.68,8.65C4837.55,1564.82,4833.91,1567.46,4830.07,1567.48Z" transform="translate(-4762.1 -1302.22)" style="fill: #ed7724"/>
            <path d="M4830.07,1567.24c-3.83,0-7.5-2.58-10.84-7.28a50.28,50.28,0,0,1-4.76-8.59h3v-87.9h23.68v87.75h4.36a50.23,50.23,0,0,1-4.67,8.63C4837.53,1564.59,4833.9,1567.22,4830.07,1567.24Z" transform="translate(-4762.1 -1302.22)" style="fill: #ed7724"/>
            <path d="M4830.06,1567c-3.82,0-7.48-2.57-10.82-7.26a50.15,50.15,0,0,1-4.75-8.56h3v-87.7h23.68V1551h4.32a50.1,50.1,0,0,1-4.66,8.61C4837.51,1564.35,4833.89,1567,4830.06,1567Z" transform="translate(-4762.1 -1302.22)" style="fill: #ed7724"/>
            <path d="M4830.06,1566.76c-3.81,0-7.46-2.56-10.79-7.25a50,50,0,0,1-4.74-8.54h2.92v-87.5h23.68v87.35h4.27a50,50,0,0,1-4.64,8.59C4837.49,1564.12,4833.88,1566.74,4830.06,1566.76Z" transform="translate(-4762.1 -1302.22)" style="fill: #ed7724"/>
            <path d="M4830.06,1566.52c-3.8,0-7.44-2.56-10.76-7.23a49.89,49.89,0,0,1-4.72-8.52h2.88v-87.3h23.68v87.15h4.23a49.84,49.84,0,0,1-4.63,8.57C4837.47,1563.89,4833.86,1566.5,4830.06,1566.52Z" transform="translate(-4762.1 -1302.22)" style="fill: #ed7724"/>
            <path d="M4830.06,1566.27c-3.79,0-7.42-2.55-10.73-7.21a49.76,49.76,0,0,1-4.71-8.5h2.84v-87.1h23.68v86.95h4.19a49.7,49.7,0,0,1-4.62,8.54C4837.45,1563.65,4833.85,1566.26,4830.06,1566.27Z" transform="translate(-4762.1 -1302.22)" style="fill: #ed7724"/>
            <path d="M4830.06,1566c-3.78,0-7.4-2.54-10.7-7.19a49.63,49.63,0,0,1-4.7-8.47h2.8v-86.9h23.68v86.75h4.15a49.57,49.57,0,0,1-4.61,8.52C4837.43,1563.42,4833.84,1566,4830.06,1566Z" transform="translate(-4762.1 -1302.22)" style="fill: #ed7724"/>
            <path d="M4830.06,1565.79c-3.77,0-7.38-2.54-10.68-7.17a49.5,49.5,0,0,1-4.69-8.45h2.77v-86.7h23.68V1550h4.11a49.45,49.45,0,0,1-4.59,8.5C4837.41,1563.18,4833.83,1565.77,4830.06,1565.79Z" transform="translate(-4762.1 -1302.22)" style="fill: #ee7825"/>
            <path d="M4830.06,1565.55c-3.76,0-7.36-2.53-10.65-7.15a49.37,49.37,0,0,1-4.68-8.43h2.73v-86.5h23.68v86.35h4.07a49.32,49.32,0,0,1-4.58,8.48C4837.39,1562.95,4833.82,1565.53,4830.06,1565.55Z" transform="translate(-4762.1 -1302.22)" style="fill: #ee7825"/>
            <path d="M4830.06,1565.31c-3.75,0-7.34-2.52-10.62-7.13a49.24,49.24,0,0,1-4.66-8.41h2.69v-86.3h23.68v86.15h4a49.19,49.19,0,0,1-4.57,8.45C4837.37,1562.71,4833.81,1565.29,4830.06,1565.31Z" transform="translate(-4762.1 -1302.22)" style="fill: #ee7825"/>
            <path d="M4830.05,1565.07c-3.74,0-7.32-2.52-10.59-7.11a49.11,49.11,0,0,1-4.65-8.39h2.65v-86.1h23.68v85.95h4a49.06,49.06,0,0,1-4.56,8.43C4837.35,1562.48,4833.8,1565,4830.05,1565.07Z" transform="translate(-4762.1 -1302.22)" style="fill: #ee7825"/>
            <path d="M4830.05,1564.83c-3.73,0-7.3-2.51-10.56-7.1a49,49,0,0,1-4.64-8.36h2.61v-85.9h23.68v85.75h3.95a48.92,48.92,0,0,1-4.55,8.41C4837.33,1562.25,4833.79,1564.81,4830.05,1564.83Z" transform="translate(-4762.1 -1302.22)" style="fill: #ee7825"/>
            <path d="M4830.05,1564.59c-3.72,0-7.28-2.5-10.54-7.08a48.85,48.85,0,0,1-4.63-8.34h2.57v-85.7h23.68V1549h3.9a48.8,48.8,0,0,1-4.53,8.39C4837.31,1562,4833.77,1564.57,4830.05,1564.59Z" transform="translate(-4762.1 -1302.22)" style="fill: #ee7826"/>
            <path d="M4830,1564.35c-3.71,0-7.26-2.5-10.51-7.06a48.72,48.72,0,0,1-4.61-8.32h2.53v-85.5h23.68v85.35H4845a48.67,48.67,0,0,1-4.52,8.37C4837.29,1561.78,4833.76,1564.33,4830,1564.35Z" transform="translate(-4762.1 -1302.22)" style="fill: #ee7926"/>
            <path d="M4830,1564.1c-3.7,0-7.25-2.49-10.48-7a48.59,48.59,0,0,1-4.6-8.3h2.49v-85.3h23.68v85.15H4845a48.53,48.53,0,0,1-4.51,8.34C4837.27,1561.54,4833.75,1564.09,4830,1564.1Z" transform="translate(-4762.1 -1302.22)" style="fill: #ee7926"/>
            <path d="M4830,1563.86c-3.69,0-7.23-2.48-10.45-7a48.46,48.46,0,0,1-4.59-8.27h2.45v-85.1h23.68v85h3.78a48.41,48.41,0,0,1-4.5,8.32C4837.25,1561.31,4833.74,1563.84,4830,1563.86Z" transform="translate(-4762.1 -1302.22)" style="fill: #ee7926"/>
            <path d="M4830,1563.62c-3.68,0-7.21-2.48-10.42-7a48.33,48.33,0,0,1-4.58-8.25h2.41v-84.9h23.68v84.75h3.74a48.28,48.28,0,0,1-4.49,8.3C4837.23,1561.07,4833.73,1563.6,4830,1563.62Z" transform="translate(-4762.1 -1302.22)" style="fill: #ee7926"/>
            <path d="M4830,1563.38c-3.67,0-7.19-2.47-10.4-7a48.2,48.2,0,0,1-4.56-8.23h2.38v-84.7h23.68V1548h3.7a48.14,48.14,0,0,1-4.47,8.28C4837.2,1560.84,4833.72,1563.36,4830,1563.38Z" transform="translate(-4762.1 -1302.22)" style="fill: #ee7a27"/>
            <path d="M4830,1563.14c-3.66,0-7.17-2.46-10.37-7a48.07,48.07,0,0,1-4.55-8.21h2.34v-84.5h23.68v84.35h3.66a48,48,0,0,1-4.46,8.25C4837.18,1560.61,4833.71,1563.12,4830,1563.14Z" transform="translate(-4762.1 -1302.22)" style="fill: #ee7a27"/>
            <path d="M4830,1562.9c-3.65,0-7.15-2.46-10.34-6.95a47.94,47.94,0,0,1-4.54-8.19h2.3v-84.3h23.68v84.15h3.62a47.88,47.88,0,0,1-4.45,8.23C4837.16,1560.37,4833.7,1562.88,4830,1562.9Z" transform="translate(-4762.1 -1302.22)" style="fill: #ee7a27"/>
            <path d="M4830,1562.66c-3.64,0-7.13-2.45-10.31-6.93a47.81,47.81,0,0,1-4.53-8.16h2.26v-84.1h23.68v84h3.57a47.76,47.76,0,0,1-4.44,8.21C4837.14,1560.14,4833.68,1562.64,4830,1562.66Z" transform="translate(-4762.1 -1302.22)" style="fill: #ee7a28"/>
            <path d="M4830,1562.42c-3.63,0-7.11-2.44-10.28-6.91a47.68,47.68,0,0,1-4.52-8.14h2.22v-83.9h23.68v83.75h3.53a47.63,47.63,0,0,1-4.43,8.19C4837.12,1559.9,4833.67,1562.4,4830,1562.42Z" transform="translate(-4762.1 -1302.22)" style="fill: #ee7a28"/>
            <path d="M4830,1562.18c-3.62,0-7.09-2.44-10.26-6.89a47.55,47.55,0,0,1-4.5-8.12h2.18v-83.7h23.68V1547h3.49a47.5,47.5,0,0,1-4.41,8.16C4837.1,1559.67,4833.66,1562.16,4830,1562.18Z" transform="translate(-4762.1 -1302.22)" style="fill: #ee7a28"/>
            <path d="M4830,1561.93c-3.61,0-7.07-2.43-10.23-6.87a47.42,47.42,0,0,1-4.49-8.1h2.14v-83.5h23.68v83.35h3.45a47.37,47.37,0,0,1-4.4,8.14C4837.08,1559.43,4833.65,1561.92,4830,1561.93Z" transform="translate(-4762.1 -1302.22)" style="fill: #ee7a28"/>
            <path d="M4830,1561.69c-3.6,0-7.05-2.42-10.2-6.85a47.29,47.29,0,0,1-4.48-8.08h2.1v-83.3h23.68v83.15h3.41a47.24,47.24,0,0,1-4.39,8.12C4837.06,1559.2,4833.64,1561.67,4830,1561.69Z" transform="translate(-4762.1 -1302.22)" style="fill: #ee7b29"/>
            <path d="M4830,1561.45c-3.59,0-7-2.42-10.17-6.83a47.16,47.16,0,0,1-4.47-8.05h2.06v-83.1h23.68v83h3.37a47.11,47.11,0,0,1-4.38,8.1C4837,1559,4833.63,1561.43,4830,1561.45Z" transform="translate(-4762.1 -1302.22)" style="fill: #ee7b29"/>
            <path d="M4830,1561.21c-3.58,0-7-2.41-10.14-6.81a47,47,0,0,1-4.45-8h2v-82.9h23.68v82.75h3.33a47,47,0,0,1-4.37,8.08C4837,1558.73,4833.62,1561.19,4830,1561.21Z" transform="translate(-4762.1 -1302.22)" style="fill: #ee7b2a"/>
            <path d="M4830,1561c-3.57,0-7-2.4-10.12-6.79a46.9,46.9,0,0,1-4.44-8h2v-82.7h23.68V1546h3.29a46.86,46.86,0,0,1-4.35,8.05C4837,1558.5,4833.61,1561,4830,1561Z" transform="translate(-4762.1 -1302.22)" style="fill: #ee7c2a"/>
            <path d="M4830,1560.73c-3.56,0-7-2.4-10.09-6.78a46.77,46.77,0,0,1-4.43-8h1.95v-82.5h23.68v82.35h3.25a46.72,46.72,0,0,1-4.34,8C4837,1558.26,4833.6,1560.71,4830,1560.73Z" transform="translate(-4762.1 -1302.22)" style="fill: #ee7c2a"/>
            <path d="M4830,1560.49c-3.55,0-7-2.39-10.06-6.76a46.65,46.65,0,0,1-4.42-8h1.91v-82.3h23.68v82.15h3.2a46.59,46.59,0,0,1-4.33,8C4837,1558,4833.58,1560.47,4830,1560.49Z" transform="translate(-4762.1 -1302.22)" style="fill: #ee7c2b"/>
            <path d="M4830,1560.25c-3.55,0-6.94-2.38-10-6.74a46.51,46.51,0,0,1-4.4-7.94h1.87v-82.1h23.68v82h3.16a46.46,46.46,0,0,1-4.32,8C4836.94,1557.79,4833.57,1560.23,4830,1560.25Z" transform="translate(-4762.1 -1302.22)" style="fill: #ee7d2b"/>
            <path d="M4830,1560c-3.54,0-6.92-2.38-10-6.72a46.38,46.38,0,0,1-4.39-7.92h1.83v-81.9h23.68v81.76h3.12a46.33,46.33,0,0,1-4.31,8C4836.92,1557.56,4833.56,1560,4830,1560Z" transform="translate(-4762.1 -1302.22)" style="fill: #ee7d2b"/>
            <path d="M4830,1559.76c-3.53,0-6.9-2.37-10-6.7a46.26,46.26,0,0,1-4.38-7.9h1.79v-81.7h23.68V1545h3.08a46.2,46.2,0,0,1-4.29,7.94C4836.9,1557.33,4833.55,1559.75,4830,1559.76Z" transform="translate(-4762.1 -1302.22)" style="fill: #ee7d2c"/>
            <path d="M4830,1559.52c-3.52,0-6.88-2.36-9.95-6.68a46.12,46.12,0,0,1-4.37-7.88h1.75v-81.5h23.68v81.36h3a46.07,46.07,0,0,1-4.28,7.92C4836.87,1557.09,4833.54,1559.51,4830,1559.52Z" transform="translate(-4762.1 -1302.22)" style="fill: #ef7e2c"/>
            <path d="M4830,1559.28c-3.51,0-6.86-2.36-9.92-6.66a46,46,0,0,1-4.36-7.85h1.71v-81.3h23.68v81.16h3a45.94,45.94,0,0,1-4.27,7.9C4836.85,1556.86,4833.53,1559.26,4830,1559.28Z" transform="translate(-4762.1 -1302.22)" style="fill: #ef7e2d"/>
            <path d="M4830,1559c-3.5,0-6.84-2.35-9.89-6.64a45.86,45.86,0,0,1-4.34-7.83h1.67v-81.1h23.68v81h3a45.81,45.81,0,0,1-4.26,7.87C4836.83,1556.62,4833.52,1559,4830,1559Z" transform="translate(-4762.1 -1302.22)" style="fill: #ef7f2d"/>
            <path d="M4830,1558.8c-3.49,0-6.82-2.34-9.86-6.63a45.74,45.74,0,0,1-4.33-7.81h1.63v-80.9h23.68v80.76h2.92a45.68,45.68,0,0,1-4.25,7.85C4836.81,1556.39,4833.51,1558.78,4830,1558.8Z" transform="translate(-4762.1 -1302.22)" style="fill: #ef7f2e"/>
            <path d="M4830,1558.56c-3.48,0-6.8-2.34-9.84-6.61a45.6,45.6,0,0,1-4.32-7.79h1.6v-80.7h23.68V1544H4844a45.55,45.55,0,0,1-4.23,7.83C4836.79,1556.15,4833.49,1558.54,4830,1558.56Z" transform="translate(-4762.1 -1302.22)" style="fill: #ef802e"/>
            <path d="M4830,1558.32c-3.47,0-6.78-2.33-9.81-6.59a45.48,45.48,0,0,1-4.31-7.76h1.56v-80.5h23.68v80.36H4844a45.42,45.42,0,0,1-4.22,7.81C4836.77,1555.92,4833.48,1558.3,4830,1558.32Z" transform="translate(-4762.1 -1302.22)" style="fill: #ef802f"/>
            <path d="M4830,1558.08c-3.46,0-6.76-2.32-9.78-6.57a45.34,45.34,0,0,1-4.29-7.74h1.52v-80.3h23.68v80.16h2.79a45.3,45.3,0,0,1-4.21,7.79C4836.75,1555.69,4833.47,1558.06,4830,1558.08Z" transform="translate(-4762.1 -1302.22)" style="fill: #ef802f"/>
            <path d="M4830,1557.83c-3.45,0-6.74-2.32-9.75-6.55a45.21,45.21,0,0,1-4.28-7.72h1.48v-80.1h23.68v80h2.75a45.16,45.16,0,0,1-4.2,7.76C4836.73,1555.45,4833.46,1557.82,4830,1557.83Z" transform="translate(-4762.1 -1302.22)" style="fill: #ef802f"/>
            <path d="M4830,1557.59c-3.44,0-6.72-2.31-9.72-6.53a45.08,45.08,0,0,1-4.27-7.7h1.44v-79.9h23.68v79.76h2.71a45,45,0,0,1-4.19,7.74C4836.71,1555.22,4833.45,1557.58,4830,1557.59Z" transform="translate(-4762.1 -1302.22)" style="fill: #ef802f"/>
            <path d="M4830,1557.35c-6.85,0-13.11-9.28-17.68-24.36h5.13v-69.52h23.68V1543h2.67a44.91,44.91,0,0,1-4.17,7.72C4836.69,1555,4833.44,1557.34,4830,1557.35Z" transform="translate(-4762.1 -1302.22)" style="fill: #ef8130"/>
            <path d="M4830,1557.11c-6.83,0-13.07-9.25-17.63-24.29h5.08v-69.35h23.68v79.36h2.63a44.78,44.78,0,0,1-4.16,7.7C4836.67,1554.75,4833.43,1557.09,4830,1557.11Z" transform="translate(-4762.1 -1302.22)" style="fill: #ef8130"/>
            <path d="M4830,1556.87c-6.81,0-13-9.23-17.58-24.22h5v-69.18h23.68v79.16h2.59a44.65,44.65,0,0,1-4.15,7.67C4836.65,1554.51,4833.42,1556.85,4830,1556.87Z" transform="translate(-4762.1 -1302.22)" style="fill: #ef8231"/>
            <path d="M4830,1556.63c-6.79,0-13-9.2-17.53-24.15h5v-69h23.68v79h2.55a44.51,44.51,0,0,1-4.14,7.65C4836.63,1554.28,4833.4,1556.61,4830,1556.63Z" transform="translate(-4762.1 -1302.22)" style="fill: #f08232"/>
            <path d="M4830,1556.39c-6.77,0-13-9.17-17.48-24.08h4.93v-68.84h23.68v78.76h2.5a44.39,44.39,0,0,1-4.12,7.63C4836.61,1554,4833.39,1556.37,4830,1556.39Z" transform="translate(-4762.1 -1302.22)" style="fill: #f08232"/>
            <path d="M4830,1556.15c-6.75,0-12.92-9.15-17.43-24h4.88v-68.67h23.68V1542h2.46a44.26,44.26,0,0,1-4.11,7.61C4836.59,1553.81,4833.38,1556.13,4830,1556.15Z" transform="translate(-4762.1 -1302.22)" style="fill: #f08333"/>
            <path d="M4830,1555.91c-6.73,0-12.88-9.12-17.37-23.94h4.83v-68.5h23.68v78.36h2.42a44.13,44.13,0,0,1-4.1,7.58C4836.57,1553.58,4833.37,1555.89,4830,1555.91Z" transform="translate(-4762.1 -1302.22)" style="fill: #f08333"/>
            <path d="M4830,1555.66c-6.71,0-12.84-9.09-17.32-23.87h4.78v-68.33h23.68v78.16h2.38a44,44,0,0,1-4.09,7.56C4836.55,1553.34,4833.36,1555.65,4830,1555.66Z" transform="translate(-4762.1 -1302.22)" style="fill: #f08434"/>
            <path d="M4830,1555.42c-6.69,0-12.8-9.06-17.27-23.8h4.73v-68.16h23.68v78h2.34a43.87,43.87,0,0,1-4.08,7.54C4836.52,1553.11,4833.35,1555.41,4830,1555.42Z" transform="translate(-4762.1 -1302.22)" style="fill: #f08535"/>
            <path d="M4830,1555.18c-6.67,0-12.77-9-17.22-23.73h4.68v-68h23.68v77.76h2.3a43.73,43.73,0,0,1-4.06,7.52C4836.5,1552.87,4833.34,1555.17,4830,1555.18Z" transform="translate(-4762.1 -1302.22)" style="fill: #f08535"/>
            <path d="M4830,1554.94c-6.65,0-12.73-9-17.17-23.66h4.63v-67.81h23.68V1541h2.26a43.61,43.61,0,0,1-4.05,7.5C4836.48,1552.64,4833.33,1554.92,4830,1554.94Z" transform="translate(-4762.1 -1302.22)" style="fill: #f08636"/>
            <path d="M4830,1554.7c-6.63,0-12.69-9-17.12-23.59h4.58v-67.64h23.68v77.36h2.22a43.48,43.48,0,0,1-4,7.47C4836.46,1552.41,4833.31,1554.68,4830,1554.7Z" transform="translate(-4762.1 -1302.22)" style="fill: #f08637"/>
            <path d="M4830,1554.46c-6.62,0-12.65-9-17.07-23.52h4.53v-67.47h23.68v77.16h2.18a43.35,43.35,0,0,1-4,7.45C4836.44,1552.17,4833.3,1554.44,4830,1554.46Z" transform="translate(-4762.1 -1302.22)" style="fill: #f08738"/>
            <path d="M4830,1554.22c-6.6,0-12.62-8.93-17-23.45h4.48v-67.3h23.68v77h2.13a43.22,43.22,0,0,1-4,7.43C4836.42,1551.94,4833.29,1554.2,4830,1554.22Z" transform="translate(-4762.1 -1302.22)" style="fill: #f08838"/>
            <path d="M4830,1554c-6.58,0-12.58-8.9-17-23.38h4.43v-67.13h23.68v76.76h2.09a43.09,43.09,0,0,1-4,7.41C4836.4,1551.7,4833.28,1554,4830,1554Z" transform="translate(-4762.1 -1302.22)" style="fill: #f08839"/>
            <path d="M4830,1553.74c-6.56,0-12.54-8.88-16.91-23.31h4.38v-67h23.68V1540h2.05a43,43,0,0,1-4,7.38C4836.38,1551.47,4833.27,1553.72,4830,1553.74Z" transform="translate(-4762.1 -1302.22)" style="fill: #f1893a"/>
            <path d="M4830,1553.49c-6.54,0-12.5-8.85-16.86-23.24h4.33v-66.79h23.68v76.36h2a42.83,42.83,0,0,1-4,7.36C4836.36,1551.23,4833.26,1553.48,4830,1553.49Z" transform="translate(-4762.1 -1302.22)" style="fill: #f18a3b"/>
            <path d="M4830,1553.25c-6.52,0-12.46-8.82-16.81-23.17h4.28v-66.62h23.68v76.16h2a42.7,42.7,0,0,1-4,7.34C4836.34,1551,4833.25,1553.24,4830,1553.25Z" transform="translate(-4762.1 -1302.22)" style="fill: #f18a3b"/>
            <path d="M4830,1553c-6.5,0-12.43-8.8-16.76-23.1h4.23v-66.45h23.68v76h1.93a42.57,42.57,0,0,1-4,7.32C4836.32,1550.77,4833.24,1553,4830,1553Z" transform="translate(-4762.1 -1302.22)" style="fill: #f18a3c"/>
            <path d="M4830,1552.77c-6.48,0-12.39-8.77-16.71-23h4.18v-66.28h23.68v75.76H4843a42.44,42.44,0,0,1-3.94,7.3C4836.3,1550.53,4833.22,1552.75,4830,1552.77Z" transform="translate(-4762.1 -1302.22)" style="fill: #f18b3d"/>
            <path d="M4830,1552.53c-6.46,0-12.35-8.74-16.66-23h4.13v-66.11h23.68V1539H4843a42.32,42.32,0,0,1-3.93,7.27C4836.28,1550.3,4833.21,1552.51,4830,1552.53Z" transform="translate(-4762.1 -1302.22)" style="fill: #f18c3e"/>
            <path d="M4830,1552.29c-6.44,0-12.31-8.72-16.61-22.89h4.08v-65.94h23.68v75.36h1.8a42.18,42.18,0,0,1-3.92,7.25C4836.26,1550.06,4833.2,1552.27,4830,1552.29Z" transform="translate(-4762.1 -1302.22)" style="fill: #f18d3f"/>
            <path d="M4830,1552c-6.42,0-12.27-8.69-16.56-22.82h4v-65.76h23.68v75.16h1.76a42.05,42.05,0,0,1-3.91,7.23C4836.24,1549.83,4833.19,1552,4830,1552Z" transform="translate(-4762.1 -1302.22)" style="fill: #f18e40"/>
            <path d="M4830,1551.81c-6.4,0-12.24-8.66-16.51-22.75h4v-65.59h23.68v65.43h5.1C4842.12,1543,4836.38,1551.77,4830,1551.81Z" transform="translate(-4762.1 -1302.22)" style="fill: #f18e40"/>
            <path d="M4830,1551.57c-6.38,0-12.2-8.64-16.46-22.68h3.94v-65.42h23.68v65.26h5C4842.08,1542.81,4836.36,1551.53,4830,1551.57Z" transform="translate(-4762.1 -1302.22)" style="fill: #f28f41"/>
            <path d="M4830,1551.32c-6.36,0-12.16-8.61-16.4-22.61h3.89v-65.25h23.68v65.09h5C4842,1542.59,4836.34,1551.29,4830,1551.32Z" transform="translate(-4762.1 -1302.22)" style="fill: #f29042"/>
            <path d="M4830,1551.08c-6.34,0-12.12-8.58-16.35-22.54h3.84v-65.08h23.68v64.92h4.94C4842,1542.38,4836.32,1551.05,4830,1551.08Z" transform="translate(-4762.1 -1302.22)" style="fill: #f29143"/>
            <path d="M4830,1550.84c-6.32,0-12.09-8.56-16.3-22.46h3.79v-64.91h23.68v64.75H4846C4842,1542.17,4836.29,1550.81,4830,1550.84Z" transform="translate(-4762.1 -1302.22)" style="fill: #f29244"/>
            <path d="M4830,1550.6c-6.3,0-12-8.53-16.25-22.39h3.74v-64.74h23.68V1528H4846C4841.93,1542,4836.27,1550.57,4830,1550.6Z" transform="translate(-4762.1 -1302.22)" style="fill: #f29345"/>
            <path d="M4830,1550.36c-6.28,0-12-8.5-16.2-22.32h3.69v-64.57h23.68v64.41h4.79C4841.89,1541.74,4836.25,1550.33,4830,1550.36Z" transform="translate(-4762.1 -1302.22)" style="fill: #f29446"/>
            <path d="M4830,1550.12c-6.26,0-12-8.48-16.15-22.25h3.64v-64.4h23.68v64.24h4.74C4841.85,1541.52,4836.23,1550.09,4830,1550.12Z" transform="translate(-4762.1 -1302.22)" style="fill: #f39447"/>
            <path d="M4830,1549.88c-6.24,0-11.93-8.45-16.1-22.18h3.59v-64.23h23.68v64.07h4.69C4841.81,1541.31,4836.21,1549.85,4830,1549.88Z" transform="translate(-4762.1 -1302.22)" style="fill: #f39548"/>
            <path d="M4830,1549.64c-6.22,0-11.9-8.42-16-22.11h3.54v-64.06h23.68v63.9h4.63C4841.77,1541.1,4836.19,1549.6,4830,1549.64Z" transform="translate(-4762.1 -1302.22)" style="fill: #f39549"/>
            <path d="M4830,1549.4c-6.2,0-11.86-8.39-16-22h3.49v-63.89h23.68v63.73h4.58C4841.73,1540.88,4836.17,1549.36,4830,1549.4Z" transform="translate(-4762.1 -1302.22)" style="fill: #f3964a"/>
            <path d="M4830,1549.15c-6.18,0-11.82-8.37-15.94-22h3.44v-63.72h23.68V1527h4.53C4841.69,1540.67,4836.15,1549.12,4830,1549.15Z" transform="translate(-4762.1 -1302.22)" style="fill: #f3974b"/>
            <path d="M4830,1548.91c-6.16,0-11.78-8.34-15.89-21.9h3.39v-63.54h23.68v63.39h4.48C4841.66,1540.45,4836.13,1548.88,4830,1548.91Z" transform="translate(-4762.1 -1302.22)" style="fill: #f3984c"/>
            <path d="M4830,1548.67c-6.14,0-11.74-8.31-15.84-21.83h3.34v-63.37h23.68v63.22h4.43C4841.62,1540.24,4836.1,1548.64,4830,1548.67Z" transform="translate(-4762.1 -1302.22)" style="fill: #f3994d"/>
            <path d="M4830,1548.43c-6.12,0-11.71-8.29-15.79-21.76h3.29v-63.2h23.68v63h4.38C4841.58,1540,4836.08,1548.4,4830,1548.43Z" transform="translate(-4762.1 -1302.22)" style="fill: #f39a4f"/>
            <path d="M4830,1548.19c-6.1,0-11.67-8.26-15.74-21.69h3.24v-63h23.68v62.88h4.32C4841.54,1539.81,4836.06,1548.16,4830,1548.19Z" transform="translate(-4762.1 -1302.22)" style="fill: #f49b50"/>
            <path d="M4830,1547.95c-6.08,0-11.63-8.23-15.69-21.62h3.19v-62.86h23.68v62.71h4.27C4841.5,1539.6,4836,1547.92,4830,1547.95Z" transform="translate(-4762.1 -1302.22)" style="fill: #f49d51"/>
            <path d="M4830,1547.71c-6.06,0-11.59-8.21-15.64-21.55h3.14v-62.69h23.68V1526h4.22C4841.46,1539.38,4836,1547.68,4830,1547.71Z" transform="translate(-4762.1 -1302.22)" style="fill: #f49d52"/>
            <path d="M4830,1547.47c-6,0-11.56-8.18-15.59-21.48h3.09v-62.52h23.68v62.36h4.17C4841.42,1539.17,4836,1547.44,4830,1547.47Z" transform="translate(-4762.1 -1302.22)" style="fill: #f49e53"/>
            <path d="M4830,1547.22c-6,0-11.52-8.15-15.54-21.41h3v-62.35h23.68v62.19h4.12C4841.38,1539,4836,1547.19,4830,1547.22Z" transform="translate(-4762.1 -1302.22)" style="fill: #f49f54"/>
            <path d="M4830,1547c-6,0-11.48-8.13-15.49-21.34h3v-62.18h23.68v62h4.07C4841.35,1538.74,4836,1547,4830,1547Z" transform="translate(-4762.1 -1302.22)" style="fill: #f4a056"/>
            <path d="M4830,1546.74c-6,0-11.44-8.1-15.43-21.27h2.94v-62h23.68v61.85h4C4841.31,1538.53,4835.94,1546.71,4830,1546.74Z" transform="translate(-4762.1 -1302.22)" style="fill: #f4a157"/>
            <path d="M4830,1546.5c-6,0-11.4-8.07-15.38-21.2h2.89v-61.84h23.68v61.68h4C4841.27,1538.31,4835.91,1546.47,4830,1546.5Z" transform="translate(-4762.1 -1302.22)" style="fill: #f5a258"/>
            <path d="M4830,1546.26c-5.94,0-11.37-8-15.33-21.13h2.84v-61.67h23.68V1525h3.91C4841.23,1538.1,4835.89,1546.23,4830,1546.26Z" transform="translate(-4762.1 -1302.22)" style="fill: #f5a359"/>
            <path d="M4829.95,1546c-5.92,0-11.33-8-15.28-21.06h2.79v-61.5h23.68v61.34H4845C4841.19,1537.89,4835.87,1546,4829.95,1546Z" transform="translate(-4762.1 -1302.22)" style="fill: #f5a45b"/>
            <path d="M4829.95,1545.78c-5.9,0-11.29-8-15.23-21h2.74v-61.32h23.68v61.17h3.81C4841.15,1537.67,4835.85,1545.75,4829.95,1545.78Z" transform="translate(-4762.1 -1302.22)" style="fill: #f5a55c"/>
            <path d="M4829.95,1545.54c-5.88,0-11.25-8-15.18-20.92h2.69v-61.15h23.68v61h3.76C4841.11,1537.46,4835.83,1545.51,4829.95,1545.54Z" transform="translate(-4762.1 -1302.22)" style="fill: #f5a65d"/>
            <path d="M4829.95,1545.3c-5.86,0-11.21-7.94-15.13-20.85h2.64v-61h23.68v60.83h3.71C4841.07,1537.24,4835.81,1545.27,4829.95,1545.3Z" transform="translate(-4762.1 -1302.22)" style="fill: #f5a75f"/>
            <path d="M4829.94,1545.05c-5.84,0-11.18-7.91-15.08-20.78h2.59v-60.81h23.68v60.66h3.65C4841,1537,4835.79,1545,4829.94,1545.05Z" transform="translate(-4762.1 -1302.22)" style="fill: #f6a960"/>
            <path d="M4829.94,1544.81c-5.82,0-11.14-7.89-15-20.71h2.54v-60.64h23.68V1524h3.6C4841,1536.82,4835.77,1544.78,4829.94,1544.81Z" transform="translate(-4762.1 -1302.22)" style="fill: #f6a961"/>
            <path d="M4829.94,1544.57c-5.8,0-11.1-7.86-15-20.64h2.49v-60.47h23.68v60.32h3.55C4841,1536.6,4835.75,1544.54,4829.94,1544.57Z" transform="translate(-4762.1 -1302.22)" style="fill: #f6aa63"/>
            <path d="M4829.94,1544.33c-5.78,0-11.06-7.83-14.92-20.56h2.44v-60.3h23.68v60.15h3.5C4840.92,1536.39,4835.72,1544.3,4829.94,1544.33Z" transform="translate(-4762.1 -1302.22)" style="fill: #f6ac65"/>
            <path d="M4829.94,1544.09c-5.76,0-11-7.81-14.87-20.49h2.39v-60.13h23.68v60h3.45C4840.88,1536.17,4835.7,1544.06,4829.94,1544.09Z" transform="translate(-4762.1 -1302.22)" style="fill: #f6ad67"/>
            <path d="M4829.94,1543.85c-5.74,0-11-7.78-14.82-20.42h2.34v-60h23.68v59.81h3.4C4840.84,1536,4835.68,1543.82,4829.94,1543.85Z" transform="translate(-4762.1 -1302.22)" style="fill: #f6ae68"/>
            <path d="M4829.94,1543.61c-5.72,0-10.95-7.75-14.77-20.35h2.29v-59.79h23.68v59.64h3.34C4840.8,1535.75,4835.66,1543.58,4829.94,1543.61Z" transform="translate(-4762.1 -1302.22)" style="fill: #f6af6a"/>
            <path d="M4829.94,1543.37c-5.7,0-10.91-7.72-14.72-20.28h2.24v-59.62h23.68v59.47h3.29C4840.76,1535.53,4835.64,1543.34,4829.94,1543.37Z" transform="translate(-4762.1 -1302.22)" style="fill: #f6b06b"/>
            <path d="M4829.93,1543.13c-5.68,0-10.87-7.7-14.67-20.21h2.19v-59.45h23.68v59.3h3.24C4840.72,1535.32,4835.62,1543.1,4829.93,1543.13Z" transform="translate(-4762.1 -1302.22)" style="fill: #f6b16d"/>
            <path d="M4829.93,1542.88c-5.67,0-10.84-7.67-14.62-20.14h2.14v-59.28h23.68v59.13h3.19C4840.68,1535.1,4835.6,1542.86,4829.93,1542.88Z" transform="translate(-4762.1 -1302.22)" style="fill: #f7b36e"/>
            <path d="M4829.93,1542.64c-5.65,0-10.8-7.64-14.57-20.07h2.09v-59.1h23.68v59h3.14C4840.65,1534.89,4835.58,1542.61,4829.93,1542.64Z" transform="translate(-4762.1 -1302.22)" style="fill: #f7b470"/>
            <path d="M4829.93,1542.4c-5.63,0-10.76-7.62-14.51-20h2v-58.93h23.68v58.79h3.09C4840.61,1534.68,4835.56,1542.37,4829.93,1542.4Z" transform="translate(-4762.1 -1302.22)" style="fill: #f7b571"/>
            <path d="M4829.93,1542.16c-5.61,0-10.72-7.59-14.46-19.93h2v-58.76h23.68v58.62h3C4840.57,1534.46,4835.53,1542.13,4829.93,1542.16Z" transform="translate(-4762.1 -1302.22)" style="fill: #f7b673"/>
            <path d="M4829.93,1541.92c-5.59,0-10.68-7.56-14.41-19.86h1.95v-58.59h23.68v58.45h3C4840.53,1534.25,4835.51,1541.89,4829.93,1541.92Z" transform="translate(-4762.1 -1302.22)" style="fill: #f7b875"/>
            <path d="M4829.93,1541.68c-5.57,0-10.65-7.54-14.36-19.79h1.9v-58.42h23.68v58.28h2.93C4840.49,1534,4835.49,1541.65,4829.93,1541.68Z" transform="translate(-4762.1 -1302.22)" style="fill: #f7b877"/>
            <path d="M4829.92,1541.44c-5.55,0-10.61-7.51-14.31-19.72h1.85v-58.25h23.68v58.11H4844C4840.45,1533.82,4835.47,1541.41,4829.92,1541.44Z" transform="translate(-4762.1 -1302.22)" style="fill: #f8ba79"/>
            <path d="M4829.92,1541.2c-5.53,0-10.57-7.48-14.26-19.65h1.8v-58.08h23.68v57.94H4844C4840.41,1533.61,4835.45,1541.17,4829.92,1541.2Z" transform="translate(-4762.1 -1302.22)" style="fill: #f8bb7a"/>
            <path d="M4829.92,1541c-5.51,0-10.53-7.46-14.21-19.58h1.75v-57.91h23.68v57.77h2.78C4840.37,1533.39,4835.43,1540.93,4829.92,1541Z" transform="translate(-4762.1 -1302.22)" style="fill: #f8bd7c"/>
            <path d="M4829.92,1540.71c-5.49,0-10.5-7.43-14.16-19.51h1.7v-57.74h23.68v57.6h2.72C4840.33,1533.18,4835.41,1540.69,4829.92,1540.71Z" transform="translate(-4762.1 -1302.22)" style="fill: #f8bd7e"/>
            <path d="M4829.92,1540.47c-5.47,0-10.46-7.4-14.11-19.44h1.65v-57.57h23.68v57.43h2.67C4840.3,1533,4835.39,1540.45,4829.92,1540.47Z" transform="translate(-4762.1 -1302.22)" style="fill: #f8bf80"/>
            <path d="M4829.92,1540.23c-5.45,0-10.42-7.38-14.06-19.37h1.6v-57.4h23.68v57.26h2.62C4840.26,1532.75,4835.37,1540.2,4829.92,1540.23Z" transform="translate(-4762.1 -1302.22)" style="fill: #f9c180"/>
            <path d="M4829.92,1540c-5.43,0-10.38-7.35-14-19.3h1.55v-57.23h23.68v57.09h2.57C4840.22,1532.54,4835.34,1540,4829.92,1540Z" transform="translate(-4762.1 -1302.22)" style="fill: #f9c282"/>
            <path d="M4829.92,1539.75c-5.41,0-10.34-7.32-14-19.23h1.5v-57.06h23.68v56.92h2.52C4840.18,1532.32,4835.32,1539.72,4829.92,1539.75Z" transform="translate(-4762.1 -1302.22)" style="fill: #f9c384"/>
            <path d="M4829.91,1539.51c-5.39,0-10.31-7.3-13.9-19.16h1.45v-56.88h23.68v56.75h2.47C4840.14,1532.11,4835.3,1539.48,4829.91,1539.51Z" transform="translate(-4762.1 -1302.22)" style="fill: #f9c586"/>
            <path d="M4829.91,1539.27c-5.37,0-10.27-7.27-13.85-19.09h1.4v-56.71h23.68V1520h2.41C4840.1,1531.9,4835.28,1539.24,4829.91,1539.27Z" transform="translate(-4762.1 -1302.22)" style="fill: #f9c587"/>
            <path d="M4829.91,1539c-5.35,0-10.23-7.24-13.8-19h1.35v-56.54h23.68v56.41h2.36C4840.06,1531.68,4835.26,1539,4829.91,1539Z" transform="translate(-4762.1 -1302.22)" style="fill: #fac78a"/>
            <path d="M4829.91,1538.79c-5.33,0-10.19-7.22-13.75-18.95h1.3v-56.37h23.68v56.24h2.31C4840,1531.47,4835.24,1538.76,4829.91,1538.79Z" transform="translate(-4762.1 -1302.22)" style="fill: #fac98c"/>
            <path d="M4829.91,1538.54c-5.31,0-10.15-7.19-13.7-18.88h1.25v-56.2h23.68v56.07h2.26C4840,1531.25,4835.22,1538.52,4829.91,1538.54Z" transform="translate(-4762.1 -1302.22)" style="fill: #fac98e"/>
            <path d="M4829.91,1538.3c-5.29,0-10.12-7.16-13.65-18.81h1.2v-56h23.68v55.89h2.21C4839.95,1531,4835.2,1538.28,4829.91,1538.3Z" transform="translate(-4762.1 -1302.22)" style="fill: #facb90"/>
            <path d="M4829.91,1538.06c-5.27,0-10.08-7.14-13.6-18.73h1.15v-55.86h23.68v55.72h2.16C4839.91,1530.83,4835.18,1538,4829.91,1538.06Z" transform="translate(-4762.1 -1302.22)" style="fill: #facd92"/>
            <path d="M4829.9,1537.82c-5.25,0-10-7.11-13.54-18.66h1.1v-55.69h23.68V1519h2.11C4839.87,1530.61,4835.15,1537.79,4829.9,1537.82Z" transform="translate(-4762.1 -1302.22)" style="fill: #fbce94"/>
            <path d="M4829.9,1537.58c-5.23,0-10-7.08-13.49-18.59h1v-55.52h23.68v55.38h2.05C4839.83,1530.4,4835.13,1537.55,4829.9,1537.58Z" transform="translate(-4762.1 -1302.22)" style="fill: #fbd096"/>
            <path d="M4829.9,1537.34c-5.21,0-10-7.05-13.44-18.52h1v-55.35h23.68v55.21h2C4839.79,1530.18,4835.11,1537.31,4829.9,1537.34Z" transform="translate(-4762.1 -1302.22)" style="fill: #fbd098"/>
            <path d="M4829.9,1537.1c-5.19,0-9.93-7-13.39-18.45h1v-55.18h23.68v55h2C4839.75,1530,4835.09,1537.07,4829.9,1537.1Z" transform="translate(-4762.1 -1302.22)" style="fill: #fbd29a"/>
            <path d="M4829.9,1536.86c-5.17,0-9.89-7-13.34-18.38h0.9v-55h23.68v54.87h1.9C4839.71,1529.76,4835.07,1536.83,4829.9,1536.86Z" transform="translate(-4762.1 -1302.22)" style="fill: #fbd49c"/>
            <path d="M4829.9,1536.61c-5.15,0-9.85-7-13.29-18.31h0.85v-54.84h23.68v54.7H4843C4839.67,1529.54,4835,1536.59,4829.9,1536.61Z" transform="translate(-4762.1 -1302.22)" style="fill: #fcd59e"/>
            <path d="M4829.9,1536.37c-5.13,0-9.81-6.95-13.24-18.24h0.8v-54.66h23.68V1518h1.8C4839.63,1529.33,4835,1536.35,4829.9,1536.37Z" transform="translate(-4762.1 -1302.22)" style="fill: #fcd7a0"/>
            <path d="M4829.9,1536.13c-5.11,0-9.78-6.92-13.19-18.17h0.75v-54.49h23.68v54.36h1.74C4839.6,1529.11,4835,1536.11,4829.9,1536.13Z" transform="translate(-4762.1 -1302.22)" style="fill: #fcd8a3"/>
            <path d="M4829.89,1535.89c-5.09,0-9.74-6.89-13.14-18.1h0.7v-54.32h23.68v54.19h1.69C4839.56,1528.9,4835,1535.87,4829.89,1535.89Z" transform="translate(-4762.1 -1302.22)" style="fill: #fcdaa5"/>
            <path d="M4829.89,1535.65c-5.07,0-9.7-6.87-13.08-18h0.65v-54.15h23.68v54h1.64C4839.52,1528.69,4835,1535.62,4829.89,1535.65Z" transform="translate(-4762.1 -1302.22)" style="fill: #fcdba7"/>
            <path d="M4829.89,1535.41c-5.05,0-9.66-6.84-13-18h0.6v-54h23.68v53.85h1.59C4839.48,1528.47,4834.94,1535.38,4829.89,1535.41Z" transform="translate(-4762.1 -1302.22)" style="fill: #fcdcaa"/>
            <path d="M4829.89,1535.17c-5,0-9.62-6.81-13-17.89h0.55v-53.81h23.68v53.68h1.54C4839.44,1528.26,4834.92,1535.14,4829.89,1535.17Z" transform="translate(-4762.1 -1302.22)" style="fill: #fcdeac"/>
            <path d="M4829.89,1534.93c-5,0-9.59-6.79-12.93-17.82h0.5v-53.64h23.68V1517h1.49C4839.4,1528,4834.9,1534.9,4829.89,1534.93Z" transform="translate(-4762.1 -1302.22)" style="fill: #fcdfae"/>
            <path d="M4829.89,1534.69c-5,0-9.55-6.76-12.88-17.75h0.45v-53.47h23.68v53.34h1.43C4839.36,1527.83,4834.88,1534.66,4829.89,1534.69Z" transform="translate(-4762.1 -1302.22)" style="fill: #fce1b0"/>
            <path d="M4829.89,1534.44c-5,0-9.51-6.73-12.83-17.68h0.4v-53.3h23.68v53.17h1.38C4839.32,1527.62,4834.86,1534.42,4829.89,1534.44Z" transform="translate(-4762.1 -1302.22)" style="fill: #fde2b2"/>
            <path d="M4829.89,1534.2c-5,0-9.47-6.71-12.78-17.61h0.35v-53.13h23.68v53h1.33C4839.28,1527.4,4834.84,1534.18,4829.89,1534.2Z" transform="translate(-4762.1 -1302.22)" style="fill: #fde4b5"/>
            <path d="M4829.88,1534c-4.93,0-9.44-6.68-12.73-17.54h0.3v-53h23.68v52.83h1.28C4839.25,1527.19,4834.82,1533.94,4829.88,1534Z" transform="translate(-4762.1 -1302.22)" style="fill: #fde5b7"/>
            <path d="M4829.88,1533.72c-4.91,0-9.4-6.65-12.68-17.47h0.25v-52.79h23.68v52.66h1.23C4839.21,1527,4834.8,1533.7,4829.88,1533.72Z" transform="translate(-4762.1 -1302.22)" style="fill: #fde7ba"/>
            <path d="M4829.88,1533.48c-4.89,0-9.36-6.63-12.63-17.4h0.2v-52.62h23.68V1516h1.18C4839.17,1526.76,4834.77,1533.46,4829.88,1533.48Z" transform="translate(-4762.1 -1302.22)" style="fill: #fde9bd"/>
            <path d="M4829.88,1533.24c-4.87,0-9.32-6.6-12.57-17.33h0.15v-52.44h23.68v52.32h1.12C4839.13,1526.55,4834.75,1533.21,4829.88,1533.24Z" transform="translate(-4762.1 -1302.22)" style="fill: #fdebbf"/>
            <path d="M4829.88,1533c-4.85,0-9.28-6.57-12.52-17.26h0.1v-52.27h23.68v52.15h1.07C4839.09,1526.33,4834.73,1533,4829.88,1533Z" transform="translate(-4762.1 -1302.22)" style="fill: #ffecc1"/>
            <path d="M4829.88,1532.76c-4.83,0-9.25-6.55-12.47-17.19h0.05v-52.1h23.68v52h1C4839.05,1526.12,4834.71,1532.73,4829.88,1532.76Z" transform="translate(-4762.1 -1302.22)" style="fill: #ffeec4"/>
            <path d="M4829.88,1532.52c-4.81,0-9.21-6.52-12.42-17.12h0v-51.93h23.68v51.81h1C4839,1525.9,4834.69,1532.49,4829.88,1532.52Z" transform="translate(-4762.1 -1302.22)" style="fill: #fff0c6"/>
            <path d="M4829.87,1532.27c-4.79,0-9.17-6.49-12.37-17a117.72,117.72,0,0,1-3.82-18.55h3.78v-33.21h23.68v51.64h0.92C4839,1525.69,4834.67,1532.25,4829.87,1532.27Z" transform="translate(-4762.1 -1302.22)" style="fill: #fff1c9"/>
            <path d="M4829.87,1532c-4.77,0-9.13-6.47-12.32-17a117.23,117.23,0,0,1-3.81-18.47h3.71v-33.12h23.68v51.47H4842C4838.93,1525.48,4834.65,1532,4829.87,1532Z" transform="translate(-4762.1 -1302.22)" style="fill: #fff3cb"/>
            <path d="M4829.87,1531.79c-9.51,0-17.36-25.85-17.53-57.84h5.12v-10.49h23.68v51.3H4842C4838.9,1525.26,4834.63,1531.77,4829.87,1531.79Z" transform="translate(-4762.1 -1302.22)" style="fill: #fff4ce"/>
            <path d="M4829.87,1531.55c-9.47,0-17.29-25.74-17.46-57.6h5.05v-10.48h23.68v51.13h0.76C4838.86,1525,4834.61,1531.53,4829.87,1531.55Z" transform="translate(-4762.1 -1302.22)" style="fill: #fff6d1"/>
            <path d="M4829.87,1531.31c-9.43,0-17.22-25.63-17.39-57.36h5v-10.48h23.68v51h0.71C4838.82,1524.84,4834.58,1531.29,4829.87,1531.31Z" transform="translate(-4762.1 -1302.22)" style="fill: #fff8d4"/>
            <path d="M4829.87,1531.07c-9.39,0-17.14-25.53-17.32-57.12h4.91v-10.48h23.68v50.79h0.66C4838.78,1524.62,4834.56,1531,4829.87,1531.07Z" transform="translate(-4762.1 -1302.22)" style="fill: #fff9d6"/>
          </g>
        </g>
        <g style="opacity: 0.34;mix-blend-mode: screen">
          <path d="M4848.25,1549.07c0-20.83-8.48-32.81-18.95-32.81s-18.95,12-18.95,32.81,18.95,72.61,18.95,72.61S4848.25,1569.9,4848.25,1549.07Z" transform="translate(-4762.1 -1302.22)" style="fill: #f9f1bd"/>
          <path d="M4840.4,1532.64c0,22.88-5,41.44-11.1,41.44s-11.1-18.55-11.1-41.44,5-68.47,11.1-68.47S4840.4,1509.76,4840.4,1532.64Z" transform="translate(-4762.1 -1302.22)" style="fill: #f9f1bd"/>
        </g>
      </g>
      <polygon points="79.25 221.03 55.49 221.03 51 204.48 83.73 204.48 79.25 221.03" style="fill: #ccc;stroke: #2e3e4d;stroke-miterlimit: 10;stroke-width: 6.72977481986894px;fill-rule: evenodd"/>
      <path d="M4771.81,1512.95c-4.1-8.78-6.35-13.94-6.35-28.39s8.67-36.92,21.9-50.3h0a179.3,179.3,0,0,0,12.08,55.12h0l-27.63,23.57h0Z" transform="translate(-4762.1 -1302.22)" style="fill: #dbf286;stroke: #2e3e4d;stroke-miterlimit: 10;stroke-width: 6.72977481986894px;fill-rule: evenodd"/>
      <path d="M4851.61,1506.7a180.34,180.34,0,0,0-22.14-199.26,180.34,180.34,0,0,0-22.14,199.26h44.28Z" transform="translate(-4762.1 -1302.22)" style="fill: #fff;stroke: #2e3e4d;stroke-miterlimit: 10;stroke-width: 6.72977481986894px;fill-rule: evenodd"/>
      <path d="M4829.46,1362.71a18.17,18.17,0,1,1-18.17,18.17,18.17,18.17,0,0,1,18.17-18.17h0Z" transform="translate(-4762.1 -1302.22)" style="fill: #2e3e4d;fill-rule: evenodd"/>
      <path d="M4811.29,1333.26a180.84,180.84,0,0,1,18.17-25.82,180.85,180.85,0,0,1,18.17,25.82,44.6,44.6,0,0,1-36.34,0h0Z" transform="translate(-4762.1 -1302.22)" style="fill: #dbf286;stroke: #2e3e4d;stroke-miterlimit: 10;stroke-width: 6.72977481986894px;fill-rule: evenodd"/>
      <path d="M4835.82,1469a211.43,211.43,0,0,0-6.35-31.31,211.3,211.3,0,0,0-6.35,31.31,57.18,57.18,0,0,0-1,12.57c0,8,3.77,20.35,7.39,27.77,3.63-7.42,7.39-19.76,7.39-27.77A57.19,57.19,0,0,0,4835.82,1469Z" transform="translate(-4762.1 -1302.22)" style="fill: #dbf286;stroke: #2e3e4d;stroke-miterlimit: 10;stroke-width: 6.72977481986894px;fill-rule: evenodd"/>
      <path d="M4829.46,1369a11.88,11.88,0,1,1-11.88,11.88,11.88,11.88,0,0,1,11.88-11.88h0Z" transform="translate(-4762.1 -1302.22)" style="fill: #a5ecde;fill-rule: evenodd"/>
      <path d="M4887,1512.95c4.1-8.78,6.35-13.94,6.35-28.39s-8.67-36.92-21.9-50.3h0a179.3,179.3,0,0,1-12.08,55.12h0l27.63,23.57h0Z" transform="translate(-4762.1 -1302.22)" style="fill: #dbf286;stroke: #2e3e4d;stroke-miterlimit: 10;stroke-width: 6.72977481986894px;fill-rule: evenodd"/>
    </g>
  </g>
</svg>
