<?xml version="1.0" encoding="UTF-8" standalone="no"?>
<svg width="2610px" height="499px" viewBox="0 0 2610 499" version="1.1" xmlns="http://www.w3.org/2000/svg" xmlns:xlink="http://www.w3.org/1999/xlink">
    <defs></defs>
    <g id="Page-1" stroke="none" stroke-width="1" fill="none" fill-rule="evenodd">
        <g id="smoke" fill="#FFFFFF">
            <path d="M958.2936,316.4439 C948.7416,313.8279 938.6906,312.4219 928.3096,312.4219 C885.6176,312.4219 848.4516,336.0669 829.1796,370.9709 C817.9616,362.2829 804.9386,355.8139 790.7676,352.2209 C783.4476,296.6779 750.0456,249.3789 703.2856,222.9539 C673.1476,203.7789 637.4056,192.6249 599.0396,192.6249 C580.1566,192.6249 561.9236,195.3679 544.6606,200.3859 C544.9016,197.8309 545.0366,195.2439 545.0366,192.6249 C545.0366,147.4339 508.4026,110.7989 463.2106,110.7989 C438.7236,110.7989 416.7656,121.5689 401.7696,138.6139 C373.5936,58.1449 297.0326,0.4119 206.9446,0.4119 C92.9436,0.4119 0.5286,92.8279 0.5286,206.8289 C0.5286,303.2789 66.6846,384.2629 156.0916,406.9169 C158.0586,512.6439 282.242254,498.153904 338.158147,498.153904 L487.267278,498.153904 L599.039586,498.153904 C665.190586,498.153904 703.285619,498.153904 758.7346,498.1539 L1967.0996,498.1539 C2034.27433,498.153904 2055.26556,498.153904 2124.86356,498.153904 L2231.31131,498.153904 L2353.79374,498.153904 C2450.27874,498.153904 2502.90287,468.618229 2549.4606,440.2559 C2586.3886,408.2239 2609.7776,360.9929 2609.7776,308.2699 C2609.7776,271.4869 2598.3836,237.3789 2578.9706,209.2269 C2582.4196,197.1539 2584.3056,184.4219 2584.3056,171.2419 C2584.3056,94.9929 2522.4936,33.1809 2446.2446,33.1809 C2369.9956,33.1809 2308.1836,94.9929 2308.1836,171.2419 C2308.1836,175.0039 2308.3776,178.7189 2308.6716,182.4039 C2295.1276,172.4649 2278.4636,166.5299 2260.3736,166.5299 C2215.1826,166.5299 2178.5476,203.1649 2178.5476,248.3559 C2178.5476,251.2589 2178.7046,254.1239 2178.9986,256.9489 C2161.9506,251.3959 2143.7656,248.3559 2124.8636,248.3559 C2082.8146,248.3559 2044.2436,263.2189 2014.0956,287.9679 C2013.8526,248.4039 1981.7126,216.4039 1942.0926,216.4039 C1902.3216,216.4039 1870.0806,248.6449 1870.0806,288.4159 C1870.0806,289.5719 1870.1086,290.7199 1870.1636,291.8609 C1836.9856,291.8449 1809.2316,309.8079 1795.2106,336.1819 C1773.6226,305.1849 1738.3096,284.4599 1698.0746,282.8159 C1698.4306,280.1599 1698.6166,277.4529 1698.6166,274.6999 C1698.6166,241.2399 1671.4946,214.1159 1638.0346,214.1159 C1630.8066,214.1159 1623.8776,215.3839 1617.4516,217.7059 C1593.7046,181.2339 1552.7556,157.0229 1506.1126,156.5049 C1496.1906,132.2349 1472.3586,115.1279 1444.5176,115.1279 C1411.3126,115.1279 1383.7946,139.4569 1378.8016,171.2599 L1370.8966,181.6589 L1367.2196,176.5859 C1362.0316,145.0119 1334.6296,120.9189 1301.5866,120.9189 C1265.5376,120.9189 1236.2056,149.5939 1235.1086,185.3769 C1230.1046,184.8809 1225.0086,184.3969 1219.7946,184.3969 C1201.8546,184.3969 1185.2226,189.9859 1171.5336,199.5119" id="Fill-4774"></path>
            <path d="M788.2495,326.4517 C788.2495,411.9397 718.9475,481.2407 633.4605,481.2407 C547.9725,481.2407 478.6715,411.9397 478.6715,326.4517 C478.6715,240.9637 547.9725,171.6627 633.4605,171.6627 C718.9475,171.6627 788.2495,240.9637 788.2495,326.4517" id="Fill-4777"></path>
            <path d="M1306.5781,283.1039 C1306.5781,343.6069 1257.5311,392.6539 1197.0281,392.6539 C1136.5251,392.6539 1087.4781,343.6069 1087.4781,283.1039 C1087.4781,222.6009 1136.5251,173.5539 1197.0281,173.5539 C1257.5311,173.5539 1306.5781,222.6009 1306.5781,283.1039" id="Fill-4779"></path>
            <path d="M1166.3895,342.1307 C1166.3895,402.6597 1117.3215,451.7277 1056.7925,451.7277 C996.2635,451.7277 947.1955,402.6597 947.1955,342.1307 C947.1955,281.6017 996.2635,232.5337 1056.7925,232.5337 C1117.3215,232.5337 1166.3895,281.6017 1166.3895,342.1307" id="Fill-4781"></path>
            <path d="M858.229705,489.919533 C785.639705,489.919533 726.7937,467.2901 726.7937,394.7001 C726.7937,322.1101 785.6397,263.2631 858.2297,263.2631 C930.8207,263.2631 989.6667,322.1101 989.6667,394.7001 C989.6667,467.2901 930.820705,489.919533 858.229705,489.919533 Z" id="Fill-4783"></path>
            <path d="M2292.7527,137.0205 C2292.7527,202.9465 2346.1957,256.3895 2412.1217,256.3895 C2478.0467,256.3895 2531.4897,202.9465 2531.4897,137.0205 C2531.4897,71.0955 2478.0467,17.6515 2412.1217,17.6515 C2346.1957,17.6515 2292.7527,71.0955 2292.7527,137.0205" id="Fill-4785"></path>
            <path d="M1752.241,335.2079 C1752.241,372.3059 1782.315,402.3789 1819.412,402.3789 C1856.51,402.3789 1886.584,372.3059 1886.584,335.2079 C1886.584,298.1099 1856.51,268.0369 1819.412,268.0369 C1782.315,268.0369 1752.241,298.1099 1752.241,335.2079" id="Fill-4788"></path>
            <path d="M2102.4971,275.5171 C2102.4971,351.5241 2164.1121,413.1391 2240.1191,413.1391 C2316.1251,413.1391 2377.7411,351.5241 2377.7411,275.5171 C2377.7411,199.5101 2316.1251,137.8951 2240.1191,137.8951 C2164.1121,137.8951 2102.4971,199.5101 2102.4971,275.5171" id="Fill-4790"></path>
            <path d="M683.1081,162.2836 C683.1081,215.1716 640.2341,258.0466 587.3451,258.0466 C534.4571,258.0466 491.5831,215.1716 491.5831,162.2836 C491.5831,109.3956 534.4571,66.5206 587.3451,66.5206 C640.2341,66.5206 683.1081,109.3956 683.1081,162.2836" id="Fill-4793"></path>
            <path d="M1625.9988,247.9031 C1625.9988,300.3671 1583.4688,342.8971 1531.0048,342.8971 C1478.5408,342.8971 1436.0108,300.3671 1436.0108,247.9031 C1436.0108,195.4391 1478.5408,152.9091 1531.0048,152.9091 C1583.4688,152.9091 1625.9988,195.4391 1625.9988,247.9031" id="Fill-4795"></path>
            <path d="M452.5349,108.7906 C452.5349,161.6786 409.6609,204.5536 356.7719,204.5536 C303.8839,204.5536 261.0099,161.6786 261.0099,108.7906 C261.0099,55.9026 303.8839,13.0276 356.7719,13.0276 C409.6609,13.0276 452.5349,55.9026 452.5349,108.7906" id="Fill-4797"></path>
        </g>
    </g>
</svg>