<?xml version="1.0" encoding="UTF-8" standalone="no"?>
<svg width="2371px" height="370px" viewBox="0 0 2371 370" version="1.1" xmlns="http://www.w3.org/2000/svg" xmlns:xlink="http://www.w3.org/1999/xlink">
    <defs></defs>
    <g id="Page-1" stroke="none" stroke-width="1" fill="none" fill-rule="evenodd">
        <g id="smoke" fill="#FFFFFF">
            <g>
                <path d="M870.541811,287.676273 C861.864496,285.298091 852.733875,284.019909 843.303472,284.019909 C804.520816,284.019909 770.758139,305.515364 753.250893,337.246273 C743.060135,329.348091 731.229663,323.467182 718.356314,320.200818 C711.706613,269.707182 681.363263,226.708091 638.885118,202.685364 C611.506881,185.253545 579.037808,175.113545 544.185016,175.113545 C527.031149,175.113545 510.467761,177.607182 494.785549,182.169 C495.00448,179.846273 495.127118,177.494455 495.127118,175.113545 C495.127118,134.030818 461.847726,100.726273 420.793997,100.726273 C398.549293,100.726273 378.602007,110.517182 364.979204,126.012636 C339.383305,52.859 269.833063,0.374454545 187.994501,0.374454545 C84.4326726,0.374454545 0.480195632,84.389 0.480195632,188.026273 C0.480195632,275.708091 60.5782324,349.329909 141.798155,369.924455 C199.831248,369.924459 2248.1015,369.924459 2313.431,369.924459 C2346.97747,340.804459 2370.79797,328.175364 2370.79797,280.245364 C2370.79797,246.806273 2360.44732,215.799 2342.81199,190.206273 C2345.94516,179.230818 2347.65846,167.656273 2347.65846,155.674455 C2347.65846,86.3571818 2291.50664,30.1644545 2222.23983,30.1644545 C2152.97301,30.1644545 2096.82119,86.3571818 2096.82119,155.674455 C2096.82119,159.094455 2096.99743,162.471727 2097.26451,165.821727 C2084.96074,156.786273 2069.82268,151.390818 2053.3892,151.390818 C2012.33638,151.390818 1979.05608,184.695364 1979.05608,225.778091 C1979.05608,228.417182 1979.1987,231.021727 1979.46578,233.589909 C1963.97888,228.541727 1947.45909,225.778091 1930.28797,225.778091 C1892.08943,225.778091 1857.05041,239.289909 1829.66309,261.789 C1829.44234,225.821727 1800.24543,196.730818 1764.25347,196.730818 C1728.12433,196.730818 1698.83567,226.040818 1698.83567,262.196273 C1698.83567,263.247182 1698.86111,264.290818 1698.91107,265.328091 C1668.77121,265.313545 1643.55867,281.643545 1630.82158,305.619909 C1611.21042,277.440818 1579.13106,258.599909 1542.58041,257.105364 C1542.90381,254.690818 1543.07278,252.229909 1543.07278,249.727182 C1543.07278,219.309 1518.43437,194.650818 1488.03833,194.650818 C1481.4722,194.650818 1475.1777,195.803545 1469.34013,197.914455 C1447.76767,164.758091 1387.38599,151.861721 1345.01413,151.390812 C1315.72287,108.737721 1284.83329,96.9578057 1259.54172,96.9578057 C1229.37733,96.9578057 1193.23365,138.600549 1188.69786,167.512367 L1184.75585,186.978721 L1184.75585,167.512367 C1180.04292,138.80873 1157.26146,126.012638 1127.24423,126.012638 C1094.49627,126.012638 1059.50648,152.08082 1058.50993,184.61082" id="Fill-4774"></path>
                <path d="M575.453965,367.265135 C497.794177,367.265135 434.839129,374.490636 434.839129,296.774273 C434.839129,219.057909 497.794175,156.057 575.453964,156.057 C653.112844,156.057 716.068799,219.057909 716.068799,296.774273 C716.068799,374.490636 653.112845,367.265135 575.453965,367.265135 Z" id="Fill-4777"></path>
                <path d="M1186.93359,257.367182 C1186.93359,312.369909 1142.37787,356.958091 1087.41518,356.958091 C1032.4525,356.958091 987.896772,312.369909 987.896772,257.367182 C987.896772,202.364455 1032.4525,157.776273 1087.41518,157.776273 C1142.37787,157.776273 1186.93359,202.364455 1186.93359,257.367182" id="Fill-4779"></path>
                <path d="M960.02108,359.573719 C905.034773,359.573719 860.459973,366.054273 860.459973,311.027909 C860.459973,256.001545 905.034773,211.394273 960.02108,211.394273 C1015.00739,211.394273 1059.58219,256.001545 1059.58219,311.027909 C1059.58219,366.054273 1015.00739,359.573719 960.02108,359.573719 Z" id="Fill-4781"></path>
                <path d="M662.901744,340.345175 C662.901744,274.354266 713.69798,239.330091 779.64085,239.330091 C845.584628,239.330091 901.162093,274.354266 901.162093,340.345175 C901.162093,406.336084 845.584632,311.502367 779.640854,311.502367 C779.640854,311.502367 662.901744,406.336084 662.901744,340.345175 Z" id="Fill-4783"></path>
                <path d="M2082.80331,124.564091 C2082.80331,184.496818 2131.35249,233.081364 2191.24159,233.081364 C2251.12978,233.081364 2299.67896,184.496818 2299.67896,124.564091 C2299.67896,64.6322727 2251.12978,16.0468182 2191.24159,16.0468182 C2131.35249,16.0468182 2082.80331,64.6322727 2082.80331,124.564091" id="Fill-4785"></path>
                <path d="M1591.78675,304.734455 C1591.78675,338.459909 1619.10684,365.799 1652.80684,365.799 C1686.50774,365.799 1713.82784,338.459909 1713.82784,304.734455 C1713.82784,271.009 1686.50774,243.669909 1652.80684,243.669909 C1619.10684,243.669909 1591.78675,271.009 1591.78675,304.734455" id="Fill-4788"></path>
                <path d="M2034.98941,351.8823 C2104.03548,351.8823 2160.00925,319.567364 2160.00925,250.470091 C2160.00925,181.372818 2104.03548,125.359182 2034.98942,125.359182 C1965.94245,125.359182 1909.96959,181.372818 1909.96959,250.470091 C1909.96959,319.567364 1965.94244,351.8823 2034.98941,351.8823 Z" id="Fill-4790"></path>
                <path d="M620.555289,147.530545 C620.555289,195.610545 581.607299,234.587818 533.561392,234.587818 C485.516392,234.587818 446.568402,195.610545 446.568402,147.530545 C446.568402,99.4505455 485.516392,60.4732727 533.561392,60.4732727 C581.607299,60.4732727 620.555289,99.4505455 620.555289,147.530545" id="Fill-4793"></path>
                <path d="M1477.10466,225.366455 C1477.10466,273.061 1438.46917,311.724636 1390.80934,311.724636 C1343.14952,311.724636 1304.51403,273.061 1304.51403,225.366455 C1304.51403,177.671909 1343.14952,139.008273 1390.80934,139.008273 C1438.46917,139.008273 1477.10466,177.671909 1477.10466,225.366455" id="Fill-4795"></path>
                <path d="M411.09588,98.9005455 C411.09588,146.980545 372.14789,185.957818 324.101983,185.957818 C276.056983,185.957818 237.108993,146.980545 237.108993,98.9005455 C237.108993,50.8205455 276.056983,11.8432727 324.101983,11.8432727 C372.14789,11.8432727 411.09588,50.8205455 411.09588,98.9005455" id="Fill-4797"></path>
            </g>
        </g>
    </g>
</svg>
